<?xml version="1.0"?>
<!DOCTYPE svg PUBLIC "-//W3C//DTD SVG 1.1//EN" "http://www.w3.org/Graphics/SVG/1.1/DTD/svg11.dtd">
<svg width="512px" height="512px" viewBox="0 0 512 512" xmlns="http://www.w3.org/2000/svg" version="1.1">
<desc>UV-Map from Object: Circle.007. Exported from Blender3D with UV Exportscript</desc>
<rect x="0" y="0" width="512" height="512" fill="none" stroke="blue" stroke-width="1px" />
<g style="fill:none; stroke:black; stroke-width:1px;">
<polygon points="367.917,466.925 365.802,464.817 333.654,489.522 335.148,492.107 " />
<polygon points="296.210,505.057 296.984,507.941 335.148,492.107 333.654,489.522 " />
<polygon points="256.026,510.366 256.027,513.351 296.984,507.941 296.210,505.057 " />
<polygon points="215.844,505.089 215.072,507.970 256.027,513.351 256.026,510.366 " />
<polygon points="178.454,489.592 176.963,492.172 215.072,507.970 215.844,505.089 " />
<polygon points="146.378,464.952 144.270,467.054 176.963,492.172 178.454,489.592 " />
<polygon points="121.798,432.871 119.275,434.317 144.270,467.054 146.378,464.952 " />
<polygon points="106.158,395.555 104.685,397.704 119.275,434.317 121.798,432.871 " />
<polygon points="121.659,277.810 119.133,276.369 104.613,313.013 106.090,315.159 " />
<polygon points="146.178,245.683 144.066,243.585 119.133,276.369 121.659,277.810 " />
<polygon points="178.207,220.984 176.711,218.407 144.066,243.585 146.178,245.683 " />
<polygon points="215.567,205.418 214.790,202.538 176.711,218.407 178.207,220.984 " />
<polygon points="255.739,200.066 255.734,197.081 214.790,202.538 215.567,205.418 " />
<polygon points="295.932,205.299 296.701,202.415 255.734,197.081 255.739,200.066 " />
<polygon points="333.404,220.765 334.894,218.177 296.701,202.415 295.932,205.299 " />
<polygon points="365.599,245.410 367.709,243.298 334.894,218.177 333.404,220.765 " />
<polygon points="390.316,277.551 392.845,276.099 367.709,243.298 365.599,245.410 " />
<polygon points="405.998,314.940 407.474,312.791 392.845,276.099 390.316,277.551 " />
<polygon points="390.460,432.630 392.991,434.077 407.552,397.358 406.073,395.212 " />
<polygon points="390.460,432.630 365.802,464.817 367.917,466.925 392.991,434.077 " />
<polygon points="73.190,395.078 71.071,396.685 104.685,397.704 106.158,395.555 " />
<polygon points="69.066,355.388 67.289,355.390 71.071,396.685 73.190,395.078 " />
<polygon points="73.122,315.692 71.001,314.089 67.289,355.390 69.066,355.388 " />
<polygon points="106.090,315.159 104.613,313.013 71.001,314.089 73.122,315.692 " />
<polygon points="438.917,315.413 443.037,355.042 444.811,355.040 441.033,313.809 " />
<polygon points="405.998,314.940 438.917,315.413 441.033,313.809 407.474,312.791 " />
<polygon points="438.990,394.678 441.109,396.278 444.811,355.040 443.037,355.042 " />
<polygon points="406.073,395.212 407.552,397.358 441.109,396.278 438.990,394.678 " />
<polygon points="438.990,394.678 443.037,355.042 438.917,315.413 " />
<polygon points="406.073,395.212 438.990,394.678 438.917,315.413 " />
<polygon points="406.073,395.212 438.917,315.413 405.998,314.940 " />
<polygon points="215.844,505.089 256.026,510.366 255.891,355.215 " />
<polygon points="73.190,395.078 106.158,395.555 106.090,315.159 " />
<polygon points="255.891,355.215 255.739,200.066 215.567,205.418 " />
<polygon points="255.891,355.215 405.998,314.940 390.316,277.551 " />
<polygon points="255.891,355.215 390.316,277.551 365.599,245.410 " />
<polygon points="255.891,355.215 365.599,245.410 333.404,220.765 " />
<polygon points="255.891,355.215 333.404,220.765 295.932,205.299 " />
<polygon points="255.891,355.215 295.932,205.299 255.739,200.066 " />
<polygon points="406.073,395.212 405.998,314.940 255.891,355.215 " />
<polygon points="406.073,395.212 255.891,355.215 390.460,432.630 " />
<polygon points="365.802,464.817 390.460,432.630 255.891,355.215 " />
<polygon points="365.802,464.817 255.891,355.215 333.654,489.522 " />
<polygon points="333.654,489.522 255.891,355.215 296.210,505.057 " />
<polygon points="296.210,505.057 255.891,355.215 256.026,510.366 " />
<polygon points="69.066,355.388 73.190,395.078 73.122,315.692 " />
<polygon points="106.090,315.159 73.122,315.692 73.190,395.078 " />
<polygon points="228.262,333.446 255.891,355.215 215.567,205.418 " />
<polygon points="228.302,377.035 255.891,355.215 228.262,333.446 " />
<polygon points="215.844,505.089 255.891,355.215 228.302,377.035 " />
<polygon points="106.158,395.555 121.798,432.871 121.911,377.117 " />
<polygon points="121.877,333.558 121.659,277.810 106.090,315.159 " />
<polygon points="228.302,377.035 178.454,489.592 215.844,505.089 " />
<polygon points="228.262,333.446 215.567,205.418 178.207,220.984 " />
<polygon points="121.911,377.117 121.877,333.558 106.090,315.159 " />
<polygon points="121.911,377.117 106.090,315.159 106.158,395.555 " />
<polygon points="146.378,464.952 178.454,489.592 228.302,377.035 " />
<polygon points="146.178,245.683 228.262,333.446 178.207,220.984 " />
<polygon points="121.798,432.871 146.378,464.952 228.302,377.035 " />
<polygon points="121.798,432.871 228.302,377.035 121.911,377.117 " />
<polygon points="121.659,277.810 121.877,333.558 228.262,333.446 " />
<polygon points="121.659,277.810 228.262,333.446 146.178,245.683 " />
<polygon points="121.877,333.558 121.911,377.117 122.836,376.378 122.801,334.295 " />
<polygon points="121.911,377.117 228.302,377.035 227.376,376.291 122.836,376.378 " />
<polygon points="228.262,333.446 121.877,333.558 122.801,334.295 227.338,334.192 " />
<polygon points="228.302,377.035 228.262,333.446 227.338,334.192 227.376,376.291 " />
<polygon points="441.781,396.364 441.781,396.364 508.660,397.320 508.667,397.320 " />
<polygon points="508.660,397.320 508.660,397.320 509.265,354.983 509.391,354.983 " />
<polygon points="508.595,312.648 441.033,313.809 441.708,313.721 508.585,312.648 " />
<polygon points="509.391,354.983 508.595,312.648 508.585,312.648 509.265,354.983 " />
<polygon points="70.327,314.003 70.327,314.003 3.347,313.044 3.340,313.044 " />
<polygon points="3.347,313.044 3.347,313.044 2.740,355.445 2.616,355.445 " />
<polygon points="2.740,355.445 2.740,355.445 3.419,397.844 3.412,397.845 " />
<polygon points="3.419,397.844 3.419,397.844 70.398,396.772 71.071,396.685 " />
<polygon points="443.608,355.041 443.608,355.041 441.781,396.364 441.109,396.278 " />
<polygon points="441.033,313.809 444.811,355.040 443.608,355.041 441.708,313.721 " />
<polygon points="68.497,355.389 68.497,355.389 70.327,314.003 71.001,314.089 " />
<polygon points="70.398,396.772 70.398,396.772 68.497,355.389 67.289,355.390 " />
<polygon points="441.781,396.364 508.660,397.320 509.265,354.983 443.608,355.041 " />
<polygon points="441.708,313.721 443.608,355.041 509.265,354.983 508.585,312.648 " />
<polygon points="70.327,314.003 3.347,313.044 2.740,355.445 68.497,355.389 " />
<polygon points="68.497,355.389 2.740,355.445 3.419,397.844 70.398,396.772 " />
<polygon points="461.473,308.663 503.466,308.663 503.466,242.326 461.473,242.326 " />
<polygon points="419.481,308.663 461.473,308.663 461.473,242.326 419.481,242.326 " />
<polygon points="8.120,239.815 8.120,308.911 51.860,308.911 51.860,239.815 " />
<polygon points="95.600,239.815 51.860,239.815 51.860,308.911 95.600,308.911 " />
<polygon points="5.812,309.307 8.120,308.911 8.120,239.815 5.812,239.420 " />
<polygon points="97.908,309.307 97.908,239.420 95.600,239.815 95.600,308.911 " />
<polygon points="505.682,241.947 503.466,242.326 503.466,308.663 505.682,309.042 " />
<polygon points="417.265,241.947 417.265,309.042 419.481,308.663 419.481,242.326 " />
</g>
</svg>