<?xml version="1.0"?>
<!DOCTYPE svg PUBLIC "-//W3C//DTD SVG 1.1//EN" "http://www.w3.org/Graphics/SVG/1.1/DTD/svg11.dtd">
<svg width="512px" height="512px" viewBox="0 0 512 512" xmlns="http://www.w3.org/2000/svg" version="1.1">
<desc>UV-Map from Object: tens_l. Exported from Blender3D with UV Exportscript</desc>
<rect x="0" y="0" width="512" height="512" fill="none" stroke="blue" stroke-width="1px" />
<g style="fill:none; stroke:black; stroke-width:1px;">
<polygon points="310.751,288.721 340.891,258.580 327.063,249.340 " />
<polygon points="310.751,288.721 327.063,249.340 310.751,246.096 " />
<polygon points="310.751,288.721 310.751,246.096 294.439,249.340 " />
<polygon points="310.751,288.721 294.439,249.340 280.610,258.580 " />
<polygon points="310.751,288.721 280.610,258.580 271.370,272.409 " />
<polygon points="310.751,288.721 271.370,272.409 268.125,288.721 " />
<polygon points="310.751,288.721 268.125,288.721 271.370,305.033 " />
<polygon points="310.751,288.721 271.370,305.033 280.610,318.862 " />
<polygon points="310.751,288.721 280.610,318.862 294.439,328.102 " />
<polygon points="310.751,288.721 294.439,328.102 310.751,331.346 " />
<polygon points="310.751,288.721 310.751,331.346 327.063,328.102 " />
<polygon points="310.751,288.721 327.063,328.102 340.891,318.862 " />
<polygon points="310.751,288.721 340.891,318.862 350.131,305.033 " />
<polygon points="310.751,288.721 350.131,305.033 353.376,288.721 " />
<polygon points="310.751,288.721 353.376,288.721 350.131,272.409 " />
<polygon points="350.131,272.409 340.891,258.580 310.751,288.721 " />
</g>
</svg>