<?xml version="1.0"?>
<!DOCTYPE svg PUBLIC "-//W3C//DTD SVG 1.1//EN" "http://www.w3.org/Graphics/SVG/1.1/DTD/svg11.dtd">
<svg width="1024px" height="1024px" viewBox="0 0 1024 1024" xmlns="http://www.w3.org/2000/svg" version="1.1">
<desc>UV-Map from Object: Cube. Exported from Blender3D with UV Exportscript</desc>
<rect x="0" y="0" width="1024" height="1024" fill="none" stroke="blue" stroke-width="1px" />
<g style="fill:none; stroke:black; stroke-width:1px;">
<polygon points="133.990,983.061 880.967,982.157 867.755,953.840 147.210,954.724 " />
<polygon points="9.515,181.531 20.977,869.674 49.593,856.216 39.865,193.267 " />
<polygon points="993.703,869.130 1009.288,182.517 976.172,194.639 965.145,855.601 " />
<polygon points="20.977,869.674 133.990,983.061 147.210,954.724 49.593,856.216 " />
<polygon points="993.703,869.130 965.145,855.601 867.755,953.840 880.967,982.157 " />
<polygon points="9.515,181.531 39.865,193.267 59.029,172.835 31.338,151.847 " />
<polygon points="31.338,151.847 59.029,172.835 137.646,91.907 124.772,60.840 " />
<polygon points="1009.288,182.517 985.882,151.931 956.824,173.262 976.172,194.639 " />
<polygon points="985.882,151.931 890.131,60.931 877.367,92.143 956.824,173.262 " />
<polygon points="124.772,60.840 137.646,91.907 195.766,88.221 " />
<polygon points="890.131,60.931 819.149,88.982 877.367,92.143 " />
<polygon points="890.131,60.931 124.772,60.840 195.766,88.221 819.149,88.982 " />
<polygon points="137.646,91.907 59.029,172.835 178.450,169.197 " />
<polygon points="188.062,99.075 137.646,91.907 187.083,103.835 " />
<polygon points="189.980,94.689 137.646,91.907 188.062,99.075 " />
<polygon points="192.635,91.011 137.646,91.907 189.980,94.689 " />
<polygon points="195.766,88.221 137.646,91.907 192.635,91.011 " />
<polygon points="137.646,91.907 184.881,162.379 187.083,103.835 " />
<polygon points="137.646,91.907 183.703,165.985 184.881,162.379 " />
<polygon points="137.646,91.907 181.417,168.297 183.703,165.985 " />
<polygon points="137.646,91.907 178.450,169.197 181.417,168.297 " />
<polygon points="877.367,92.143 819.149,88.982 822.301,91.784 " />
<polygon points="877.367,92.143 822.301,91.784 824.976,95.451 " />
<polygon points="877.367,92.143 824.976,95.451 826.920,99.811 " />
<polygon points="877.367,92.143 826.920,99.811 827.927,104.535 " />
<polygon points="877.367,92.143 827.927,104.535 830.277,162.835 " />
<polygon points="877.367,92.143 836.414,169.828 956.824,173.262 " />
<polygon points="877.367,92.143 833.505,168.845 836.414,169.828 " />
<polygon points="877.367,92.143 831.308,166.464 833.505,168.845 " />
<polygon points="877.367,92.143 830.277,162.835 831.308,166.464 " />
<polygon points="147.210,954.724 867.755,953.840 861.959,943.908 153.025,944.797 " />
<polygon points="39.865,193.267 49.593,856.216 59.657,850.295 47.867,199.938 " />
<polygon points="965.145,855.601 976.172,194.639 966.088,200.921 955.073,849.617 " />
<polygon points="49.593,856.216 147.210,954.724 153.025,944.797 59.657,850.295 " />
<polygon points="867.755,953.840 965.145,855.601 955.073,849.617 861.959,943.908 " />
<polygon points="59.029,172.835 39.865,193.267 47.867,199.938 64.715,182.848 " />
<polygon points="976.172,194.639 956.824,173.262 950.366,183.303 966.088,200.921 " />
<polygon points="178.450,169.197 59.029,172.835 64.715,182.848 181.710,179.533 " />
<polygon points="187.083,103.835 184.881,162.379 196.702,166.540 197.847,106.214 " />
<polygon points="184.881,162.379 183.703,165.985 193.877,173.109 196.702,166.540 " />
<polygon points="183.703,165.985 181.417,168.297 188.077,177.496 193.877,173.109 " />
<polygon points="195.766,88.221 192.635,91.011 200.679,98.900 202.358,97.360 " />
<polygon points="192.635,91.011 189.980,94.689 199.297,100.903 200.679,98.900 " />
<polygon points="189.980,94.689 188.062,99.075 198.324,103.377 199.297,100.903 " />
<polygon points="188.062,99.075 187.083,103.835 197.847,106.214 198.324,103.377 " />
<polygon points="181.417,168.297 178.450,169.197 181.710,179.533 188.077,177.496 " />
<polygon points="836.414,169.828 833.505,168.845 826.478,177.764 832.867,180.099 " />
<polygon points="827.927,104.535 826.920,99.811 816.749,104.426 817.244,107.193 " />
<polygon points="826.920,99.811 824.976,95.451 815.759,102.042 816.749,104.426 " />
<polygon points="824.976,95.451 822.301,91.784 814.362,100.154 815.759,102.042 " />
<polygon points="822.301,91.784 819.149,88.982 812.655,98.763 814.362,100.154 " />
<polygon points="833.505,168.845 831.308,166.464 820.719,173.029 826.478,177.764 " />
<polygon points="831.308,166.464 830.277,162.835 818.611,166.796 820.719,173.029 " />
<polygon points="830.277,162.835 827.927,104.535 817.244,107.193 818.611,166.796 " />
<polygon points="956.824,173.262 836.414,169.828 832.867,180.099 950.366,183.303 " />
<polygon points="819.149,88.982 195.766,88.221 202.358,97.360 812.655,98.763 " />
<polygon points="826.478,177.764 820.719,173.029 861.959,943.908 " />
<polygon points="193.877,173.109 188.077,177.496 153.025,944.797 " />
<polygon points="826.478,177.764 861.959,943.908 955.073,849.617 " />
<polygon points="826.478,177.764 955.073,849.617 832.867,180.099 " />
<polygon points="966.088,200.921 950.366,183.303 832.867,180.099 " />
<polygon points="966.088,200.921 832.867,180.099 955.073,849.617 " />
<polygon points="188.077,177.496 181.710,179.533 59.657,850.295 " />
<polygon points="188.077,177.496 59.657,850.295 153.025,944.797 " />
<polygon points="47.867,199.938 59.657,850.295 181.710,179.533 " />
<polygon points="47.867,199.938 181.710,179.533 64.715,182.848 " />
<polygon points="303.314,142.477 202.358,97.360 290.094,158.960 " />
<polygon points="319.652,128.825 202.358,97.360 303.314,142.477 " />
<polygon points="338.449,118.627 202.358,97.360 319.652,128.825 " />
<polygon points="358.865,112.411 202.358,97.360 338.449,118.627 " />
<polygon points="379.828,110.697 202.358,97.360 358.865,112.411 " />
<polygon points="812.655,98.763 202.358,97.360 379.828,110.697 " />
<polygon points="812.655,98.763 379.828,110.697 401.187,111.890 " />
<polygon points="812.655,98.763 401.187,111.890 421.926,117.693 " />
<polygon points="812.655,98.763 421.926,117.693 441.092,127.525 " />
<polygon points="812.655,98.763 441.092,127.525 457.896,140.865 " />
<polygon points="471.171,246.969 456.450,255.370 861.959,943.908 " />
<polygon points="812.655,98.763 457.896,140.865 471.677,157.140 " />
<polygon points="482.269,236.833 471.171,246.969 861.959,943.908 " />
<polygon points="812.655,98.763 471.677,157.140 481.891,175.705 " />
<polygon points="812.655,98.763 481.891,175.705 488.093,195.886 " />
<polygon points="199.297,100.903 202.358,97.360 200.679,98.900 " />
<polygon points="153.025,944.797 283.033,239.010 193.877,173.109 " />
<polygon points="277.199,229.451 193.877,173.109 283.033,239.010 " />
<polygon points="294.184,248.591 283.033,239.010 153.025,944.797 " />
<polygon points="274.677,219.854 193.877,173.109 277.199,229.451 " />
<polygon points="196.702,166.540 202.358,97.360 197.847,106.214 " />
<polygon points="817.244,107.193 816.749,104.426 812.655,98.763 " />
<polygon points="817.244,107.193 812.655,98.763 818.611,166.796 " />
<polygon points="198.324,103.377 197.847,106.214 202.358,97.360 " />
<polygon points="198.324,103.377 202.358,97.360 199.297,100.903 " />
<polygon points="815.759,102.042 814.362,100.154 812.655,98.763 " />
<polygon points="815.759,102.042 812.655,98.763 816.749,104.426 " />
<polygon points="308.892,256.358 294.184,248.591 153.025,944.797 " />
<polygon points="820.719,173.029 482.269,236.833 861.959,943.908 " />
<polygon points="193.877,173.109 274.677,219.854 275.358,198.424 " />
<polygon points="193.877,173.109 275.358,198.424 196.702,166.540 " />
<polygon points="280.715,177.937 196.702,166.540 275.358,198.424 " />
<polygon points="456.450,255.370 308.892,256.358 153.025,944.797 " />
<polygon points="456.450,255.370 153.025,944.797 861.959,943.908 " />
<polygon points="820.719,173.029 487.630,227.019 482.269,236.833 " />
<polygon points="290.094,158.960 202.358,97.360 196.702,166.540 " />
<polygon points="290.094,158.960 196.702,166.540 280.715,177.937 " />
<polygon points="488.093,195.886 489.689,217.302 818.611,166.796 " />
<polygon points="488.093,195.886 818.611,166.796 812.655,98.763 " />
<polygon points="489.689,217.302 487.630,227.019 820.719,173.029 " />
<polygon points="489.689,217.302 820.719,173.029 818.611,166.796 " />
<polygon points="471.677,157.140 457.896,140.865 446.209,152.861 457.954,166.537 " />
<polygon points="481.891,175.705 471.677,157.140 457.954,166.537 466.703,182.044 " />
<polygon points="488.093,195.886 481.891,175.705 466.703,182.044 472.095,198.660 " />
<polygon points="489.689,217.302 488.093,195.886 472.095,198.660 473.693,215.388 " />
<polygon points="487.630,227.019 489.689,217.302 473.693,215.388 472.285,221.066 " />
<polygon points="482.269,236.833 487.630,227.019 472.285,221.066 468.229,227.236 " />
<polygon points="471.171,246.969 482.269,236.833 468.229,227.236 460.602,233.989 " />
<polygon points="456.450,255.370 471.171,246.969 460.602,233.989 449.726,240.490 " />
<polygon points="294.184,248.591 308.892,256.358 314.891,241.962 304.125,235.661 " />
<polygon points="283.033,239.010 294.184,248.591 304.125,235.661 296.437,229.101 " />
<polygon points="277.199,229.451 283.033,239.010 296.437,229.101 292.179,223.020 " />
<polygon points="274.677,219.854 277.199,229.451 292.179,223.020 290.516,217.367 " />
<polygon points="275.358,198.424 274.677,219.854 290.516,217.367 291.408,200.573 " />
<polygon points="280.715,177.937 275.358,198.424 291.408,200.573 296.087,183.748 " />
<polygon points="290.094,158.960 280.715,177.937 296.087,183.748 304.139,167.981 " />
<polygon points="303.314,142.477 290.094,158.960 304.139,167.981 315.317,154.095 " />
<polygon points="319.652,128.825 303.314,142.477 315.317,154.095 329.159,142.584 " />
<polygon points="338.449,118.627 319.652,128.825 329.159,142.584 345.094,133.874 " />
<polygon points="358.865,112.411 338.449,118.627 345.094,133.874 362.433,128.205 " />
<polygon points="379.828,110.697 358.865,112.411 362.433,128.205 380.341,125.472 " />
<polygon points="401.187,111.890 379.828,110.697 380.341,125.472 398.169,127.808 " />
<polygon points="421.926,117.693 401.187,111.890 398.169,127.808 415.675,133.156 " />
<polygon points="441.092,127.525 421.926,117.693 415.675,133.156 431.925,141.590 " />
<polygon points="457.896,140.865 441.092,127.525 431.925,141.590 446.209,152.861 " />
<polygon points="308.892,256.358 456.450,255.370 449.726,240.490 314.891,241.962 " />
<polygon points="315.317,154.095 304.139,167.981 314.891,241.962 " />
<polygon points="398.169,127.808 380.341,125.472 449.726,240.490 " />
<polygon points="415.675,133.156 398.169,127.808 449.726,240.490 " />
<polygon points="431.925,141.590 415.675,133.156 449.726,240.490 " />
<polygon points="446.209,152.861 431.925,141.590 449.726,240.490 " />
<polygon points="290.516,217.367 292.179,223.020 296.437,229.101 " />
<polygon points="296.087,183.748 314.891,241.962 304.139,167.981 " />
<polygon points="314.891,241.962 329.159,142.584 315.317,154.095 " />
<polygon points="449.726,240.490 457.954,166.537 446.209,152.861 " />
<polygon points="290.516,217.367 296.437,229.101 304.125,235.661 " />
<polygon points="290.516,217.367 304.125,235.661 291.408,200.573 " />
<polygon points="291.408,200.573 304.125,235.661 314.891,241.962 " />
<polygon points="291.408,200.573 314.891,241.962 296.087,183.748 " />
<polygon points="345.094,133.874 329.159,142.584 314.891,241.962 " />
<polygon points="449.726,240.490 466.703,182.044 457.954,166.537 " />
<polygon points="473.693,215.388 468.229,227.236 472.285,221.066 " />
<polygon points="362.433,128.205 345.094,133.874 314.891,241.962 " />
<polygon points="449.726,240.490 460.602,233.989 472.095,198.660 " />
<polygon points="449.726,240.490 472.095,198.660 466.703,182.044 " />
<polygon points="460.602,233.989 468.229,227.236 473.693,215.388 " />
<polygon points="460.602,233.989 473.693,215.388 472.095,198.660 " />
<polygon points="380.341,125.472 362.433,128.205 314.891,241.962 " />
<polygon points="380.341,125.472 314.891,241.962 449.726,240.490 " />
<polygon points="1005.499,57.476 985.882,151.931 1009.288,182.517 " />
<polygon points="1005.499,57.476 890.131,60.931 985.882,151.931 " />
<polygon points="10.872,59.050 31.338,151.847 124.772,60.840 " />
<polygon points="10.872,59.050 9.515,181.531 31.338,151.847 " />
<polygon points="990.613,982.622 993.703,869.130 880.967,982.157 " />
<polygon points="24.033,983.488 133.990,983.061 20.977,869.674 " />
<polygon points="990.613,982.622 880.967,982.157 881.295,993.684 996.459,988.651 " />
<polygon points="880.967,982.157 133.990,983.061 133.672,994.605 881.295,993.684 " />
<polygon points="133.990,983.061 24.033,983.488 18.168,989.532 133.672,994.605 " />
<polygon points="890.131,60.931 1005.499,57.476 1011.788,51.146 890.315,48.927 " />
<polygon points="124.772,60.840 890.131,60.931 890.315,48.927 124.499,48.927 " />
<polygon points="10.872,59.050 124.772,60.840 124.499,48.927 4.631,52.911 " />
<polygon points="24.033,983.488 20.977,869.674 9.382,870.270 18.168,989.532 " />
<polygon points="20.977,869.674 9.515,181.531 -2.540,181.179 9.382,870.270 " />
<polygon points="9.515,181.531 10.872,59.050 4.631,52.911 -2.540,181.179 " />
<polygon points="1005.499,57.476 1009.288,182.517 1021.460,182.060 1011.788,51.146 " />
<polygon points="1009.288,182.517 993.703,869.130 1005.269,869.760 1021.460,182.060 " />
<polygon points="993.703,869.130 990.613,982.622 996.459,988.651 1005.269,869.760 " />
</g>
</svg>