<?xml version="1.0" encoding="UTF-8" standalone="no"?>
<!-- Created with Inkscape (http://www.inkscape.org/) -->

<svg
   xmlns:dc="http://purl.org/dc/elements/1.1/"
   xmlns:cc="http://creativecommons.org/ns#"
   xmlns:rdf="http://www.w3.org/1999/02/22-rdf-syntax-ns#"
   xmlns:svg="http://www.w3.org/2000/svg"
   xmlns="http://www.w3.org/2000/svg"
   xmlns:xlink="http://www.w3.org/1999/xlink"
   xmlns:sodipodi="http://sodipodi.sourceforge.net/DTD/sodipodi-0.dtd"
   xmlns:inkscape="http://www.inkscape.org/namespaces/inkscape"
   width="512"
   height="512"
   id="svg2"
   version="1.1"
   inkscape:version="0.48.2 r9819"
   sodipodi:docname="knob.svg"
   inkscape:export-filename="/home/specter/Projects/FGgit/yakovlev-40/Panels/Instruments-3d/ark/knob.png"
   inkscape:export-xdpi="400.12012"
   inkscape:export-ydpi="400.12012">
  <defs
     id="defs4">
    <marker
       inkscape:stockid="Arrow2Mend"
       orient="auto"
       refY="0.0"
       refX="0.0"
       id="Arrow2Mend"
       style="overflow:visible;">
      <path
         id="path4155"
         style="font-size:12.0;fill-rule:evenodd;stroke-width:0.62500000;stroke-linejoin:round;"
         d="M 8.7185878,4.0337352 L -2.2072895,0.016013256 L 8.7185884,-4.0017078 C 6.9730900,-1.6296469 6.9831476,1.6157441 8.7185878,4.0337352 z "
         transform="scale(0.6) rotate(180) translate(0,0)" />
    </marker>
  </defs>
  <sodipodi:namedview
     id="base"
     pagecolor="#ffffff"
     bordercolor="#666666"
     borderopacity="1.0"
     inkscape:pageopacity="0.0"
     inkscape:pageshadow="2"
     inkscape:zoom="1.4"
     inkscape:cx="87.070494"
     inkscape:cy="88.168686"
     inkscape:document-units="px"
     inkscape:current-layer="layer4"
     showgrid="false"
     inkscape:snap-bbox="true"
     showguides="true"
     inkscape:guide-bbox="true"
     inkscape:object-paths="false"
     inkscape:snap-intersection-paths="true"
     inkscape:snap-object-midpoints="true"
     inkscape:window-width="1280"
     inkscape:window-height="976"
     inkscape:window-x="-2"
     inkscape:window-y="-3"
     inkscape:window-maximized="1"
     inkscape:snap-nodes="false"
     inkscape:snap-bbox-edge-midpoints="true"
     inkscape:snap-bbox-midpoints="true">
    <sodipodi:guide
       orientation="0,1"
       position="151.96429,146.60714"
       id="guide3117" />
    <sodipodi:guide
       orientation="1,0"
       position="149.24107,143.52679"
       id="guide3119" />
    <sodipodi:guide
       orientation="1,0"
       position="107.00314,132.10516"
       id="guide4824" />
  </sodipodi:namedview>
  <metadata
     id="metadata7">
    <rdf:RDF>
      <cc:Work
         rdf:about="">
        <dc:format>image/svg+xml</dc:format>
        <dc:type
           rdf:resource="http://purl.org/dc/dcmitype/StillImage" />
        <dc:title />
      </cc:Work>
    </rdf:RDF>
  </metadata>
  <g
     inkscape:label="Layer 1"
     inkscape:groupmode="layer"
     id="layer1"
     transform="translate(0,-540.36218)"
     sodipodi:insensitive="true"
     style="display:none">
    <image
       y="541.21936"
       x="1.7142879"
       id="image3114"
       xlink:href="file:///home/specter/Projects/FGgit/yakovlev-40/Panels/Instruments-3d/ark/ark_hund_l.png"
       height="512"
       width="512" />
    <path
       sodipodi:type="arc"
       style="fill:none;stroke:#000000;stroke-width:2.398;stroke-linecap:square;stroke-linejoin:miter;stroke-miterlimit:4;stroke-opacity:1;stroke-dasharray:none"
       id="path3125"
       sodipodi:cx="179.04955"
       sodipodi:cy="412.24744"
       sodipodi:rx="134.09775"
       sodipodi:ry="134.09775"
       d="m 313.14729,412.24744 c 0,74.06014 -60.0376,134.09774 -134.09774,134.09774 -74.06015,0 -134.097753,-60.0376 -134.097753,-134.09774 0,-74.06014 60.037603,-134.09775 134.097753,-134.09775 74.06014,0 134.09774,60.03761 134.09774,134.09775 z"
       transform="translate(-29.808475,493.5076)" />
    <text
       xml:space="preserve"
       style="font-size:45.7402153px;font-style:normal;font-variant:normal;font-weight:normal;font-stretch:normal;line-height:125%;letter-spacing:0px;word-spacing:0px;fill:#000000;fill-opacity:1;stroke:none;font-family:ISOCPEUR;-inkscape-font-specification:ISOCPEUR"
       id="text3895"
       sodipodi:linespacing="125%"
       x="70.125175"
       y="920.72461"
       inkscape:transform-center-x="56.859974"><tspan
         id="tspan3897">90</tspan></text>
  </g>
  <g
     transform="translate(0,-540.36218)"
     id="g4798"
     inkscape:groupmode="layer"
     inkscape:label="Копия слоя Layer 1"
     style="display:none">
    <path
       transform="translate(-29.808475,493.5076)"
       d="m 313.14729,412.24744 a 134.09775,134.09775 0 1 1 -268.195493,0 134.09775,134.09775 0 1 1 268.195493,0 z"
       sodipodi:ry="134.09775"
       sodipodi:rx="134.09775"
       sodipodi:cy="412.24744"
       sodipodi:cx="179.04955"
       id="path4802"
       style="fill:none;stroke:#000000;stroke-width:2.398;stroke-linecap:square;stroke-linejoin:miter;stroke-miterlimit:4;stroke-opacity:1;stroke-dasharray:none"
       sodipodi:type="arc" />
    <text
       inkscape:transform-center-x="56.859974"
       y="920.25702"
       x="107.00314"
       sodipodi:linespacing="125%"
       id="text4804"
       style="font-size:47px;font-style:normal;font-variant:normal;font-weight:normal;font-stretch:normal;text-align:end;line-height:125%;letter-spacing:0px;word-spacing:0px;text-anchor:end;fill:#000000;fill-opacity:1;stroke:none;font-family:ISOCPEUR;-inkscape-font-specification:ISOCPEUR"
       xml:space="preserve"><tspan
         id="tspan4806"
         style="font-size:47px;text-align:end;text-anchor:end">10</tspan></text>
    <text
       xml:space="preserve"
       style="font-size:47px;font-style:normal;font-variant:normal;font-weight:normal;font-stretch:normal;text-align:end;line-height:125%;letter-spacing:0px;word-spacing:0px;text-anchor:end;fill:#000000;fill-opacity:1;stroke:none;font-family:ISOCPEUR;-inkscape-font-specification:ISOCPEUR"
       id="text4834"
       sodipodi:linespacing="125%"
       x="611.25116"
       y="660.66266"
       inkscape:transform-center-x="46.000678"
       transform="matrix(0.80901699,0.58778525,-0.58778525,0.80901699,0,0)"
       inkscape:transform-center-y="-33.412548"><tspan
         style="font-size:47px;text-align:end;text-anchor:end"
         id="tspan4836">00</tspan></text>
    <text
       inkscape:transform-center-y="-54.073645"
       transform="matrix(0.30901699,0.95105652,-0.95105652,0.30901699,0,0)"
       inkscape:transform-center-x="17.570718"
       y="154.25687"
       x="866.6106"
       sodipodi:linespacing="125%"
       id="text4838"
       style="font-size:47px;font-style:normal;font-variant:normal;font-weight:normal;font-stretch:normal;text-align:end;line-height:125%;letter-spacing:0px;word-spacing:0px;text-anchor:end;fill:#000000;fill-opacity:1;stroke:none;font-family:ISOCPEUR;-inkscape-font-specification:ISOCPEUR"
       xml:space="preserve"><tspan
         id="tspan4840"
         style="font-size:47px;text-align:end;text-anchor:end">90</tspan></text>
    <text
       xml:space="preserve"
       style="font-size:47px;font-style:normal;font-variant:normal;font-weight:normal;font-stretch:normal;text-align:end;line-height:125%;letter-spacing:0px;word-spacing:0px;text-anchor:end;fill:#000000;fill-opacity:1;stroke:none;font-family:ISOCPEUR;-inkscape-font-specification:ISOCPEUR"
       id="text4842"
       sodipodi:linespacing="125%"
       x="775.54285"
       y="-405.53055"
       inkscape:transform-center-x="-17.560234"
       transform="matrix(-0.309017,0.95105651,-0.95105651,-0.309017,0,0)"
       inkscape:transform-center-y="-54.077083"><tspan
         style="font-size:47px;text-align:end;text-anchor:end"
         id="tspan4844">80</tspan></text>
    <text
       inkscape:transform-center-y="-33.421474"
       transform="matrix(-0.809017,0.58778525,-0.58778525,-0.809017,0,0)"
       inkscape:transform-center-x="-45.994232"
       y="-804.87982"
       x="372.83273"
       sodipodi:linespacing="125%"
       id="text4846"
       style="font-size:47px;font-style:normal;font-variant:normal;font-weight:normal;font-stretch:normal;text-align:end;line-height:125%;letter-spacing:0px;word-spacing:0px;text-anchor:end;fill:#000000;fill-opacity:1;stroke:none;font-family:ISOCPEUR;-inkscape-font-specification:ISOCPEUR"
       xml:space="preserve"><tspan
         id="tspan4848"
         style="font-size:47px;text-align:end;text-anchor:end">70</tspan></text>
    <text
       xml:space="preserve"
       style="font-size:47px;font-style:normal;font-variant:normal;font-weight:normal;font-stretch:normal;text-align:end;line-height:125%;letter-spacing:0px;word-spacing:0px;text-anchor:end;fill:#000000;fill-opacity:1;stroke:none;font-family:ISOCPEUR;-inkscape-font-specification:ISOCPEUR"
       id="text4850"
       sodipodi:linespacing="125%"
       x="-187.69821"
       y="-891.25311"
       inkscape:transform-center-x="-56.859997"
       transform="scale(-1,-1)"><tspan
         style="font-size:47px;text-align:end;text-anchor:end"
         id="tspan4852">60</tspan></text>
    <text
       transform="matrix(-0.80901699,-0.58778525,0.58778525,-0.80901699,0,0)"
       inkscape:transform-center-x="-46.00071"
       y="-631.65875"
       x="-691.94623"
       sodipodi:linespacing="125%"
       id="text4854"
       style="font-size:47px;font-style:normal;font-variant:normal;font-weight:normal;font-stretch:normal;text-align:end;line-height:125%;letter-spacing:0px;word-spacing:0px;text-anchor:end;fill:#000000;fill-opacity:1;stroke:none;font-family:ISOCPEUR;-inkscape-font-specification:ISOCPEUR"
       xml:space="preserve"
       inkscape:transform-center-y="33.412597"><tspan
         id="tspan4856"
         style="font-size:47px;text-align:end;text-anchor:end">50</tspan></text>
    <text
       inkscape:transform-center-y="54.073682"
       xml:space="preserve"
       style="font-size:47px;font-style:normal;font-variant:normal;font-weight:normal;font-stretch:normal;text-align:end;line-height:125%;letter-spacing:0px;word-spacing:0px;text-anchor:end;fill:#000000;fill-opacity:1;stroke:none;font-family:ISOCPEUR;-inkscape-font-specification:ISOCPEUR"
       id="text4858"
       sodipodi:linespacing="125%"
       x="-947.30566"
       y="-125.25295"
       inkscape:transform-center-x="-17.570692"
       transform="matrix(-0.30901699,-0.95105652,0.95105652,-0.30901699,0,0)"><tspan
         style="font-size:47px;text-align:end;text-anchor:end"
         id="tspan4860">40</tspan></text>
    <text
       transform="matrix(0.309017,-0.95105651,0.95105651,0.309017,0,0)"
       inkscape:transform-center-x="17.560273"
       y="434.53445"
       x="-856.23792"
       sodipodi:linespacing="125%"
       id="text4862"
       style="font-size:47px;font-style:normal;font-variant:normal;font-weight:normal;font-stretch:normal;text-align:end;line-height:125%;letter-spacing:0px;word-spacing:0px;text-anchor:end;fill:#000000;fill-opacity:1;stroke:none;font-family:ISOCPEUR;-inkscape-font-specification:ISOCPEUR"
       xml:space="preserve"
       inkscape:transform-center-y="54.077035"><tspan
         id="tspan4864"
         style="font-size:47px;text-align:end;text-anchor:end">30</tspan></text>
    <text
       inkscape:transform-center-y="33.421447"
       xml:space="preserve"
       style="font-size:47px;font-style:normal;font-variant:normal;font-weight:normal;font-stretch:normal;text-align:end;line-height:125%;letter-spacing:0px;word-spacing:0px;text-anchor:end;fill:#000000;fill-opacity:1;stroke:none;font-family:ISOCPEUR;-inkscape-font-specification:ISOCPEUR"
       id="text4866"
       sodipodi:linespacing="125%"
       x="-453.5278"
       y="833.88373"
       inkscape:transform-center-x="45.994242"
       transform="matrix(0.809017,-0.58778525,0.58778525,0.809017,0,0)"><tspan
         style="font-size:47px;text-align:end;text-anchor:end"
         id="tspan4868">20</tspan></text>
    <path
       sodipodi:type="arc"
       style="fill:none;stroke:#000000;stroke-width:2.398;stroke-linecap:square;stroke-linejoin:miter;stroke-miterlimit:4;stroke-opacity:1;stroke-dasharray:none"
       id="path4870"
       sodipodi:cx="133.84521"
       sodipodi:cy="338.00122"
       sodipodi:rx="2.2728431"
       sodipodi:ry="2.2728431"
       d="m 136.11806,338.00122 a 2.2728431,2.2728431 0 1 1 -4.54569,0 2.2728431,2.2728431 0 1 1 4.54569,0 z"
       transform="matrix(0.14401572,0,0,0.14401572,129.96526,857.07755)" />
    <text
       xml:space="preserve"
       style="font-size:43.89461899px;font-style:normal;font-variant:normal;font-weight:normal;font-stretch:normal;text-align:end;line-height:125%;letter-spacing:0px;word-spacing:0px;text-anchor:end;fill:#000000;fill-opacity:1;stroke:none;font-family:ISOCPEUR;-inkscape-font-specification:ISOCPEUR"
       id="text4872"
       sodipodi:linespacing="125%"
       x="56.501251"
       y="919.25702"
       inkscape:transform-center-x="99.834115"
       inkscape:transform-center-y="-0.63303132">1</text>
    <text
       inkscape:transform-center-y="-50.465277"
       inkscape:transform-center-x="86.142382"
       y="723.28833"
       x="489.38425"
       sodipodi:linespacing="125%"
       id="text4878"
       style="font-size:43.89461899px;font-style:normal;font-variant:normal;font-weight:normal;font-stretch:normal;text-align:end;line-height:125%;letter-spacing:0px;word-spacing:0px;text-anchor:end;fill:#000000;fill-opacity:1;stroke:none;font-family:ISOCPEUR;-inkscape-font-specification:ISOCPEUR"
       xml:space="preserve"
       transform="matrix(0.8660254,0.5,-0.5,0.8660254,0,0)">2</text>
    <text
       transform="matrix(0.5,0.8660254,-0.8660254,0.5,0,0)"
       xml:space="preserve"
       style="font-size:43.89461899px;font-style:normal;font-variant:normal;font-weight:normal;font-stretch:normal;text-align:end;line-height:125%;letter-spacing:0px;word-spacing:0px;text-anchor:end;fill:#000000;fill-opacity:1;stroke:none;font-family:ISOCPEUR;-inkscape-font-specification:ISOCPEUR"
       id="text4880"
       sodipodi:linespacing="125%"
       x="766.2876"
       y="337.13297"
       inkscape:transform-center-x="49.368852"
       inkscape:transform-center-y="-86.77538">3</text>
    <text
       inkscape:transform-center-y="-99.834138"
       inkscape:transform-center-x="-0.63301535"
       y="-135.73907"
       x="813.0152"
       sodipodi:linespacing="125%"
       id="text4882"
       style="font-size:43.89461899px;font-style:normal;font-variant:normal;font-weight:normal;font-stretch:normal;text-align:end;line-height:125%;letter-spacing:0px;word-spacing:0px;text-anchor:end;fill:#000000;fill-opacity:1;stroke:none;font-family:ISOCPEUR;-inkscape-font-specification:ISOCPEUR"
       xml:space="preserve"
       transform="matrix(0,1,-1,0,0,0)">4</text>
    <text
       transform="matrix(-0.5,0.8660254,-0.8660254,-0.5,0,0)"
       xml:space="preserve"
       style="font-size:43.89461899px;font-style:normal;font-variant:normal;font-weight:normal;font-stretch:normal;text-align:end;line-height:125%;letter-spacing:0px;word-spacing:0px;text-anchor:end;fill:#000000;fill-opacity:1;stroke:none;font-family:ISOCPEUR;-inkscape-font-specification:ISOCPEUR"
       id="text4884"
       sodipodi:linespacing="125%"
       x="617.04651"
       y="-568.62207"
       inkscape:transform-center-x="-52.210605"
       inkscape:transform-center-y="-89.143988">5</text>
    <text
       inkscape:transform-center-y="-51.095667"
       inkscape:transform-center-x="-89.787703"
       y="-845.52539"
       x="230.89113"
       sodipodi:linespacing="125%"
       id="text4886"
       style="font-size:43.89461899px;font-style:normal;font-variant:normal;font-weight:normal;font-stretch:normal;text-align:end;line-height:125%;letter-spacing:0px;word-spacing:0px;text-anchor:end;fill:#000000;fill-opacity:1;stroke:none;font-family:ISOCPEUR;-inkscape-font-specification:ISOCPEUR"
       xml:space="preserve"
       transform="matrix(-0.8660254,0.5,-0.5,-0.8660254,0,0)">6</text>
    <text
       transform="scale(-1,-1)"
       xml:space="preserve"
       style="font-size:43.89461899px;font-style:normal;font-variant:normal;font-weight:normal;font-stretch:normal;text-align:end;line-height:125%;letter-spacing:0px;word-spacing:0px;text-anchor:end;fill:#000000;fill-opacity:1;stroke:none;font-family:ISOCPEUR;-inkscape-font-specification:ISOCPEUR"
       id="text4888"
       sodipodi:linespacing="125%"
       x="-241.98091"
       y="-892.25299"
       inkscape:transform-center-x="-103.30627"
       inkscape:transform-center-y="0.64367756">7</text>
    <text
       inkscape:transform-center-y="52.21057"
       inkscape:transform-center-x="-89.143983"
       y="-696.2843"
       x="-674.86389"
       sodipodi:linespacing="125%"
       id="text4890"
       style="font-size:43.89461899px;font-style:normal;font-variant:normal;font-weight:normal;font-stretch:normal;text-align:end;line-height:125%;letter-spacing:0px;word-spacing:0px;text-anchor:end;fill:#000000;fill-opacity:1;stroke:none;font-family:ISOCPEUR;-inkscape-font-specification:ISOCPEUR"
       xml:space="preserve"
       transform="matrix(-0.8660254,-0.5,0.5,-0.8660254,0,0)">8</text>
    <text
       transform="matrix(-0.5,-0.8660254,0.8660254,-0.5,0,0)"
       xml:space="preserve"
       style="font-size:43.89461899px;font-style:normal;font-variant:normal;font-weight:normal;font-stretch:normal;text-align:end;line-height:125%;letter-spacing:0px;word-spacing:0px;text-anchor:end;fill:#000000;fill-opacity:1;stroke:none;font-family:ISOCPEUR;-inkscape-font-specification:ISOCPEUR"
       id="text4892"
       sodipodi:linespacing="125%"
       x="-951.76721"
       y="-310.12894"
       inkscape:transform-center-x="-51.095655"
       inkscape:transform-center-y="89.787668">9</text>
    <text
       inkscape:transform-center-y="103.3062"
       inkscape:transform-center-x="0.64369415"
       y="162.7431"
       x="-998.49481"
       sodipodi:linespacing="125%"
       id="text4894"
       style="font-size:43.89461899px;font-style:normal;font-variant:normal;font-weight:normal;font-stretch:normal;text-align:end;line-height:125%;letter-spacing:0px;word-spacing:0px;text-anchor:end;fill:#000000;fill-opacity:1;stroke:none;font-family:ISOCPEUR;-inkscape-font-specification:ISOCPEUR"
       xml:space="preserve"
       transform="matrix(0,-1,1,0,0,0)">10</text>
    <text
       transform="matrix(0.5,-0.8660254,0.8660254,0.5,0,0)"
       xml:space="preserve"
       style="font-size:43.89461899px;font-style:normal;font-variant:normal;font-weight:normal;font-stretch:normal;text-align:end;line-height:125%;letter-spacing:0px;word-spacing:0px;text-anchor:end;fill:#000000;fill-opacity:1;stroke:none;font-family:ISOCPEUR;-inkscape-font-specification:ISOCPEUR"
       id="text4896"
       sodipodi:linespacing="125%"
       x="-802.52612"
       y="595.6261"
       inkscape:transform-center-x="52.210575"
       inkscape:transform-center-y="89.143947">11</text>
    <text
       inkscape:transform-center-y="51.095617"
       inkscape:transform-center-x="89.787646"
       y="872.52942"
       x="-416.37073"
       sodipodi:linespacing="125%"
       id="text4898"
       style="font-size:43.89461899px;font-style:normal;font-variant:normal;font-weight:normal;font-stretch:normal;text-align:end;line-height:125%;letter-spacing:0px;word-spacing:0px;text-anchor:end;fill:#000000;fill-opacity:1;stroke:none;font-family:ISOCPEUR;-inkscape-font-specification:ISOCPEUR"
       xml:space="preserve"
       transform="matrix(0.8660254,-0.5,0.5,0.8660254,0,0)">12</text>
  </g>
  <g
     inkscape:groupmode="layer"
     id="layer4"
     inkscape:label="Слой">
    <path
       sodipodi:type="arc"
       style="fill:none;stroke:#000000;stroke-width:3.098;stroke-linecap:square;stroke-linejoin:miter;stroke-miterlimit:1.89999998;stroke-opacity:1;stroke-dasharray:none;marker-end:url(#Arrow2Mend)"
       id="path3355"
       sodipodi:cx="159.64285"
       sodipodi:cy="376.64285"
       sodipodi:rx="106.78571"
       sodipodi:ry="106.78571"
       d="M 233.05282,454.1939 A 106.78571,106.78571 0 0 1 94.049628,460.90861"
       transform="translate(-10.401783,-11.249993)"
       sodipodi:start="0.81282272"
       sodipodi:end="2.2322327"
       sodipodi:open="true" />
  </g>
  <g
     inkscape:groupmode="layer"
     id="layer3"
     inkscape:label="2"
     sodipodi:insensitive="true"
     style="display:none">
    <g
       id="g4777"
       transform="matrix(1.157941,0,0,1.157941,-210.59025,31.070977)">
      <rect
         id="rect4735"
         height="512"
         width="512"
         y="0"
         x="0"
         style="fill:none;stroke:#0000ff;stroke-width:1px" />
      <g
         id="g4737"
         style="fill:none;stroke:#000000;stroke-width:1px">
        <polygon
           id="polygon4739"
           points="340.891,258.58 327.063,249.34 310.751,288.721 " />
        <polygon
           id="polygon4741"
           points="327.063,249.34 310.751,246.096 310.751,288.721 " />
        <polygon
           id="polygon4743"
           points="310.751,246.096 294.439,249.34 310.751,288.721 " />
        <polygon
           id="polygon4745"
           points="294.439,249.34 280.61,258.58 310.751,288.721 " />
        <polygon
           id="polygon4747"
           points="280.61,258.58 271.37,272.409 310.751,288.721 " />
        <polygon
           id="polygon4749"
           points="271.37,272.409 268.125,288.721 310.751,288.721 " />
        <polygon
           id="polygon4751"
           points="268.125,288.721 271.37,305.033 310.751,288.721 " />
        <polygon
           id="polygon4753"
           points="271.37,305.033 280.61,318.862 310.751,288.721 " />
        <polygon
           id="polygon4755"
           points="280.61,318.862 294.439,328.102 310.751,288.721 " />
        <polygon
           id="polygon4757"
           points="294.439,328.102 310.751,331.346 310.751,288.721 " />
        <polygon
           id="polygon4759"
           points="310.751,331.346 327.063,328.102 310.751,288.721 " />
        <polygon
           id="polygon4761"
           points="327.063,328.102 340.891,318.862 310.751,288.721 " />
        <polygon
           id="polygon4763"
           points="340.891,318.862 350.131,305.033 310.751,288.721 " />
        <polygon
           id="polygon4765"
           points="350.131,305.033 353.376,288.721 310.751,288.721 " />
        <polygon
           id="polygon4767"
           points="353.376,288.721 350.131,272.409 310.751,288.721 " />
        <polygon
           id="polygon4769"
           points="340.891,258.58 310.751,288.721 350.131,272.409 " />
      </g>
    </g>
  </g>
  <g
     inkscape:groupmode="layer"
     id="layer2"
     inkscape:label="1"
     sodipodi:insensitive="true"
     style="display:none">
    <g
       id="g4345"
       transform="translate(-106.91416,8.9820242)">
      <rect
         id="rect4155"
         height="512"
         width="512"
         y="0"
         x="0"
         style="fill:none;stroke:#0000ff;stroke-width:1px" />
      <g
         id="g4157"
         style="fill:none;stroke:#000000;stroke-width:1px">
        <polygon
           id="polygon4159"
           points="335.148,492.107 367.917,466.925 365.802,464.817 333.654,489.522 " />
        <polygon
           id="polygon4161"
           points="333.654,489.522 296.21,505.057 296.984,507.941 335.148,492.107 " />
        <polygon
           id="polygon4163"
           points="296.21,505.057 256.026,510.366 256.027,513.351 296.984,507.941 " />
        <polygon
           id="polygon4165"
           points="256.026,510.366 215.844,505.089 215.072,507.97 256.027,513.351 " />
        <polygon
           id="polygon4167"
           points="215.844,505.089 178.454,489.592 176.963,492.172 215.072,507.97 " />
        <polygon
           id="polygon4169"
           points="178.454,489.592 146.378,464.952 144.27,467.054 176.963,492.172 " />
        <polygon
           id="polygon4171"
           points="146.378,464.952 121.798,432.871 119.275,434.317 144.27,467.054 " />
        <polygon
           id="polygon4173"
           points="121.798,432.871 106.158,395.555 104.685,397.704 119.275,434.317 " />
        <polygon
           id="polygon4175"
           points="106.09,315.159 121.659,277.81 119.133,276.369 104.613,313.013 " />
        <polygon
           id="polygon4177"
           points="121.659,277.81 146.178,245.683 144.066,243.585 119.133,276.369 " />
        <polygon
           id="polygon4179"
           points="146.178,245.683 178.207,220.984 176.711,218.407 144.066,243.585 " />
        <polygon
           id="polygon4181"
           points="178.207,220.984 215.567,205.418 214.79,202.538 176.711,218.407 " />
        <polygon
           id="polygon4183"
           points="215.567,205.418 255.739,200.066 255.734,197.081 214.79,202.538 " />
        <polygon
           id="polygon4185"
           points="255.739,200.066 295.932,205.299 296.701,202.415 255.734,197.081 " />
        <polygon
           id="polygon4187"
           points="295.932,205.299 333.404,220.765 334.894,218.177 296.701,202.415 " />
        <polygon
           id="polygon4189"
           points="333.404,220.765 365.599,245.41 367.709,243.298 334.894,218.177 " />
        <polygon
           id="polygon4191"
           points="365.599,245.41 390.316,277.551 392.845,276.099 367.709,243.298 " />
        <polygon
           id="polygon4193"
           points="390.316,277.551 405.998,314.94 407.474,312.791 392.845,276.099 " />
        <polygon
           id="polygon4195"
           points="406.073,395.212 390.46,432.63 392.991,434.077 407.552,397.358 " />
        <polygon
           id="polygon4197"
           points="392.991,434.077 390.46,432.63 365.802,464.817 367.917,466.925 " />
        <polygon
           id="polygon4199"
           points="106.158,395.555 73.19,395.078 71.071,396.685 104.685,397.704 " />
        <polygon
           id="polygon4201"
           points="73.19,395.078 69.066,355.388 67.289,355.39 71.071,396.685 " />
        <polygon
           id="polygon4203"
           points="69.066,355.388 73.122,315.692 71.001,314.089 67.289,355.39 " />
        <polygon
           id="polygon4205"
           points="73.122,315.692 106.09,315.159 104.613,313.013 71.001,314.089 " />
        <polygon
           id="polygon4207"
           points="441.033,313.809 438.917,315.413 443.037,355.042 444.811,355.04 " />
        <polygon
           id="polygon4209"
           points="407.474,312.791 405.998,314.94 438.917,315.413 441.033,313.809 " />
        <polygon
           id="polygon4211"
           points="443.037,355.042 438.99,394.678 441.109,396.278 444.811,355.04 " />
        <polygon
           id="polygon4213"
           points="438.99,394.678 406.073,395.212 407.552,397.358 441.109,396.278 " />
        <polygon
           id="polygon4215"
           points="438.99,394.678 443.037,355.042 438.917,315.413 " />
        <polygon
           id="polygon4217"
           points="406.073,395.212 438.99,394.678 438.917,315.413 " />
        <polygon
           id="polygon4219"
           points="406.073,395.212 438.917,315.413 405.998,314.94 " />
        <polygon
           id="polygon4221"
           points="215.844,505.089 256.026,510.366 255.891,355.215 " />
        <polygon
           id="polygon4223"
           points="73.19,395.078 106.158,395.555 106.09,315.159 " />
        <polygon
           id="polygon4225"
           points="255.891,355.215 255.739,200.066 215.567,205.418 " />
        <polygon
           id="polygon4227"
           points="255.891,355.215 405.998,314.94 390.316,277.551 " />
        <polygon
           id="polygon4229"
           points="255.891,355.215 390.316,277.551 365.599,245.41 " />
        <polygon
           id="polygon4231"
           points="255.891,355.215 365.599,245.41 333.404,220.765 " />
        <polygon
           id="polygon4233"
           points="255.891,355.215 333.404,220.765 295.932,205.299 " />
        <polygon
           id="polygon4235"
           points="255.891,355.215 295.932,205.299 255.739,200.066 " />
        <polygon
           id="polygon4237"
           points="406.073,395.212 405.998,314.94 255.891,355.215 " />
        <polygon
           id="polygon4239"
           points="406.073,395.212 255.891,355.215 390.46,432.63 " />
        <polygon
           id="polygon4241"
           points="365.802,464.817 390.46,432.63 255.891,355.215 " />
        <polygon
           id="polygon4243"
           points="365.802,464.817 255.891,355.215 333.654,489.522 " />
        <polygon
           id="polygon4245"
           points="333.654,489.522 255.891,355.215 296.21,505.057 " />
        <polygon
           id="polygon4247"
           points="296.21,505.057 255.891,355.215 256.026,510.366 " />
        <polygon
           id="polygon4249"
           points="69.066,355.388 73.19,395.078 73.122,315.692 " />
        <polygon
           id="polygon4251"
           points="106.09,315.159 73.122,315.692 73.19,395.078 " />
        <polygon
           id="polygon4253"
           points="228.262,333.446 255.891,355.215 215.567,205.418 " />
        <polygon
           id="polygon4255"
           points="228.302,377.035 255.891,355.215 228.262,333.446 " />
        <polygon
           id="polygon4257"
           points="215.844,505.089 255.891,355.215 228.302,377.035 " />
        <polygon
           id="polygon4259"
           points="106.158,395.555 121.798,432.871 121.911,377.117 " />
        <polygon
           id="polygon4261"
           points="121.877,333.558 121.659,277.81 106.09,315.159 " />
        <polygon
           id="polygon4263"
           points="228.302,377.035 178.454,489.592 215.844,505.089 " />
        <polygon
           id="polygon4265"
           points="228.262,333.446 215.567,205.418 178.207,220.984 " />
        <polygon
           id="polygon4267"
           points="121.911,377.117 121.877,333.558 106.09,315.159 " />
        <polygon
           id="polygon4269"
           points="121.911,377.117 106.09,315.159 106.158,395.555 " />
        <polygon
           id="polygon4271"
           points="146.378,464.952 178.454,489.592 228.302,377.035 " />
        <polygon
           id="polygon4273"
           points="146.178,245.683 228.262,333.446 178.207,220.984 " />
        <polygon
           id="polygon4275"
           points="121.798,432.871 146.378,464.952 228.302,377.035 " />
        <polygon
           id="polygon4277"
           points="121.798,432.871 228.302,377.035 121.911,377.117 " />
        <polygon
           id="polygon4279"
           points="121.659,277.81 121.877,333.558 228.262,333.446 " />
        <polygon
           id="polygon4281"
           points="121.659,277.81 228.262,333.446 146.178,245.683 " />
        <polygon
           id="polygon4283"
           points="122.801,334.295 121.877,333.558 121.911,377.117 122.836,376.378 " />
        <polygon
           id="polygon4285"
           points="122.836,376.378 121.911,377.117 228.302,377.035 227.376,376.291 " />
        <polygon
           id="polygon4287"
           points="227.338,334.192 228.262,333.446 121.877,333.558 122.801,334.295 " />
        <polygon
           id="polygon4289"
           points="227.376,376.291 228.302,377.035 228.262,333.446 227.338,334.192 " />
        <polygon
           id="polygon4291"
           points="508.667,397.32 441.781,396.364 441.781,396.364 508.66,397.32 " />
        <polygon
           id="polygon4293"
           points="509.391,354.983 508.66,397.32 508.66,397.32 509.265,354.983 " />
        <polygon
           id="polygon4295"
           points="508.585,312.648 508.595,312.648 441.033,313.809 441.708,313.721 " />
        <polygon
           id="polygon4297"
           points="509.265,354.983 509.391,354.983 508.595,312.648 508.585,312.648 " />
        <polygon
           id="polygon4299"
           points="3.34,313.044 70.327,314.003 70.327,314.003 3.347,313.044 " />
        <polygon
           id="polygon4301"
           points="2.616,355.445 3.347,313.044 3.347,313.044 2.74,355.445 " />
        <polygon
           id="polygon4303"
           points="3.412,397.845 2.74,355.445 2.74,355.445 3.419,397.844 " />
        <polygon
           id="polygon4305"
           points="71.071,396.685 3.419,397.844 3.419,397.844 70.398,396.772 " />
        <polygon
           id="polygon4307"
           points="441.109,396.278 443.608,355.041 443.608,355.041 441.781,396.364 " />
        <polygon
           id="polygon4309"
           points="441.708,313.721 441.033,313.809 444.811,355.04 443.608,355.041 " />
        <polygon
           id="polygon4311"
           points="71.001,314.089 68.497,355.389 68.497,355.389 70.327,314.003 " />
        <polygon
           id="polygon4313"
           points="67.289,355.39 70.398,396.772 70.398,396.772 68.497,355.389 " />
        <polygon
           id="polygon4315"
           points="443.608,355.041 441.781,396.364 508.66,397.32 509.265,354.983 " />
        <polygon
           id="polygon4317"
           points="508.585,312.648 441.708,313.721 443.608,355.041 509.265,354.983 " />
        <polygon
           id="polygon4319"
           points="68.497,355.389 70.327,314.003 3.347,313.044 2.74,355.445 " />
        <polygon
           id="polygon4321"
           points="70.398,396.772 68.497,355.389 2.74,355.445 3.419,397.844 " />
        <polygon
           id="polygon4323"
           points="461.473,242.326 461.473,308.663 503.466,308.663 503.466,242.326 " />
        <polygon
           id="polygon4325"
           points="419.481,242.326 419.481,308.663 461.473,308.663 461.473,242.326 " />
        <polygon
           id="polygon4327"
           points="51.86,239.815 8.12,239.815 8.12,308.911 51.86,308.911 " />
        <polygon
           id="polygon4329"
           points="95.6,308.911 95.6,239.815 51.86,239.815 51.86,308.911 " />
        <polygon
           id="polygon4331"
           points="5.812,239.42 5.812,309.307 8.12,308.911 8.12,239.815 " />
        <polygon
           id="polygon4333"
           points="95.6,308.911 97.908,309.307 97.908,239.42 95.6,239.815 " />
        <polygon
           id="polygon4335"
           points="505.682,309.042 505.682,241.947 503.466,242.326 503.466,308.663 " />
        <polygon
           id="polygon4337"
           points="419.481,242.326 417.265,241.947 417.265,309.042 419.481,308.663 " />
      </g>
    </g>
  </g>
</svg>
