<?xml version="1.0" encoding="UTF-8" standalone="no"?>
<!-- Created with Inkscape (http://www.inkscape.org/) -->

<svg
   xmlns:dc="http://purl.org/dc/elements/1.1/"
   xmlns:cc="http://creativecommons.org/ns#"
   xmlns:rdf="http://www.w3.org/1999/02/22-rdf-syntax-ns#"
   xmlns:svg="http://www.w3.org/2000/svg"
   xmlns="http://www.w3.org/2000/svg"
   xmlns:xlink="http://www.w3.org/1999/xlink"
   xmlns:sodipodi="http://sodipodi.sourceforge.net/DTD/sodipodi-0.dtd"
   xmlns:inkscape="http://www.inkscape.org/namespaces/inkscape"
   width="1024"
   height="1024"
   id="svg4900"
   version="1.1"
   inkscape:version="0.48.2 r9819"
   sodipodi:docname="рисунок.svg">
  <defs
     id="defs4902">
    <marker
       inkscape:stockid="Arrow2Mend"
       orient="auto"
       refY="0.0"
       refX="0.0"
       id="Arrow2Mend"
       style="overflow:visible;">
      <path
         id="path7245"
         style="font-size:12.0;fill-rule:evenodd;stroke-width:0.62500000;stroke-linejoin:round;"
         d="M 8.7185878,4.0337352 L -2.2072895,0.016013256 L 8.7185884,-4.0017078 C 6.9730900,-1.6296469 6.9831476,1.6157441 8.7185878,4.0337352 z "
         transform="scale(0.6) rotate(180) translate(0,0)" />
    </marker>
    <marker
       inkscape:stockid="Arrow2Lend"
       orient="auto"
       refY="0.0"
       refX="0.0"
       id="Arrow2Lend"
       style="overflow:visible;">
      <path
         id="path7239"
         style="font-size:12.0;fill-rule:evenodd;stroke-width:0.62500000;stroke-linejoin:round;"
         d="M 8.7185878,4.0337352 L -2.2072895,0.016013256 L 8.7185884,-4.0017078 C 6.9730900,-1.6296469 6.9831476,1.6157441 8.7185878,4.0337352 z "
         transform="scale(1.1) rotate(180) translate(1,0)" />
    </marker>
    <inkscape:path-effect
       effect="ruler"
       id="path-effect6638"
       is_visible="true"
       unit="px"
       mark_distance="3.5"
       mark_length="10"
       minor_mark_length="0"
       major_mark_steps="5"
       shift="0"
       offset="0"
       mark_dir="left"
       border_marks="both" />
  </defs>
  <sodipodi:namedview
     id="base"
     pagecolor="#ffffff"
     bordercolor="#666666"
     borderopacity="1.0"
     inkscape:pageopacity="0.0"
     inkscape:pageshadow="2"
     inkscape:zoom="0.24748737"
     inkscape:cx="519.02567"
     inkscape:cy="-5.9964386"
     inkscape:document-units="px"
     inkscape:current-layer="layer4"
     showgrid="false"
     inkscape:snap-page="true"
     showguides="true"
     inkscape:guide-bbox="true"
     inkscape:snap-bbox="false"
     inkscape:bbox-paths="false"
     inkscape:bbox-nodes="false"
     inkscape:snap-bbox-edge-midpoints="false"
     inkscape:snap-bbox-midpoints="false"
     inkscape:snap-nodes="false"
     inkscape:snap-midpoints="true"
     inkscape:window-width="1280"
     inkscape:window-height="976"
     inkscape:window-x="-2"
     inkscape:window-y="-3"
     inkscape:window-maximized="1"
     inkscape:object-paths="true"
     inkscape:snap-object-midpoints="true"
     inkscape:snap-center="true">
    <sodipodi:guide
       orientation="1,0"
       position="382.72155,888.05036"
       id="guide6634" />
    <sodipodi:guide
       orientation="0,1"
       position="382.72155,840"
       id="guide6636" />
  </sodipodi:namedview>
  <metadata
     id="metadata4905">
    <rdf:RDF>
      <cc:Work
         rdf:about="">
        <dc:format>image/svg+xml</dc:format>
        <dc:type
           rdf:resource="http://purl.org/dc/dcmitype/StillImage" />
        <dc:title></dc:title>
      </cc:Work>
    </rdf:RDF>
  </metadata>
  <g
     inkscape:groupmode="layer"
     id="layer5"
     inkscape:label="Слой#1"
     style="display:inline"
     sodipodi:insensitive="true">
    <image
       style="display:inline"
       y="0"
       x="0"
       id="image6700"
       xlink:href="file:///home/specter/Projects/FGgit/yakovlev-40/Panels/Instruments-3d/ark/back.png"
       height="1024"
       width="1024" />
  </g>
  <g
     inkscape:label="Layer 1"
     inkscape:groupmode="layer"
     id="layer1"
     transform="translate(0,-28.362183)"
     style="display:inline"
     sodipodi:insensitive="true">
    <g
       id="g6449"
       transform="translate(2.54,28.362183)">
      <rect
         id="rect6093"
         height="1024"
         width="1024"
         y="0"
         x="0"
         style="fill:none;stroke:#0000ff;stroke-width:1px" />
      <g
         id="g6095"
         style="fill:none;stroke:#000000;stroke-width:1px">
        <polygon
           id="polygon6097"
           points="147.21,954.724 133.99,983.061 880.967,982.157 867.755,953.84 " />
        <polygon
           id="polygon6099"
           points="39.865,193.267 9.515,181.531 20.977,869.674 49.593,856.216 " />
        <polygon
           id="polygon6101"
           points="965.145,855.601 993.703,869.13 1009.288,182.517 976.172,194.639 " />
        <polygon
           id="polygon6103"
           points="49.593,856.216 20.977,869.674 133.99,983.061 147.21,954.724 " />
        <polygon
           id="polygon6105"
           points="880.967,982.157 993.703,869.13 965.145,855.601 867.755,953.84 " />
        <polygon
           id="polygon6107"
           points="31.338,151.847 9.515,181.531 39.865,193.267 59.029,172.835 " />
        <polygon
           id="polygon6109"
           points="124.772,60.84 31.338,151.847 59.029,172.835 137.646,91.907 " />
        <polygon
           id="polygon6111"
           points="976.172,194.639 1009.288,182.517 985.882,151.931 956.824,173.262 " />
        <polygon
           id="polygon6113"
           points="956.824,173.262 985.882,151.931 890.131,60.931 877.367,92.143 " />
        <polygon
           id="polygon6115"
           points="124.772,60.84 137.646,91.907 195.766,88.221 " />
        <polygon
           id="polygon6117"
           points="890.131,60.931 819.149,88.982 877.367,92.143 " />
        <polygon
           id="polygon6119"
           points="819.149,88.982 890.131,60.931 124.772,60.84 195.766,88.221 " />
        <polygon
           id="polygon6121"
           points="137.646,91.907 59.029,172.835 178.45,169.197 " />
        <polygon
           id="polygon6123"
           points="188.062,99.075 137.646,91.907 187.083,103.835 " />
        <polygon
           id="polygon6125"
           points="189.98,94.689 137.646,91.907 188.062,99.075 " />
        <polygon
           id="polygon6127"
           points="192.635,91.011 137.646,91.907 189.98,94.689 " />
        <polygon
           id="polygon6129"
           points="195.766,88.221 137.646,91.907 192.635,91.011 " />
        <polygon
           id="polygon6131"
           points="137.646,91.907 184.881,162.379 187.083,103.835 " />
        <polygon
           id="polygon6133"
           points="137.646,91.907 183.703,165.985 184.881,162.379 " />
        <polygon
           id="polygon6135"
           points="137.646,91.907 181.417,168.297 183.703,165.985 " />
        <polygon
           id="polygon6137"
           points="137.646,91.907 178.45,169.197 181.417,168.297 " />
        <polygon
           id="polygon6139"
           points="877.367,92.143 819.149,88.982 822.301,91.784 " />
        <polygon
           id="polygon6141"
           points="877.367,92.143 822.301,91.784 824.976,95.451 " />
        <polygon
           id="polygon6143"
           points="877.367,92.143 824.976,95.451 826.92,99.811 " />
        <polygon
           id="polygon6145"
           points="877.367,92.143 826.92,99.811 827.927,104.535 " />
        <polygon
           id="polygon6147"
           points="877.367,92.143 827.927,104.535 830.277,162.835 " />
        <polygon
           id="polygon6149"
           points="877.367,92.143 836.414,169.828 956.824,173.262 " />
        <polygon
           id="polygon6151"
           points="877.367,92.143 833.505,168.845 836.414,169.828 " />
        <polygon
           id="polygon6153"
           points="877.367,92.143 831.308,166.464 833.505,168.845 " />
        <polygon
           id="polygon6155"
           points="877.367,92.143 830.277,162.835 831.308,166.464 " />
        <polygon
           id="polygon6157"
           points="153.025,944.797 147.21,954.724 867.755,953.84 861.959,943.908 " />
        <polygon
           id="polygon6159"
           points="47.867,199.938 39.865,193.267 49.593,856.216 59.657,850.295 " />
        <polygon
           id="polygon6161"
           points="955.073,849.617 965.145,855.601 976.172,194.639 966.088,200.921 " />
        <polygon
           id="polygon6163"
           points="59.657,850.295 49.593,856.216 147.21,954.724 153.025,944.797 " />
        <polygon
           id="polygon6165"
           points="861.959,943.908 867.755,953.84 965.145,855.601 955.073,849.617 " />
        <polygon
           id="polygon6167"
           points="64.715,182.848 59.029,172.835 39.865,193.267 47.867,199.938 " />
        <polygon
           id="polygon6169"
           points="966.088,200.921 976.172,194.639 956.824,173.262 950.366,183.303 " />
        <polygon
           id="polygon6171"
           points="181.71,179.533 178.45,169.197 59.029,172.835 64.715,182.848 " />
        <polygon
           id="polygon6173"
           points="197.847,106.214 187.083,103.835 184.881,162.379 196.702,166.54 " />
        <polygon
           id="polygon6175"
           points="196.702,166.54 184.881,162.379 183.703,165.985 193.877,173.109 " />
        <polygon
           id="polygon6177"
           points="193.877,173.109 183.703,165.985 181.417,168.297 188.077,177.496 " />
        <polygon
           id="polygon6179"
           points="202.358,97.36 195.766,88.221 192.635,91.011 200.679,98.9 " />
        <polygon
           id="polygon6181"
           points="200.679,98.9 192.635,91.011 189.98,94.689 199.297,100.903 " />
        <polygon
           id="polygon6183"
           points="199.297,100.903 189.98,94.689 188.062,99.075 198.324,103.377 " />
        <polygon
           id="polygon6185"
           points="198.324,103.377 188.062,99.075 187.083,103.835 197.847,106.214 " />
        <polygon
           id="polygon6187"
           points="188.077,177.496 181.417,168.297 178.45,169.197 181.71,179.533 " />
        <polygon
           id="polygon6189"
           points="832.867,180.099 836.414,169.828 833.505,168.845 826.478,177.764 " />
        <polygon
           id="polygon6191"
           points="817.244,107.193 827.927,104.535 826.92,99.811 816.749,104.426 " />
        <polygon
           id="polygon6193"
           points="816.749,104.426 826.92,99.811 824.976,95.451 815.759,102.042 " />
        <polygon
           id="polygon6195"
           points="815.759,102.042 824.976,95.451 822.301,91.784 814.362,100.154 " />
        <polygon
           id="polygon6197"
           points="814.362,100.154 822.301,91.784 819.149,88.982 812.655,98.763 " />
        <polygon
           id="polygon6199"
           points="826.478,177.764 833.505,168.845 831.308,166.464 820.719,173.029 " />
        <polygon
           id="polygon6201"
           points="820.719,173.029 831.308,166.464 830.277,162.835 818.611,166.796 " />
        <polygon
           id="polygon6203"
           points="818.611,166.796 830.277,162.835 827.927,104.535 817.244,107.193 " />
        <polygon
           id="polygon6205"
           points="950.366,183.303 956.824,173.262 836.414,169.828 832.867,180.099 " />
        <polygon
           id="polygon6207"
           points="812.655,98.763 819.149,88.982 195.766,88.221 202.358,97.36 " />
        <polygon
           id="polygon6209"
           points="826.478,177.764 820.719,173.029 861.959,943.908 " />
        <polygon
           id="polygon6211"
           points="193.877,173.109 188.077,177.496 153.025,944.797 " />
        <polygon
           id="polygon6213"
           points="826.478,177.764 861.959,943.908 955.073,849.617 " />
        <polygon
           id="polygon6215"
           points="826.478,177.764 955.073,849.617 832.867,180.099 " />
        <polygon
           id="polygon6217"
           points="966.088,200.921 950.366,183.303 832.867,180.099 " />
        <polygon
           id="polygon6219"
           points="966.088,200.921 832.867,180.099 955.073,849.617 " />
        <polygon
           id="polygon6221"
           points="188.077,177.496 181.71,179.533 59.657,850.295 " />
        <polygon
           id="polygon6223"
           points="188.077,177.496 59.657,850.295 153.025,944.797 " />
        <polygon
           id="polygon6225"
           points="47.867,199.938 59.657,850.295 181.71,179.533 " />
        <polygon
           id="polygon6227"
           points="47.867,199.938 181.71,179.533 64.715,182.848 " />
        <polygon
           id="polygon6229"
           points="303.314,142.477 202.358,97.36 290.094,158.96 " />
        <polygon
           id="polygon6231"
           points="319.652,128.825 202.358,97.36 303.314,142.477 " />
        <polygon
           id="polygon6233"
           points="338.449,118.627 202.358,97.36 319.652,128.825 " />
        <polygon
           id="polygon6235"
           points="358.865,112.411 202.358,97.36 338.449,118.627 " />
        <polygon
           id="polygon6237"
           points="379.828,110.697 202.358,97.36 358.865,112.411 " />
        <polygon
           id="polygon6239"
           points="812.655,98.763 202.358,97.36 379.828,110.697 " />
        <polygon
           id="polygon6241"
           points="812.655,98.763 379.828,110.697 401.187,111.89 " />
        <polygon
           id="polygon6243"
           points="812.655,98.763 401.187,111.89 421.926,117.693 " />
        <polygon
           id="polygon6245"
           points="812.655,98.763 421.926,117.693 441.092,127.525 " />
        <polygon
           id="polygon6247"
           points="812.655,98.763 441.092,127.525 457.896,140.865 " />
        <polygon
           id="polygon6249"
           points="471.171,246.969 456.45,255.37 861.959,943.908 " />
        <polygon
           id="polygon6251"
           points="812.655,98.763 457.896,140.865 471.677,157.14 " />
        <polygon
           id="polygon6253"
           points="482.269,236.833 471.171,246.969 861.959,943.908 " />
        <polygon
           id="polygon6255"
           points="812.655,98.763 471.677,157.14 481.891,175.705 " />
        <polygon
           id="polygon6257"
           points="812.655,98.763 481.891,175.705 488.093,195.886 " />
        <polygon
           id="polygon6259"
           points="199.297,100.903 202.358,97.36 200.679,98.9 " />
        <polygon
           id="polygon6261"
           points="153.025,944.797 283.033,239.01 193.877,173.109 " />
        <polygon
           id="polygon6263"
           points="277.199,229.451 193.877,173.109 283.033,239.01 " />
        <polygon
           id="polygon6265"
           points="294.184,248.591 283.033,239.01 153.025,944.797 " />
        <polygon
           id="polygon6267"
           points="274.677,219.854 193.877,173.109 277.199,229.451 " />
        <polygon
           id="polygon6269"
           points="196.702,166.54 202.358,97.36 197.847,106.214 " />
        <polygon
           id="polygon6271"
           points="817.244,107.193 816.749,104.426 812.655,98.763 " />
        <polygon
           id="polygon6273"
           points="817.244,107.193 812.655,98.763 818.611,166.796 " />
        <polygon
           id="polygon6275"
           points="198.324,103.377 197.847,106.214 202.358,97.36 " />
        <polygon
           id="polygon6277"
           points="198.324,103.377 202.358,97.36 199.297,100.903 " />
        <polygon
           id="polygon6279"
           points="815.759,102.042 814.362,100.154 812.655,98.763 " />
        <polygon
           id="polygon6281"
           points="815.759,102.042 812.655,98.763 816.749,104.426 " />
        <polygon
           id="polygon6283"
           points="308.892,256.358 294.184,248.591 153.025,944.797 " />
        <polygon
           id="polygon6285"
           points="820.719,173.029 482.269,236.833 861.959,943.908 " />
        <polygon
           id="polygon6287"
           points="193.877,173.109 274.677,219.854 275.358,198.424 " />
        <polygon
           id="polygon6289"
           points="193.877,173.109 275.358,198.424 196.702,166.54 " />
        <polygon
           id="polygon6291"
           points="280.715,177.937 196.702,166.54 275.358,198.424 " />
        <polygon
           id="polygon6293"
           points="456.45,255.37 308.892,256.358 153.025,944.797 " />
        <polygon
           id="polygon6295"
           points="456.45,255.37 153.025,944.797 861.959,943.908 " />
        <polygon
           id="polygon6297"
           points="820.719,173.029 487.63,227.019 482.269,236.833 " />
        <polygon
           id="polygon6299"
           points="290.094,158.96 202.358,97.36 196.702,166.54 " />
        <polygon
           id="polygon6301"
           points="290.094,158.96 196.702,166.54 280.715,177.937 " />
        <polygon
           id="polygon6303"
           points="488.093,195.886 489.689,217.302 818.611,166.796 " />
        <polygon
           id="polygon6305"
           points="488.093,195.886 818.611,166.796 812.655,98.763 " />
        <polygon
           id="polygon6307"
           points="489.689,217.302 487.63,227.019 820.719,173.029 " />
        <polygon
           id="polygon6309"
           points="489.689,217.302 820.719,173.029 818.611,166.796 " />
        <polygon
           id="polygon6311"
           points="457.954,166.537 471.677,157.14 457.896,140.865 446.209,152.861 " />
        <polygon
           id="polygon6313"
           points="466.703,182.044 481.891,175.705 471.677,157.14 457.954,166.537 " />
        <polygon
           id="polygon6315"
           points="472.095,198.66 488.093,195.886 481.891,175.705 466.703,182.044 " />
        <polygon
           id="polygon6317"
           points="473.693,215.388 489.689,217.302 488.093,195.886 472.095,198.66 " />
        <polygon
           id="polygon6319"
           points="472.285,221.066 487.63,227.019 489.689,217.302 473.693,215.388 " />
        <polygon
           id="polygon6321"
           points="468.229,227.236 482.269,236.833 487.63,227.019 472.285,221.066 " />
        <polygon
           id="polygon6323"
           points="460.602,233.989 471.171,246.969 482.269,236.833 468.229,227.236 " />
        <polygon
           id="polygon6325"
           points="449.726,240.49 456.45,255.37 471.171,246.969 460.602,233.989 " />
        <polygon
           id="polygon6327"
           points="304.125,235.661 294.184,248.591 308.892,256.358 314.891,241.962 " />
        <polygon
           id="polygon6329"
           points="296.437,229.101 283.033,239.01 294.184,248.591 304.125,235.661 " />
        <polygon
           id="polygon6331"
           points="292.179,223.02 277.199,229.451 283.033,239.01 296.437,229.101 " />
        <polygon
           id="polygon6333"
           points="290.516,217.367 274.677,219.854 277.199,229.451 292.179,223.02 " />
        <polygon
           id="polygon6335"
           points="291.408,200.573 275.358,198.424 274.677,219.854 290.516,217.367 " />
        <polygon
           id="polygon6337"
           points="296.087,183.748 280.715,177.937 275.358,198.424 291.408,200.573 " />
        <polygon
           id="polygon6339"
           points="304.139,167.981 290.094,158.96 280.715,177.937 296.087,183.748 " />
        <polygon
           id="polygon6341"
           points="315.317,154.095 303.314,142.477 290.094,158.96 304.139,167.981 " />
        <polygon
           id="polygon6343"
           points="329.159,142.584 319.652,128.825 303.314,142.477 315.317,154.095 " />
        <polygon
           id="polygon6345"
           points="345.094,133.874 338.449,118.627 319.652,128.825 329.159,142.584 " />
        <polygon
           id="polygon6347"
           points="362.433,128.205 358.865,112.411 338.449,118.627 345.094,133.874 " />
        <polygon
           id="polygon6349"
           points="380.341,125.472 379.828,110.697 358.865,112.411 362.433,128.205 " />
        <polygon
           id="polygon6351"
           points="398.169,127.808 401.187,111.89 379.828,110.697 380.341,125.472 " />
        <polygon
           id="polygon6353"
           points="415.675,133.156 421.926,117.693 401.187,111.89 398.169,127.808 " />
        <polygon
           id="polygon6355"
           points="431.925,141.59 441.092,127.525 421.926,117.693 415.675,133.156 " />
        <polygon
           id="polygon6357"
           points="446.209,152.861 457.896,140.865 441.092,127.525 431.925,141.59 " />
        <polygon
           id="polygon6359"
           points="314.891,241.962 308.892,256.358 456.45,255.37 449.726,240.49 " />
        <polygon
           id="polygon6361"
           points="315.317,154.095 304.139,167.981 314.891,241.962 " />
        <polygon
           id="polygon6363"
           points="398.169,127.808 380.341,125.472 449.726,240.49 " />
        <polygon
           id="polygon6365"
           points="415.675,133.156 398.169,127.808 449.726,240.49 " />
        <polygon
           id="polygon6367"
           points="431.925,141.59 415.675,133.156 449.726,240.49 " />
        <polygon
           id="polygon6369"
           points="446.209,152.861 431.925,141.59 449.726,240.49 " />
        <polygon
           id="polygon6371"
           points="290.516,217.367 292.179,223.02 296.437,229.101 " />
        <polygon
           id="polygon6373"
           points="296.087,183.748 314.891,241.962 304.139,167.981 " />
        <polygon
           id="polygon6375"
           points="314.891,241.962 329.159,142.584 315.317,154.095 " />
        <polygon
           id="polygon6377"
           points="449.726,240.49 457.954,166.537 446.209,152.861 " />
        <polygon
           id="polygon6379"
           points="290.516,217.367 296.437,229.101 304.125,235.661 " />
        <polygon
           id="polygon6381"
           points="290.516,217.367 304.125,235.661 291.408,200.573 " />
        <polygon
           id="polygon6383"
           points="291.408,200.573 304.125,235.661 314.891,241.962 " />
        <polygon
           id="polygon6385"
           points="291.408,200.573 314.891,241.962 296.087,183.748 " />
        <polygon
           id="polygon6387"
           points="345.094,133.874 329.159,142.584 314.891,241.962 " />
        <polygon
           id="polygon6389"
           points="449.726,240.49 466.703,182.044 457.954,166.537 " />
        <polygon
           id="polygon6391"
           points="473.693,215.388 468.229,227.236 472.285,221.066 " />
        <polygon
           id="polygon6393"
           points="362.433,128.205 345.094,133.874 314.891,241.962 " />
        <polygon
           id="polygon6395"
           points="449.726,240.49 460.602,233.989 472.095,198.66 " />
        <polygon
           id="polygon6397"
           points="449.726,240.49 472.095,198.66 466.703,182.044 " />
        <polygon
           id="polygon6399"
           points="460.602,233.989 468.229,227.236 473.693,215.388 " />
        <polygon
           id="polygon6401"
           points="460.602,233.989 473.693,215.388 472.095,198.66 " />
        <polygon
           id="polygon6403"
           points="380.341,125.472 362.433,128.205 314.891,241.962 " />
        <polygon
           id="polygon6405"
           points="380.341,125.472 314.891,241.962 449.726,240.49 " />
        <polygon
           id="polygon6407"
           points="1005.499,57.476 985.882,151.931 1009.288,182.517 " />
        <polygon
           id="polygon6409"
           points="1005.499,57.476 890.131,60.931 985.882,151.931 " />
        <polygon
           id="polygon6411"
           points="10.872,59.05 31.338,151.847 124.772,60.84 " />
        <polygon
           id="polygon6413"
           points="10.872,59.05 9.515,181.531 31.338,151.847 " />
        <polygon
           id="polygon6415"
           points="990.613,982.622 993.703,869.13 880.967,982.157 " />
        <polygon
           id="polygon6417"
           points="24.033,983.488 133.99,983.061 20.977,869.674 " />
        <polygon
           id="polygon6419"
           points="996.459,988.651 990.613,982.622 880.967,982.157 881.295,993.684 " />
        <polygon
           id="polygon6421"
           points="881.295,993.684 880.967,982.157 133.99,983.061 133.672,994.605 " />
        <polygon
           id="polygon6423"
           points="133.672,994.605 133.99,983.061 24.033,983.488 18.168,989.532 " />
        <polygon
           id="polygon6425"
           points="890.315,48.927 890.131,60.931 1005.499,57.476 1011.788,51.146 " />
        <polygon
           id="polygon6427"
           points="124.499,48.927 124.772,60.84 890.131,60.931 890.315,48.927 " />
        <polygon
           id="polygon6429"
           points="4.631,52.911 10.872,59.05 124.772,60.84 124.499,48.927 " />
        <polygon
           id="polygon6431"
           points="18.168,989.532 24.033,983.488 20.977,869.674 9.382,870.27 " />
        <polygon
           id="polygon6433"
           points="9.382,870.27 20.977,869.674 9.515,181.531 -2.54,181.179 " />
        <polygon
           id="polygon6435"
           points="-2.54,181.179 9.515,181.531 10.872,59.05 4.631,52.911 " />
        <polygon
           id="polygon6437"
           points="1011.788,51.146 1005.499,57.476 1009.288,182.517 1021.46,182.06 " />
        <polygon
           id="polygon6439"
           points="1021.46,182.06 1009.288,182.517 993.703,869.13 1005.269,869.76 " />
        <polygon
           id="polygon6441"
           points="1005.269,869.76 993.703,869.13 990.613,982.622 996.459,988.651 " />
      </g>
    </g>
  </g>
  <g
     inkscape:groupmode="layer"
     id="layer2"
     inkscape:label="Слой#2"
     sodipodi:insensitive="true" />
  <g
     inkscape:groupmode="layer"
     id="layer4"
     inkscape:label="Слой"
     style="display:inline">
    <path
       transform="matrix(0.84510884,0,0,1.1683381,56.782975,-44.681992)"
       style="fill:none;stroke:#000000;stroke-width:2.398;stroke-linecap:square;stroke-linejoin:miter;stroke-miterlimit:4;stroke-opacity:1"
       d="m 327.40875,191.43918 c 9.11738,-5.4439 30.4195,-16.26621 68.73406,-13.5704 30.2882,2.13107 42.6445,11.82619 48.52401,14.40274 m -117.40009,-0.83095 -5.54848,-8.31951 m 21.30414,0.81273 -3.24222,-9.45981 m 20.18993,5.16866 -1.73692,-9.848 m 19.11694,7.89797 -0.51789,-9.98658 m 18.00828,10.07674 0.61733,-9.98092 m 16.74244,12.10263 1.84134,-9.82901 m 15.04839,14.33811 3.39448,-9.40625 m 12.18233,17.26419 5.81243,-8.1373"
       id="path6629"
       inkscape:connector-curvature="0"
       sodipodi:nodetypes="csccccccccccccccccc"
       inkscape:export-xdpi="200"
       inkscape:export-ydpi="200" />
    <path
       sodipodi:type="arc"
       style="fill:none;stroke:#000000;stroke-width:3.098;stroke-linecap:square;stroke-linejoin:miter;stroke-miterlimit:1.89999998;stroke-opacity:1;stroke-dasharray:none;marker-end:url(#Arrow2Mend);fill-opacity:1"
       id="path6705"
       sodipodi:cx="207.14285"
       sodipodi:cy="582.57141"
       sodipodi:rx="88.571426"
       sodipodi:ry="88.571426"
       d="M 251.08659,659.47294 A 88.571426,88.571426 0 0 1 157.2521,655.75481"
       transform="translate(165.5787,142.85714)"
       sodipodi:start="1.0516502"
       sodipodi:end="2.1691497"
       sodipodi:open="true"
       inkscape:export-xdpi="200"
       inkscape:export-ydpi="200" />
    <path
       id="path3183"
       transform="matrix(1,0,0,1.1086524,0,-56.227387)"
       style="fill:none;stroke:#000000;stroke-width:3.09800005;stroke-linecap:square;stroke-linejoin:miter;stroke-miterlimit:1.89999998;stroke-opacity:1"
       d="m 505.67171,233.95787 c 0,-34.8711 43.99221,-63.13972 98.25935,-63.13972 54.26715,0 98.08893,25.49857 98.08893,60.36967 m 0,0 97.66955,-0.45558 0,76.78983 -246.83242,-0.0373 c -26.43077,0 -48.54504,-21.39488 -47.85715,-47.77049 l 0.67174,-25.75642"
       inkscape:connector-curvature="0"
       sodipodi:nodetypes="cscccccsc"
       inkscape:export-xdpi="400"
       inkscape:export-ydpi="400" />
    <path
       transform="matrix(1.1566383,0,0,1.1566383,-34.870565,-91.545523)"
       style="fill:none;stroke:#000000;stroke-width:3.09800005;stroke-linecap:square;stroke-linejoin:miter;stroke-miterlimit:1.89999998;stroke-opacity:1"
       d="m 108.08632,729.54053 c 0,36.54191 29.62308,66.16499 66.16499,66.16499 36.54192,0 66.165,-29.62308 66.165,-66.16499 m 0,0 0,-88.1866 -66.165,0 0,-10.37489 -66.16499,0 0,98.56149"
       id="path3190"
       inkscape:connector-curvature="0"
       sodipodi:nodetypes="csccccccc"
       inkscape:export-xdpi="199.84712"
       inkscape:export-ydpi="199.84712" />
  </g>
</svg>
