<?xml version="1.0"?>
<!DOCTYPE svg PUBLIC "-//W3C//DTD SVG 1.1//EN" "http://www.w3.org/Graphics/SVG/1.1/DTD/svg11.dtd">
<svg width="512px" height="512px" viewBox="0 0 512 512" xmlns="http://www.w3.org/2000/svg" version="1.1">
<desc>UV-Map from Object: cover.004. Exported from Blender3D with UV Exportscript</desc>
<rect x="0" y="0" width="512" height="512" fill="none" stroke="blue" stroke-width="1px" />
<g style="fill:none; stroke:black; stroke-width:1px;">
<polygon points="275.501,83.456 276.262,87.396 287.902,86.584 284.731,83.000 " />
<polygon points="31.921,80.494 29.007,84.848 41.239,84.678 41.973,80.598 " />
<polygon points="38.743,128.692 35.746,122.873 18.579,121.941 19.617,137.391 " />
<polygon points="432.385,137.373 433.422,121.922 416.255,122.856 416.254,137.374 " />
<polygon points="416.249,479.830 416.249,494.348 433.415,495.284 432.379,479.833 " />
<polygon points="19.637,479.821 18.600,495.268 35.764,494.334 38.761,486.027 " />
<polygon points="40.904,53.017 40.144,48.988 28.045,48.924 30.964,53.205 " />
<polygon points="280.958,48.586 284.064,45.016 272.546,44.311 271.826,48.214 " />
<polygon points="302.502,52.410 301.765,48.130 291.825,46.232 294.403,50.427 " />
<polygon points="298.309,81.023 295.739,85.288 305.772,83.283 306.480,78.949 " />
<polygon points="16.376,81.534 6.920,83.483 9.587,87.397 20.602,85.322 " />
<polygon points="15.582,52.308 19.729,48.527 8.818,46.568 6.214,50.461 " />
<polygon points="35.741,105.222 18.574,113.099 18.579,121.941 35.746,122.873 " />
<polygon points="416.255,122.856 433.422,121.922 433.425,113.077 416.254,105.203 " />
<polygon points="35.764,494.334 18.600,495.268 18.595,504.109 35.760,511.983 " />
<polygon points="433.415,495.284 416.249,494.348 416.247,512.000 433.418,504.128 " />
<polygon points="432.379,479.833 433.415,495.284 443.241,495.288 451.991,479.836 " />
<polygon points="433.422,121.922 432.385,137.373 451.996,137.370 443.248,121.918 " />
<polygon points="284.064,45.016 280.958,48.586 294.403,50.427 291.825,46.232 " />
<polygon points="284.731,83.000 287.902,86.584 295.739,85.288 298.309,81.023 " />
<polygon points="29.007,84.848 31.921,80.494 16.376,81.534 20.602,85.322 " />
<polygon points="18.600,495.268 19.637,479.821 0.029,479.826 8.779,495.272 " />
<polygon points="19.617,137.391 18.579,121.941 8.756,121.938 0.006,137.388 " />
<polygon points="30.964,53.205 28.045,48.924 19.729,48.527 15.582,52.308 " />
<polygon points="31.921,80.494 41.973,80.598 38.765,72.043 28.264,72.263 " />
<polygon points="279.685,74.466 269.495,74.759 275.501,83.456 284.731,83.000 " />
<polygon points="40.904,53.017 30.964,53.205 27.417,61.376 37.804,61.505 " />
<polygon points="280.958,48.586 271.826,48.214 265.961,56.866 276.041,57.069 " />
<polygon points="302.502,52.410 294.403,50.427 290.201,58.988 298.482,61.505 " />
<polygon points="2.486,-0.062 2.486,5.846 275.596,5.850 275.596,-0.058 " />
<polygon points="298.309,81.023 306.480,78.949 302.338,69.787 293.987,72.404 " />
<polygon points="15.582,52.308 6.214,50.461 2.146,58.556 11.686,60.249 " />
<polygon points="6.920,83.483 16.376,81.534 12.368,73.539 2.737,75.333 " />
<polygon points="433.425,113.077 433.422,121.922 443.248,121.918 " />
<polygon points="433.415,495.284 433.418,504.128 443.241,495.288 " />
<polygon points="18.579,121.941 18.574,113.099 8.756,121.938 " />
<polygon points="18.595,504.109 18.600,495.268 8.779,495.272 " />
<polygon points="432.379,479.833 451.991,479.836 451.996,137.370 432.385,137.373 " />
<polygon points="280.958,48.586 276.041,57.069 290.201,58.988 294.403,50.427 " />
<polygon points="284.731,83.000 298.309,81.023 293.987,72.404 279.685,74.466 " />
<polygon points="16.376,81.534 31.921,80.494 28.264,72.263 12.368,73.539 " />
<polygon points="15.582,52.308 11.686,60.249 27.417,61.376 30.964,53.205 " />
<polygon points="38.765,72.043 41.973,80.598 275.501,83.456 269.495,74.759 " />
<polygon points="40.904,53.017 37.804,61.505 265.961,56.866 271.826,48.214 " />
<polygon points="2.486,5.846 4.564,20.147 273.517,20.152 275.596,5.850 " />
<polygon points="276.630,32.864 274.547,21.268 4.935,21.268 2.852,32.864 " />
<polygon points="38.743,128.692 19.617,137.391 27.168,137.577 " />
<polygon points="27.168,137.577 19.617,137.391 18.283,149.153 " />
<polygon points="18.283,149.153 19.617,137.391 0.006,137.388 " />
<polygon points="18.283,149.153 0.006,137.388 12.703,162.635 " />
<polygon points="12.703,162.635 0.006,137.388 10.800,177.102 " />
<polygon points="139.738,38.787 276.630,32.864 2.852,32.864 " />
<polygon points="2.852,38.787 139.738,38.787 2.852,32.864 " />
<polygon points="139.738,38.787 276.630,38.787 276.630,32.864 " />
<polygon points="14.448,308.919 0.000,308.617 0.029,479.826 10.816,437.626 " />
<polygon points="10.800,177.102 0.006,137.388 0.000,308.617 14.448,308.919 " />
<polygon points="52.222,123.106 35.746,122.873 38.743,128.692 " />
<polygon points="52.222,123.106 35.741,105.222 35.746,122.873 " />
<polygon points="66.689,121.202 35.741,105.222 52.222,123.106 " />
<polygon points="158.693,86.259 275.501,83.456 41.973,80.598 " />
<polygon points="41.239,84.678 158.693,86.259 41.973,80.598 " />
<polygon points="158.693,86.259 276.262,87.396 275.501,83.456 " />
<polygon points="127.371,121.514 225.992,105.211 35.741,105.222 " />
<polygon points="66.689,121.202 127.371,121.514 35.741,105.222 " />
<polygon points="127.371,121.514 188.053,121.828 225.992,105.211 " />
<polygon points="81.155,123.108 127.371,121.514 66.689,121.202 " />
<polygon points="94.637,128.692 127.371,121.514 81.155,123.108 " />
<polygon points="106.214,137.577 127.371,121.514 94.637,128.692 " />
<polygon points="115.099,149.155 127.371,121.514 106.214,137.577 " />
<polygon points="120.682,162.636 127.371,121.514 115.099,149.155 " />
<polygon points="122.587,177.104 127.371,121.514 120.682,162.636 " />
<polygon points="188.053,121.828 127.371,121.514 173.862,123.695 " />
<polygon points="173.862,123.695 127.371,121.514 160.638,129.171 " />
<polygon points="160.638,129.171 127.371,121.514 149.282,137.885 " />
<polygon points="149.282,137.885 127.371,121.514 140.568,149.240 " />
<polygon points="140.568,149.240 127.371,121.514 135.091,162.464 " />
<polygon points="135.091,162.464 127.371,121.514 133.222,176.654 " />
<polygon points="122.587,177.104 133.222,176.654 127.371,121.514 " />
<polygon points="329.039,188.271 416.254,137.374 322.351,179.556 " />
<polygon points="202.243,123.689 225.992,105.211 188.053,121.828 " />
<polygon points="215.467,129.161 225.992,105.211 202.243,123.689 " />
<polygon points="226.823,137.872 225.992,105.211 215.467,129.161 " />
<polygon points="235.540,149.225 225.992,105.211 226.823,137.872 " />
<polygon points="235.540,149.225 416.254,105.203 225.992,105.211 " />
<polygon points="241.018,162.449 416.254,105.203 235.540,149.225 " />
<polygon points="242.887,176.640 416.254,105.203 241.018,162.449 " />
<polygon points="303.487,168.667 416.254,105.203 292.595,167.234 " />
<polygon points="313.636,172.869 416.254,105.203 303.487,168.667 " />
<polygon points="322.351,179.556 416.254,105.203 313.636,172.869 " />
<polygon points="322.351,179.556 416.255,122.856 416.254,105.203 " />
<polygon points="322.351,179.556 416.254,137.374 416.255,122.856 " />
<polygon points="292.595,167.234 416.254,105.203 281.705,168.669 " />
<polygon points="242.887,176.640 271.555,172.873 281.705,168.669 " />
<polygon points="242.887,176.640 281.705,168.669 416.254,105.203 " />
<polygon points="242.887,176.640 262.840,179.561 271.555,172.873 " />
<polygon points="333.242,198.420 416.254,137.374 329.039,188.271 " />
<polygon points="334.675,209.311 416.254,137.374 333.242,198.420 " />
<polygon points="156.282,46.430 40.904,53.017 271.826,48.214 " />
<polygon points="272.546,44.311 156.282,46.430 271.826,48.214 " />
<polygon points="156.282,46.430 40.144,48.988 40.904,53.017 " />
<polygon points="416.250,308.603 432.379,479.833 432.385,137.373 " />
<polygon points="416.254,137.374 416.250,308.603 432.385,137.373 " />
<polygon points="416.250,308.603 416.249,479.830 432.379,479.833 " />
<polygon points="334.675,209.311 334.674,309.102 416.250,308.603 416.254,137.374 " />
<polygon points="334.673,401.930 416.249,479.830 416.250,308.603 334.674,309.102 " />
<polygon points="334.674,309.102 334.675,209.311 333.241,220.202 333.240,298.209 " />
<polygon points="333.240,298.209 333.241,220.202 329.037,230.351 329.037,288.061 " />
<polygon points="329.037,288.061 329.037,230.351 322.349,239.066 322.350,279.347 " />
<polygon points="322.350,279.347 322.349,239.066 313.634,245.754 313.635,272.659 " />
<polygon points="313.635,272.659 313.634,245.754 303.486,249.958 303.487,268.457 " />
<polygon points="303.487,268.457 303.486,249.958 292.595,251.393 292.596,267.024 " />
<polygon points="292.596,267.024 292.595,251.393 281.703,249.960 281.705,268.459 " />
<polygon points="281.705,268.459 281.703,249.960 271.555,245.758 271.556,272.664 " />
<polygon points="271.556,272.664 271.555,245.758 262.840,239.070 262.841,279.353 " />
<polygon points="262.841,279.353 262.840,239.070 256.152,230.356 256.154,288.068 " />
<polygon points="256.154,288.068 256.152,230.356 251.948,220.207 251.951,298.217 " />
<polygon points="334.673,401.930 334.674,309.102 333.240,319.993 333.239,391.038 " />
<polygon points="333.239,391.038 333.240,319.993 329.037,330.142 329.036,380.889 " />
<polygon points="329.036,380.889 329.037,330.142 322.349,338.857 322.349,372.174 " />
<polygon points="322.349,372.174 322.349,338.857 313.635,345.544 313.634,365.486 " />
<polygon points="313.634,365.486 313.635,345.544 303.487,349.747 303.486,361.283 " />
<polygon points="303.486,361.283 303.487,349.747 292.597,351.180 292.597,359.848 " />
<polygon points="292.597,359.848 292.597,351.180 281.707,349.747 281.709,361.283 " />
<polygon points="281.709,361.283 281.707,349.747 271.558,345.546 271.563,365.488 " />
<polygon points="271.563,365.488 271.558,345.546 262.842,338.861 262.852,372.177 " />
<polygon points="262.852,372.177 262.842,338.861 256.152,330.149 256.161,380.893 " />
<polygon points="256.161,380.893 256.152,330.149 251.950,320.000 251.947,391.041 " />
<polygon points="238.505,321.840 251.950,320.000 250.517,309.109 240.285,308.323 " />
<polygon points="240.285,308.323 250.517,309.109 251.951,298.217 238.505,294.805 " />
<polygon points="242.887,176.640 256.152,188.276 262.840,179.561 " />
<polygon points="242.887,176.640 251.948,198.425 256.152,188.276 " />
<polygon points="241.018,190.832 251.948,198.425 242.887,176.640 " />
<polygon points="235.541,204.057 250.514,209.316 251.948,198.425 241.018,190.832 " />
<polygon points="235.541,204.057 226.826,215.413 251.948,220.207 250.514,209.316 " />
<polygon points="238.505,294.805 251.951,298.217 251.948,220.207 226.826,215.413 " />
<polygon points="238.505,294.805 226.826,215.413 215.470,224.129 233.288,282.209 " />
<polygon points="233.288,282.209 215.470,224.129 224.987,271.393 " />
<polygon points="224.987,271.393 215.470,224.129 202.246,229.606 214.170,263.092 " />
<polygon points="214.170,263.092 202.246,229.606 188.055,231.476 201.574,257.876 " />
<polygon points="201.574,257.876 188.055,231.476 188.056,256.097 " />
<polygon points="188.056,256.097 188.055,231.476 173.863,229.609 174.539,257.877 " />
<polygon points="174.539,257.877 173.863,229.609 160.639,224.134 161.944,263.095 " />
<polygon points="161.944,263.095 160.639,224.134 149.284,215.421 151.129,271.395 " />
<polygon points="151.129,271.395 149.284,215.421 140.569,204.067 142.830,282.211 " />
<polygon points="120.683,191.572 135.092,190.844 133.222,176.654 122.587,177.104 " />
<polygon points="115.101,205.053 140.569,204.067 135.092,190.844 120.683,191.572 " />
<polygon points="117.087,295.402 137.614,294.807 142.830,282.211 111.872,282.812 " />
<polygon points="118.867,308.913 135.836,308.323 137.614,294.807 117.087,295.402 " />
<polygon points="117.089,322.424 137.616,321.840 135.836,308.323 118.867,308.913 " />
<polygon points="111.872,282.812 142.830,282.211 140.569,204.067 115.101,205.053 " />
<polygon points="111.872,282.812 115.101,205.053 106.219,216.630 103.574,272.002 " />
<polygon points="103.574,272.002 106.219,216.630 94.643,225.515 92.762,263.705 " />
<polygon points="92.762,263.705 94.643,225.515 81.163,231.098 80.171,258.492 " />
<polygon points="80.171,258.492 81.163,231.098 66.696,233.004 66.660,256.713 " />
<polygon points="66.660,256.713 66.696,233.004 52.229,231.098 53.148,258.492 " />
<polygon points="53.148,258.492 52.229,231.098 38.746,225.514 40.557,263.706 " />
<polygon points="40.557,263.706 38.746,225.514 27.170,216.630 29.745,272.003 " />
<polygon points="29.745,272.003 27.170,216.630 18.286,205.053 21.443,282.814 " />
<polygon points="21.443,282.814 18.286,205.053 12.704,191.571 16.228,295.404 " />
<polygon points="16.228,295.404 12.704,191.571 10.800,177.102 14.448,308.919 " />
<polygon points="251.947,391.041 226.827,397.643 235.540,408.999 250.513,401.931 " />
<polygon points="250.513,401.931 235.540,408.999 241.017,422.222 251.947,412.821 " />
<polygon points="251.947,412.821 241.017,422.222 242.886,436.413 256.150,422.969 " />
<polygon points="256.150,422.969 242.886,436.413 262.838,431.683 " />
<polygon points="238.505,321.840 226.827,397.643 251.947,391.041 251.950,320.000 " />
<polygon points="233.288,334.435 226.827,397.643 238.505,321.840 " />
<polygon points="233.288,334.435 224.988,345.250 226.827,397.643 " />
<polygon points="224.988,345.250 214.172,353.549 215.473,388.929 226.827,397.643 " />
<polygon points="201.576,358.765 202.250,383.452 215.473,388.929 214.172,353.549 " />
<polygon points="188.060,360.545 188.060,381.584 202.250,383.452 201.576,358.765 " />
<polygon points="174.544,358.765 173.870,383.452 188.060,381.584 188.060,360.545 " />
<polygon points="161.948,353.549 160.647,388.929 173.870,383.452 174.544,358.765 " />
<polygon points="151.133,345.250 149.293,397.642 160.647,388.929 161.948,353.549 " />
<polygon points="142.832,334.435 140.580,408.997 149.293,397.642 151.133,345.250 " />
<polygon points="111.875,335.014 142.832,334.435 137.616,321.840 117.089,322.424 " />
<polygon points="120.695,423.157 135.104,422.220 140.580,408.997 115.112,409.676 " />
<polygon points="122.599,437.623 133.235,436.410 135.104,422.220 120.695,423.157 " />
<polygon points="120.695,452.090 135.103,450.600 133.235,436.410 122.599,437.623 " />
<polygon points="115.112,465.569 140.578,463.823 135.103,450.600 120.695,452.090 " />
<polygon points="115.112,465.569 106.228,477.144 149.291,475.178 140.578,463.823 " />
<polygon points="111.875,335.014 115.112,409.676 140.580,408.997 142.832,334.435 " />
<polygon points="111.875,335.014 103.579,345.825 106.228,398.101 115.112,409.676 " />
<polygon points="103.579,345.825 94.652,389.217 106.228,398.101 " />
<polygon points="103.579,345.825 92.768,354.122 94.652,389.217 " />
<polygon points="80.178,359.337 81.171,383.635 94.652,389.217 92.768,354.122 " />
<polygon points="66.667,361.116 66.704,381.730 81.171,383.635 80.178,359.337 " />
<polygon points="53.155,359.338 52.238,383.636 66.704,381.730 66.667,361.116 " />
<polygon points="40.564,354.125 38.758,389.221 52.238,383.636 53.155,359.338 " />
<polygon points="29.752,345.829 27.181,398.106 38.758,389.221 40.564,354.125 " />
<polygon points="21.452,335.019 18.298,409.682 27.181,398.106 29.752,345.829 " />
<polygon points="16.234,322.430 12.717,423.164 18.298,409.682 21.452,335.019 " />
<polygon points="14.448,308.919 10.816,437.626 12.717,423.164 16.234,322.430 " />
<polygon points="0.029,479.826 12.721,452.092 10.816,437.626 " />
<polygon points="0.029,479.826 18.302,465.572 12.721,452.092 " />
<polygon points="19.637,479.821 18.302,465.572 0.029,479.826 " />
<polygon points="19.637,479.821 27.187,477.145 18.302,465.572 " />
<polygon points="19.637,479.821 38.761,486.027 27.187,477.145 " />
<polygon points="35.764,494.334 52.239,491.613 38.761,486.027 " />
<polygon points="35.760,511.983 52.239,491.613 35.764,494.334 " />
<polygon points="35.760,511.983 66.705,493.517 52.239,491.613 " />
<polygon points="106.228,477.144 94.652,486.030 160.644,483.892 149.291,475.178 " />
<polygon points="81.172,491.613 173.867,489.368 160.644,483.892 94.652,486.030 " />
<polygon points="35.760,511.983 225.991,511.990 66.705,493.517 " />
<polygon points="66.705,493.517 225.991,511.990 81.172,491.613 " />
<polygon points="81.172,491.613 225.991,511.990 173.867,489.368 " />
<polygon points="173.867,489.368 225.991,511.990 188.055,491.236 " />
<polygon points="188.055,491.236 225.991,511.990 202.244,489.369 " />
<polygon points="202.244,489.369 225.991,511.990 215.467,483.894 " />
<polygon points="226.822,475.181 215.467,483.894 225.991,511.990 " />
<polygon points="235.539,463.828 226.822,475.181 225.991,511.990 " />
<polygon points="262.838,431.683 242.886,436.413 241.017,450.604 271.552,438.372 " />
<polygon points="271.552,438.372 241.017,450.604 235.539,463.828 281.701,442.576 " />
<polygon points="281.701,442.576 235.539,463.828 225.991,511.990 " />
<polygon points="281.701,442.576 225.991,511.990 416.247,512.000 " />
<polygon points="281.701,442.576 416.247,512.000 292.592,444.010 " />
<polygon points="292.592,444.010 416.247,512.000 303.483,442.577 " />
<polygon points="303.483,442.577 416.247,512.000 313.632,438.374 " />
<polygon points="322.347,431.687 313.632,438.374 416.247,512.000 " />
<polygon points="322.347,431.687 416.247,512.000 416.249,494.348 " />
<polygon points="322.347,431.687 416.249,494.348 416.249,479.830 " />
<polygon points="329.035,422.971 322.347,431.687 416.249,479.830 " />
<polygon points="329.035,422.971 416.249,479.830 333.238,412.822 " />
<polygon points="333.238,412.822 416.249,479.830 334.673,401.930 " />
</g>
</svg>