<?xml version="1.0" encoding="UTF-8" standalone="no"?>
<svg
   xmlns:dc="http://purl.org/dc/elements/1.1/"
   xmlns:cc="http://creativecommons.org/ns#"
   xmlns:rdf="http://www.w3.org/1999/02/22-rdf-syntax-ns#"
   xmlns:svg="http://www.w3.org/2000/svg"
   xmlns="http://www.w3.org/2000/svg"
   xmlns:sodipodi="http://sodipodi.sourceforge.net/DTD/sodipodi-0.dtd"
   xmlns:inkscape="http://www.inkscape.org/namespaces/inkscape"
   width="1024px"
   height="1024px"
   viewBox="0 0 1024 1024"
   version="1.1"
   id="svg4437"
   sodipodi:version="0.32"
   inkscape:version="0.46"
   sodipodi:docname="agb_Circle.svg"
   inkscape:output_extension="org.inkscape.output.svg.inkscape">
  <metadata
     id="metadata5494">
    <rdf:RDF>
      <cc:Work
         rdf:about="">
        <dc:format>image/svg+xml</dc:format>
        <dc:type
           rdf:resource="http://purl.org/dc/dcmitype/StillImage" />
      </cc:Work>
    </rdf:RDF>
  </metadata>
  <defs
     id="defs5492">
    <inkscape:perspective
       sodipodi:type="inkscape:persp3d"
       inkscape:vp_x="0 : 512 : 1"
       inkscape:vp_y="0 : 1000 : 0"
       inkscape:vp_z="1024 : 512 : 1"
       inkscape:persp3d-origin="512 : 341.33333 : 1"
       id="perspective5496" />
  </defs>
  <sodipodi:namedview
     inkscape:window-height="719"
     inkscape:window-width="1273"
     inkscape:pageshadow="2"
     inkscape:pageopacity="0.4"
     guidetolerance="10000"
     gridtolerance="10.0"
     objecttolerance="10.0"
     borderopacity="1.0"
     bordercolor="#666666"
     pagecolor="#000000"
     id="base"
     showgrid="false"
     showguides="true"
     inkscape:guide-bbox="true"
     showborder="false"
     inkscape:showpageshadow="false"
     inkscape:snap-guide="true"
     inkscape:snap-bbox="true"
     inkscape:zoom="20.506097"
     inkscape:cx="701.622"
     inkscape:cy="481.23688"
     inkscape:window-x="0"
     inkscape:window-y="-3"
     inkscape:current-layer="layer3">
    <sodipodi:guide
       orientation="0,1"
       position="494.53585,489.12283"
       id="guide5498" />
    <sodipodi:guide
       orientation="1,0"
       position="697.30482,287.96314"
       id="guide5500" />
    <sodipodi:guide
       orientation="-0.087155743,0.9961947"
       position="698.43535,489.21983"
       id="guide7101" />
    <sodipodi:guide
       orientation="-0.17364818,0.98480775"
       position="698.96286,489.41543"
       id="guide7103" />
    <sodipodi:guide
       orientation="-0.25881905,0.96592583"
       position="698.03631,489.31789"
       id="guide7105" />
  </sodipodi:namedview>
  <desc
     id="desc4439">UV-Map from Object: Circle. Exported from Blender3D with UV Exportscript</desc>
  <rect
     x="0"
     y="0"
     width="1024"
     height="1024"
     fill="none"
     stroke="blue"
     stroke-width="1px"
     id="rect4441" />
  <g
     inkscape:groupmode="layer"
     id="layer3"
     inkscape:label="2"
     style="opacity:0.19819821;display:inline"
     sodipodi:insensitive="true">
    <g
       style="fill:none;stroke:#000000;stroke-width:1px"
       id="g4443">
      <polygon
         points="717.975,794.102 697.495,814.665 752.403,809.015 717.975,794.102 "
         id="polygon4445" />
      <polygon
         points="742.38,789.32 717.975,794.102 752.403,809.015 742.38,789.32 "
         id="polygon4447" />
      <polygon
         points="763.076,785.103 742.38,789.32 752.403,809.015 763.076,785.103 "
         id="polygon4449" />
      <polygon
         points="763.076,785.103 752.403,809.015 804.989,792.625 763.076,785.103 "
         id="polygon4451" />
      <polygon
         points="806.843,770.45 763.076,785.103 804.989,792.625 806.843,770.45 "
         id="polygon4453" />
      <polygon
         points="806.843,770.45 804.989,792.625 853.227,766.115 806.843,770.45 "
         id="polygon4455" />
      <polygon
         points="808.309,766.131 806.843,770.45 853.227,766.115 808.309,766.131 "
         id="polygon4457" />
      <polygon
         points="808.405,759.689 808.309,766.131 853.227,766.115 808.405,759.689 "
         id="polygon4459" />
      <polygon
         points="808.405,759.689 853.227,766.115 807.881,758.688 808.405,759.689 "
         id="polygon4461" />
      <polygon
         points="807.881,758.688 853.227,766.115 807.25,757.573 807.881,758.688 "
         id="polygon4463" />
      <polygon
         points="807.25,757.573 853.227,766.115 810.816,704.402 807.25,757.573 "
         id="polygon4465" />
      <polygon
         points="803.131,750.53 807.25,757.573 810.816,704.402 803.131,750.53 "
         id="polygon4467" />
      <polygon
         points="803.131,750.53 810.816,704.402 796.999,746.458 803.131,750.53 "
         id="polygon4469" />
      <polygon
         points="796.999,746.458 810.816,704.402 792.489,745.375 796.999,746.458 "
         id="polygon4471" />
      <polygon
         points="792.489,745.375 810.816,704.402 775.629,723.502 792.489,745.375 "
         id="polygon4473" />
      <polygon
         points="792.489,745.375 775.629,723.502 775.125,752.365 792.489,745.375 "
         id="polygon4475" />
      <polygon
         points="775.125,752.365 775.629,723.502 755.144,757.357 775.125,752.365 "
         id="polygon4477" />
      <polygon
         points="755.144,757.357 775.629,723.502 737.275,735.348 755.144,757.357 "
         id="polygon4479" />
      <polygon
         points="755.144,757.357 737.275,735.348 736.044,761.179 755.144,757.357 "
         id="polygon4481" />
      <polygon
         points="736.044,761.179 737.275,735.348 715.51,763.231 736.044,761.179 "
         id="polygon4483" />
      <polygon
         points="715.51,763.231 737.275,735.348 697.311,739.414 715.51,763.231 "
         id="polygon4485" />
      <polygon
         points="717.975,794.102 697.439,794.01 697.495,814.665 717.975,794.102 "
         id="polygon4487" />
      <polygon
         points="715.51,763.231 697.311,739.414 697.361,763.045 715.51,763.231 "
         id="polygon4489" />
      <polygon
         points="150.084,812.388 190.614,801.656 187.742,793.956 150.084,812.388 "
         id="polygon4491" />
      <polygon
         points="150.084,812.388 194.792,810.751 190.614,801.656 150.084,812.388 "
         id="polygon4493" />
      <polygon
         points="150.084,812.388 204.595,819.582 194.792,810.751 150.084,812.388 "
         id="polygon4495" />
      <polygon
         points="150.084,812.388 223.18,833.177 204.595,819.582 150.084,812.388 "
         id="polygon4497" />
      <polygon
         points="150.084,812.388 124.659,779.05 115.993,781.71 150.084,812.388 "
         id="polygon4499" />
      <polygon
         points="150.084,812.388 131.651,774.73 124.659,779.05 150.084,812.388 "
         id="polygon4501" />
      <polygon
         points="150.084,812.388 139.352,771.858 131.651,774.73 150.084,812.388 "
         id="polygon4503" />
      <polygon
         points="150.084,812.388 147.465,770.543 139.352,771.858 150.084,812.388 "
         id="polygon4505" />
      <polygon
         points="150.084,812.388 155.679,770.836 147.465,770.543 150.084,812.388 "
         id="polygon4507" />
      <polygon
         points="150.084,812.388 163.678,772.726 155.679,770.836 150.084,812.388 "
         id="polygon4509" />
      <polygon
         points="150.084,812.388 171.155,776.14 163.678,772.726 150.084,812.388 "
         id="polygon4511" />
      <polygon
         points="150.084,812.388 177.821,780.948 171.155,776.14 150.084,812.388 "
         id="polygon4513" />
      <polygon
         points="150.084,812.388 183.422,786.963 177.821,780.948 150.084,812.388 "
         id="polygon4515" />
      <polygon
         points="183.422,786.963 150.084,812.388 187.742,793.956 183.422,786.963 "
         id="polygon4517" />
      <polygon
         points="45.471,816.014 115.993,781.71 109.945,781.675 45.471,816.014 "
         id="polygon4519" />
      <polygon
         points="45.471,816.014 116.61,841.321 115.993,781.71 45.471,816.014 "
         id="polygon4521" />
      <polygon
         points="45.471,816.014 25.307,860.534 22.796,871.42 45.471,816.014 "
         id="polygon4523" />
      <polygon
         points="45.471,816.014 22.575,855.402 25.307,860.534 45.471,816.014 "
         id="polygon4525" />
      <polygon
         points="45.471,816.014 15.331,850.179 22.575,855.402 45.471,816.014 "
         id="polygon4527" />
      <polygon
         points="45.471,816.014 9.245,843.643 15.331,850.179 45.471,816.014 "
         id="polygon4529" />
      <polygon
         points="45.471,816.014 4.551,836.044 9.245,843.643 45.471,816.014 "
         id="polygon4531" />
      <polygon
         points="45.471,816.014 1.429,827.676 4.551,836.044 45.471,816.014 "
         id="polygon4533" />
      <polygon
         points="45.471,816.014 0,818.86 1.429,827.676 45.471,816.014 "
         id="polygon4535" />
      <polygon
         points="45.471,816.014 0.318,809.935 0,818.86 45.471,816.014 "
         id="polygon4537" />
      <polygon
         points="45.471,816.014 2.372,801.243 0.318,809.935 45.471,816.014 "
         id="polygon4539" />
      <polygon
         points="45.471,816.014 6.082,793.118 2.372,801.243 45.471,816.014 "
         id="polygon4541" />
      <polygon
         points="45.471,816.014 11.305,785.874 6.082,793.118 45.471,816.014 "
         id="polygon4543" />
      <polygon
         points="45.471,816.014 17.842,779.787 11.305,785.874 45.471,816.014 "
         id="polygon4545" />
      <polygon
         points="45.471,816.014 25.44,775.093 17.842,779.787 45.471,816.014 "
         id="polygon4547" />
      <polygon
         points="45.471,816.014 33.808,771.972 25.44,775.093 45.471,816.014 "
         id="polygon4549" />
      <polygon
         points="45.471,816.014 42.624,770.543 33.808,771.972 45.471,816.014 "
         id="polygon4551" />
      <polygon
         points="45.471,816.014 51.55,770.861 42.624,770.543 45.471,816.014 "
         id="polygon4553" />
      <polygon
         points="45.471,816.014 60.242,772.915 51.55,770.861 45.471,816.014 "
         id="polygon4555" />
      <polygon
         points="45.471,816.014 68.366,776.625 60.242,772.915 45.471,816.014 "
         id="polygon4557" />
      <polygon
         points="45.471,816.014 80.091,776.893 68.366,776.625 45.471,816.014 "
         id="polygon4559" />
      <polygon
         points="45.471,816.014 93.889,778.964 80.091,776.893 45.471,816.014 "
         id="polygon4561" />
      <polygon
         points="93.889,778.964 45.471,816.014 109.945,781.675 93.889,778.964 "
         id="polygon4563" />
      <polygon
         points="30.319,873.839 22.796,871.42 16.59,882.494 30.319,873.839 "
         id="polygon4565" />
      <polygon
         points="223.18,833.177 150.084,812.388 116.61,841.321 223.18,833.177 "
         id="polygon4567" />
      <polygon
         points="116.61,841.321 150.084,812.388 115.993,781.71 116.61,841.321 "
         id="polygon4569" />
      <polygon
         points="116.61,841.321 45.471,816.014 30.319,873.839 116.61,841.321 "
         id="polygon4571" />
      <polygon
         points="30.319,873.839 45.471,816.014 22.796,871.42 30.319,873.839 "
         id="polygon4573" />
      <polygon
         points="182.259,768.561 182.262,714.364 177.544,714.364 177.542,768.561 182.259,768.561 "
         id="polygon4575" />
      <polygon
         points="177.542,768.561 177.544,714.364 164.84,714.364 164.838,768.561 177.542,768.561 "
         id="polygon4577" />
      <polygon
         points="164.838,768.561 164.84,714.364 153.955,714.363 153.953,768.56 164.838,768.561 "
         id="polygon4579" />
      <polygon
         points="153.953,768.56 153.955,714.363 144.805,714.363 144.804,768.56 153.953,768.56 "
         id="polygon4581" />
      <polygon
         points="144.804,768.56 144.805,714.363 137.837,714.363 137.837,768.56 144.804,768.56 "
         id="polygon4583" />
      <polygon
         points="137.837,768.56 137.837,714.363 130.869,714.363 130.869,768.559 137.837,768.56 "
         id="polygon4585" />
      <polygon
         points="130.869,768.559 130.869,714.363 123.901,714.363 123.902,768.559 130.869,768.559 "
         id="polygon4587" />
      <polygon
         points="123.902,768.559 123.901,714.363 116.933,714.363 116.935,768.56 123.902,768.559 "
         id="polygon4589" />
      <polygon
         points="116.935,768.56 116.933,714.363 109.965,714.363 109.968,768.56 116.935,768.56 "
         id="polygon4591" />
      <polygon
         points="109.968,768.56 109.965,714.363 102.997,714.363 103,768.56 109.968,768.56 "
         id="polygon4593" />
      <polygon
         points="103,768.56 102.997,714.363 96.029,714.363 96.033,768.56 103,768.56 "
         id="polygon4595" />
      <polygon
         points="96.033,768.56 96.029,714.363 89.061,714.364 89.066,768.561 96.033,768.56 "
         id="polygon4597" />
      <polygon
         points="89.066,768.561 89.061,714.364 82.093,714.364 82.099,768.562 89.066,768.561 "
         id="polygon4599" />
      <polygon
         points="82.099,768.562 82.093,714.364 75.125,714.365 75.131,768.563 82.099,768.562 "
         id="polygon4601" />
      <polygon
         points="75.131,768.563 75.125,714.365 68.157,714.365 68.163,768.564 75.131,768.563 "
         id="polygon4603" />
      <polygon
         points="68.163,768.564 68.157,714.365 61.189,714.366 61.195,768.565 68.163,768.564 "
         id="polygon4605" />
      <polygon
         points="61.195,768.565 61.189,714.366 54.221,714.367 54.227,768.566 61.195,768.565 "
         id="polygon4607" />
      <polygon
         points="54.227,768.566 54.221,714.367 47.253,714.368 47.259,768.567 54.227,768.566 "
         id="polygon4609" />
      <polygon
         points="47.259,768.567 47.253,714.368 40.285,714.369 40.291,768.568 47.259,768.567 "
         id="polygon4611" />
      <polygon
         points="40.291,768.568 40.285,714.369 33.316,714.37 33.323,768.569 40.291,768.568 "
         id="polygon4613" />
      <polygon
         points="33.323,768.569 33.316,714.37 28.781,714.37 28.787,768.569 33.323,768.569 "
         id="polygon4615" />
      <polygon
         points="28.787,768.569 28.781,714.37 20.065,714.371 20.071,768.57 28.787,768.569 "
         id="polygon4617" />
      <polygon
         points="20.071,768.57 20.065,714.371 10.161,714.372 10.166,768.571 20.071,768.57 "
         id="polygon4619" />
      <polygon
         points="247.038,768.567 247.043,714.371 240.631,714.37 240.626,768.566 247.038,768.567 "
         id="polygon4621" />
      <polygon
         points="240.626,768.566 240.631,714.37 234.219,714.37 234.214,768.565 240.626,768.566 "
         id="polygon4623" />
      <polygon
         points="234.214,768.565 234.219,714.37 227.807,714.369 227.802,768.564 234.214,768.565 "
         id="polygon4625" />
      <polygon
         points="227.802,768.564 227.807,714.369 221.395,714.368 221.39,768.564 227.802,768.564 "
         id="polygon4627" />
      <polygon
         points="221.39,768.564 221.395,714.368 214.983,714.367 214.979,768.563 221.39,768.564 "
         id="polygon4629" />
      <polygon
         points="214.979,768.563 214.983,714.367 208.571,714.367 208.567,768.563 214.979,768.563 "
         id="polygon4631" />
      <polygon
         points="208.567,768.563 208.571,714.367 202.159,714.366 202.155,768.562 208.567,768.563 "
         id="polygon4633" />
      <polygon
         points="202.155,768.562 202.159,714.366 195.747,714.365 195.743,768.562 202.155,768.562 "
         id="polygon4635" />
      <polygon
         points="195.743,768.562 195.747,714.365 189.334,714.365 189.331,768.562 195.743,768.562 "
         id="polygon4637" />
      <polygon
         points="189.331,768.562 189.334,714.365 182.262,714.364 182.259,768.561 189.331,768.562 "
         id="polygon4639" />
      <polygon
         points="289.514,768.571 289.52,714.376 271.556,714.374 271.55,768.569 289.514,768.571 "
         id="polygon4641" />
      <polygon
         points="271.55,768.569 271.556,714.374 261.263,714.373 261.257,768.568 271.55,768.569 "
         id="polygon4643" />
      <polygon
         points="261.257,768.568 261.263,714.373 253.455,714.372 253.449,768.567 261.257,768.568 "
         id="polygon4645" />
      <polygon
         points="253.449,768.567 253.455,714.372 247.043,714.371 247.038,768.567 253.449,768.567 "
         id="polygon4647" />
      <polygon
         points="289.09,856.931 314.099,818.909 306.096,815.439 289.09,856.931 "
         id="polygon4649" />
      <polygon
         points="289.09,856.931 321.141,823.84 314.099,818.909 289.09,856.931 "
         id="polygon4651" />
      <polygon
         points="289.09,856.931 326.951,830.042 321.141,823.84 289.09,856.931 "
         id="polygon4653" />
      <polygon
         points="289.09,856.931 331.307,837.278 326.951,830.042 289.09,856.931 "
         id="polygon4655" />
      <polygon
         points="289.09,856.931 334.04,845.269 331.307,837.278 289.09,856.931 "
         id="polygon4657" />
      <polygon
         points="289.09,856.931 338.666,854.156 334.04,845.269 289.09,856.931 "
         id="polygon4659" />
      <polygon
         points="289.09,856.931 344.748,865.505 338.666,854.156 289.09,856.931 "
         id="polygon4661" />
      <polygon
         points="289.09,856.931 353.946,882.494 344.748,865.505 289.09,856.931 "
         id="polygon4663" />
      <polygon
         points="289.09,856.931 229.302,873.367 223.18,882.494 289.09,856.931 "
         id="polygon4665" />
      <polygon
         points="289.09,856.931 237.012,862.577 229.302,873.367 289.09,856.931 "
         id="polygon4667" />
      <polygon
         points="289.09,856.931 243.896,851.59 237.012,862.577 289.09,856.931 "
         id="polygon4669" />
      <polygon
         points="289.09,856.931 246.393,843.232 243.896,851.59 289.09,856.931 "
         id="polygon4671" />
      <polygon
         points="289.09,856.931 250.531,835.401 246.393,843.232 289.09,856.931 "
         id="polygon4673" />
      <polygon
         points="289.09,856.931 256.151,828.397 250.531,835.401 289.09,856.931 "
         id="polygon4675" />
      <polygon
         points="289.09,856.931 263.037,822.489 256.151,828.397 289.09,856.931 "
         id="polygon4677" />
      <polygon
         points="289.09,856.931 270.924,817.905 263.037,822.489 289.09,856.931 "
         id="polygon4679" />
      <polygon
         points="289.09,856.931 279.509,814.821 270.924,817.905 289.09,856.931 "
         id="polygon4681" />
      <polygon
         points="289.09,856.931 288.462,813.355 279.509,814.821 289.09,856.931 "
         id="polygon4683" />
      <polygon
         points="289.09,856.931 297.439,813.564 288.462,813.355 289.09,856.931 "
         id="polygon4685" />
      <polygon
         points="297.439,813.564 289.09,856.931 306.096,815.439 297.439,813.564 "
         id="polygon4687" />
      <polygon
         points="353.946,882.494 289.09,856.931 223.18,882.494 353.946,882.494 "
         id="polygon4689" />
      <polygon
         points="113.646,609.09 113.645,554.417 106.735,554.417 106.736,609.09 113.646,609.09 "
         id="polygon4691" />
      <polygon
         points="106.736,609.09 106.735,554.417 99.729,554.417 99.73,609.09 106.736,609.09 "
         id="polygon4693" />
      <polygon
         points="99.73,609.09 99.729,554.417 92.651,554.417 92.652,609.09 99.73,609.09 "
         id="polygon4695" />
      <polygon
         points="92.652,609.09 92.651,554.417 85.535,554.418 85.536,609.09 92.652,609.09 "
         id="polygon4697" />
      <polygon
         points="85.536,609.09 85.535,554.418 78.418,554.418 78.419,609.09 85.536,609.09 "
         id="polygon4699" />
      <polygon
         points="78.419,609.09 78.418,554.418 71.34,554.418 71.341,609.09 78.419,609.09 "
         id="polygon4701" />
      <polygon
         points="71.341,609.09 71.34,554.418 64.334,554.418 64.336,609.09 71.341,609.09 "
         id="polygon4703" />
      <polygon
         points="64.336,609.09 64.334,554.418 57.424,554.419 57.426,609.09 64.336,609.09 "
         id="polygon4705" />
      <polygon
         points="57.426,609.09 57.424,554.419 50.62,554.419 50.621,609.091 57.426,609.09 "
         id="polygon4707" />
      <polygon
         points="50.621,609.091 50.62,554.419 40.505,554.42 40.507,609.091 50.621,609.091 "
         id="polygon4709" />
      <polygon
         points="40.507,609.091 40.505,554.42 30.159,554.42 30.161,609.091 40.507,609.091 "
         id="polygon4711" />
      <polygon
         points="30.161,609.091 30.159,554.42 21.585,554.42 21.587,609.091 30.161,609.091 "
         id="polygon4713" />
      <polygon
         points="179.9,609.091 179.902,554.417 164.829,554.416 164.828,609.091 179.9,609.091 "
         id="polygon4715" />
      <polygon
         points="164.828,609.091 164.829,554.416 154.783,554.416 154.782,609.091 164.828,609.091 "
         id="polygon4717" />
      <polygon
         points="154.782,609.091 154.783,554.416 146.967,554.416 146.966,609.09 154.782,609.091 "
         id="polygon4719" />
      <polygon
         points="146.966,609.09 146.967,554.416 140.378,554.416 140.377,609.09 146.966,609.09 "
         id="polygon4721" />
      <polygon
         points="140.377,609.09 140.378,554.416 133.788,554.416 133.788,609.09 140.377,609.09 "
         id="polygon4723" />
      <polygon
         points="133.788,609.09 133.788,554.416 127.158,554.416 127.158,609.09 133.788,609.09 "
         id="polygon4725" />
      <polygon
         points="127.158,609.09 127.158,554.416 120.451,554.416 120.451,609.09 127.158,609.09 "
         id="polygon4727" />
      <polygon
         points="120.451,609.09 120.451,554.416 113.645,554.417 113.646,609.09 120.451,609.09 "
         id="polygon4729" />
      <polygon
         points="227.369,599.19 264.322,618.896 267.456,611.308 227.369,599.19 "
         id="polygon4731" />
      <polygon
         points="227.369,599.19 259.767,625.727 264.322,618.896 227.369,599.19 "
         id="polygon4733" />
      <polygon
         points="227.369,599.19 253.968,631.537 259.767,625.727 227.369,599.19 "
         id="polygon4735" />
      <polygon
         points="227.369,599.19 247.146,636.105 253.968,631.537 227.369,599.19 "
         id="polygon4737" />
      <polygon
         points="227.369,599.19 239.564,639.254 247.146,636.105 227.369,599.19 "
         id="polygon4739" />
      <polygon
         points="227.369,599.19 231.514,640.864 239.564,639.254 227.369,599.19 "
         id="polygon4741" />
      <polygon
         points="227.369,599.19 223.304,640.872 231.514,640.864 227.369,599.19 "
         id="polygon4743" />
      <polygon
         points="227.369,599.19 215.251,639.278 223.304,640.872 227.369,599.19 "
         id="polygon4745" />
      <polygon
         points="227.369,599.19 207.663,636.143 215.251,639.278 227.369,599.19 "
         id="polygon4747" />
      <polygon
         points="227.369,599.19 200.832,631.589 207.663,636.143 227.369,599.19 "
         id="polygon4749" />
      <polygon
         points="227.369,599.19 195.021,625.789 200.832,631.589 227.369,599.19 "
         id="polygon4751" />
      <polygon
         points="227.369,599.19 190.454,618.968 195.021,625.789 227.369,599.19 "
         id="polygon4753" />
      <polygon
         points="227.369,599.19 187.305,611.386 190.454,618.968 227.369,599.19 "
         id="polygon4755" />
      <polygon
         points="227.369,599.19 185.695,603.336 187.305,611.386 227.369,599.19 "
         id="polygon4757" />
      <polygon
         points="227.369,599.19 184.798,594.286 185.695,603.336 227.369,599.19 "
         id="polygon4759" />
      <polygon
         points="227.369,599.19 184.481,585.94 184.798,594.286 227.369,599.19 "
         id="polygon4761" />
      <polygon
         points="227.369,599.19 180.603,575.09 184.481,585.94 227.369,599.19 "
         id="polygon4763" />
      <polygon
         points="227.369,599.19 281.237,585.74 288.728,575.09 227.369,599.19 "
         id="polygon4765" />
      <polygon
         points="227.369,599.19 275.591,594.168 281.237,585.74 227.369,599.19 "
         id="polygon4767" />
      <polygon
         points="227.369,599.19 270.255,603.048 275.591,594.168 227.369,599.19 "
         id="polygon4769" />
      <polygon
         points="270.255,603.048 227.369,599.19 267.456,611.308 270.255,603.048 "
         id="polygon4771" />
      <polygon
         points="180.603,575.09 227.369,599.19 288.728,575.09 180.603,575.09 "
         id="polygon4773" />
      <polygon
         points="134.616,603.791 134.617,658.307 141.421,658.307 141.42,603.791 134.616,603.791 "
         id="polygon4775" />
      <polygon
         points="141.42,603.791 141.421,658.307 149.503,658.307 149.502,603.791 141.42,603.791 "
         id="polygon4777" />
      <polygon
         points="149.502,603.791 149.503,658.307 157.417,658.307 157.416,603.79 149.502,603.791 "
         id="polygon4779" />
      <polygon
         points="157.416,603.79 157.417,658.307 167.575,658.307 167.574,603.79 157.416,603.79 "
         id="polygon4781" />
      <polygon
         points="22.349,603.791 22.349,658.308 31.338,658.308 31.338,603.791 22.349,603.791 "
         id="polygon4783" />
      <polygon
         points="31.338,603.791 31.338,658.308 37.854,658.308 37.854,603.791 31.338,603.791 "
         id="polygon4785" />
      <polygon
         points="37.854,603.791 37.854,658.308 44.949,658.308 44.949,603.791 37.854,603.791 "
         id="polygon4787" />
      <polygon
         points="44.949,603.791 44.949,658.308 51.353,658.308 51.353,603.791 44.949,603.791 "
         id="polygon4789" />
      <polygon
         points="51.353,603.791 51.353,658.308 57.758,658.308 57.758,603.791 51.353,603.791 "
         id="polygon4791" />
      <polygon
         points="57.758,603.791 57.758,658.308 64.163,658.308 64.163,603.791 57.758,603.791 "
         id="polygon4793" />
      <polygon
         points="64.163,603.791 64.163,658.308 70.568,658.308 70.568,603.791 64.163,603.791 "
         id="polygon4795" />
      <polygon
         points="70.568,603.791 70.568,658.308 76.973,658.308 76.973,603.791 70.568,603.791 "
         id="polygon4797" />
      <polygon
         points="76.973,603.791 76.973,658.308 83.378,658.308 83.378,603.791 76.973,603.791 "
         id="polygon4799" />
      <polygon
         points="83.378,603.791 83.378,658.308 89.783,658.308 89.782,603.791 83.378,603.791 "
         id="polygon4801" />
      <polygon
         points="89.782,603.791 89.783,658.308 96.188,658.308 96.187,603.791 89.782,603.791 "
         id="polygon4803" />
      <polygon
         points="96.187,603.791 96.188,658.308 102.592,658.308 102.592,603.791 96.187,603.791 "
         id="polygon4805" />
      <polygon
         points="102.592,603.791 102.592,658.308 108.997,658.308 108.997,603.791 102.592,603.791 "
         id="polygon4807" />
      <polygon
         points="108.997,603.791 108.997,658.308 115.402,658.308 115.402,603.791 108.997,603.791 "
         id="polygon4809" />
      <polygon
         points="115.402,603.791 115.402,658.308 121.807,658.307 121.806,603.791 115.402,603.791 "
         id="polygon4811" />
      <polygon
         points="121.806,603.791 121.807,658.307 128.212,658.307 128.211,603.791 121.806,603.791 "
         id="polygon4813" />
      <polygon
         points="128.211,603.791 128.212,658.307 134.617,658.307 134.616,603.791 128.211,603.791 "
         id="polygon4815" />
      <polygon
         points="404.675,838.192 417.598,795.592 409.039,793.89 404.675,838.192 "
         id="polygon4817" />
      <polygon
         points="404.675,838.192 425.66,798.932 417.598,795.592 404.675,838.192 "
         id="polygon4819" />
      <polygon
         points="404.675,838.192 432.916,803.78 425.66,798.932 404.675,838.192 "
         id="polygon4821" />
      <polygon
         points="404.675,838.192 439.087,809.951 432.916,803.78 404.675,838.192 "
         id="polygon4823" />
      <polygon
         points="404.675,838.192 443.935,817.207 439.087,809.951 404.675,838.192 "
         id="polygon4825" />
      <polygon
         points="404.675,838.192 447.275,825.27 443.935,817.207 404.675,838.192 "
         id="polygon4827" />
      <polygon
         points="404.675,838.192 448.978,833.829 447.275,825.27 404.675,838.192 "
         id="polygon4829" />
      <polygon
         points="404.675,838.192 448.977,842.555 448.978,833.829 404.675,838.192 "
         id="polygon4831" />
      <polygon
         points="404.675,838.192 447.275,851.115 448.977,842.555 404.675,838.192 "
         id="polygon4833" />
      <polygon
         points="404.675,838.192 443.935,859.177 447.275,851.115 404.675,838.192 "
         id="polygon4835" />
      <polygon
         points="404.675,838.192 439.087,866.433 443.935,859.177 404.675,838.192 "
         id="polygon4837" />
      <polygon
         points="404.675,838.192 432.916,872.604 439.087,866.433 404.675,838.192 "
         id="polygon4839" />
      <polygon
         points="404.675,838.192 425.66,877.452 432.916,872.604 404.675,838.192 "
         id="polygon4841" />
      <polygon
         points="404.675,838.192 417.598,880.792 425.66,877.452 404.675,838.192 "
         id="polygon4843" />
      <polygon
         points="404.675,838.192 409.038,882.494 417.598,880.792 404.675,838.192 "
         id="polygon4845" />
      <polygon
         points="404.675,838.192 400.312,882.494 409.038,882.494 404.675,838.192 "
         id="polygon4847" />
      <polygon
         points="404.675,838.192 391.753,880.792 400.312,882.494 404.675,838.192 "
         id="polygon4849" />
      <polygon
         points="404.675,838.192 383.69,877.452 391.753,880.792 404.675,838.192 "
         id="polygon4851" />
      <polygon
         points="404.675,838.192 375.894,875.657 383.69,877.452 404.675,838.192 "
         id="polygon4853" />
      <polygon
         points="404.675,838.192 366.278,875.358 375.894,875.657 404.675,838.192 "
         id="polygon4855" />
      <polygon
         points="404.675,838.192 353.946,878.594 366.278,875.358 404.675,838.192 "
         id="polygon4857" />
      <polygon
         points="404.675,838.192 389.6,795.619 382.263,794.013 404.675,838.192 "
         id="polygon4859" />
      <polygon
         points="404.675,838.192 400.312,793.89 389.6,795.619 404.675,838.192 "
         id="polygon4861" />
      <polygon
         points="400.312,793.89 404.675,838.192 409.039,793.89 400.312,793.89 "
         id="polygon4863" />
      <polygon
         points="353.946,878.594 404.675,838.192 382.263,794.013 353.946,878.594 "
         id="polygon4865" />
      <polygon
         points="145.617,657.559 145.618,712.595 152.426,712.595 152.426,657.559 145.617,657.559 "
         id="polygon4867" />
      <polygon
         points="152.426,657.559 152.426,712.595 160.891,712.595 160.891,657.559 152.426,657.559 "
         id="polygon4869" />
      <polygon
         points="160.891,657.559 160.891,712.595 166.75,712.595 166.75,657.559 160.891,657.559 "
         id="polygon4871" />
      <polygon
         points="-0.624,657.559 -0.624,712.596 9.323,712.596 9.323,657.559 -0.624,657.559 "
         id="polygon4873" />
      <polygon
         points="9.323,657.559 9.323,712.596 16.829,712.596 16.829,657.559 9.323,657.559 "
         id="polygon4875" />
      <polygon
         points="16.829,657.559 16.829,712.596 23.07,712.596 23.07,657.559 16.829,657.559 "
         id="polygon4877" />
      <polygon
         points="23.07,657.559 23.07,712.596 29.878,712.596 29.878,657.559 23.07,657.559 "
         id="polygon4879" />
      <polygon
         points="29.878,657.559 29.878,712.596 36.686,712.596 36.686,657.559 29.878,657.559 "
         id="polygon4881" />
      <polygon
         points="36.686,657.559 36.686,712.596 43.495,712.596 43.495,657.559 36.686,657.559 "
         id="polygon4883" />
      <polygon
         points="43.495,657.559 43.495,712.596 50.303,712.596 50.303,657.559 43.495,657.559 "
         id="polygon4885" />
      <polygon
         points="50.303,657.559 50.303,712.596 57.111,712.596 57.111,657.559 50.303,657.559 "
         id="polygon4887" />
      <polygon
         points="57.111,657.559 57.111,712.596 63.919,712.596 63.919,657.559 57.111,657.559 "
         id="polygon4889" />
      <polygon
         points="63.919,657.559 63.919,712.596 70.728,712.596 70.727,657.559 63.919,657.559 "
         id="polygon4891" />
      <polygon
         points="70.727,657.559 70.728,712.596 77.536,712.596 77.536,657.559 70.727,657.559 "
         id="polygon4893" />
      <polygon
         points="77.536,657.559 77.536,712.596 84.344,712.596 84.344,657.559 77.536,657.559 "
         id="polygon4895" />
      <polygon
         points="84.344,657.559 84.344,712.596 91.152,712.596 91.152,657.559 84.344,657.559 "
         id="polygon4897" />
      <polygon
         points="91.152,657.559 91.152,712.596 97.961,712.596 97.96,657.559 91.152,657.559 "
         id="polygon4899" />
      <polygon
         points="97.96,657.559 97.961,712.596 104.769,712.596 104.768,657.559 97.96,657.559 "
         id="polygon4901" />
      <polygon
         points="104.768,657.559 104.769,712.596 111.577,712.596 111.577,657.559 104.768,657.559 "
         id="polygon4903" />
      <polygon
         points="111.577,657.559 111.577,712.596 118.385,712.596 118.385,657.559 111.577,657.559 "
         id="polygon4905" />
      <polygon
         points="118.385,657.559 118.385,712.596 125.193,712.596 125.193,657.559 118.385,657.559 "
         id="polygon4907" />
      <polygon
         points="125.193,657.559 125.193,712.596 132.002,712.596 132.001,657.559 125.193,657.559 "
         id="polygon4909" />
      <polygon
         points="132.001,657.559 132.002,712.596 138.81,712.595 138.809,657.559 132.001,657.559 "
         id="polygon4911" />
      <polygon
         points="138.809,657.559 138.81,712.595 145.618,712.595 145.617,657.559 138.809,657.559 "
         id="polygon4913" />
      <polygon
         points="218.827,683.01 171.842,704.225 166.126,712.391 218.827,683.01 "
         id="polygon4915" />
      <polygon
         points="218.827,683.01 174.706,695.754 171.842,704.225 218.827,683.01 "
         id="polygon4917" />
      <polygon
         points="218.827,683.01 175.508,687.296 174.706,695.754 218.827,683.01 "
         id="polygon4919" />
      <polygon
         points="218.827,683.01 176.707,678.765 175.508,687.296 218.827,683.01 "
         id="polygon4921" />
      <polygon
         points="218.827,683.01 178.345,670.63 176.707,678.765 218.827,683.01 "
         id="polygon4923" />
      <polygon
         points="218.827,683.01 181.538,662.97 178.345,670.63 218.827,683.01 "
         id="polygon4925" />
      <polygon
         points="218.827,683.01 186.164,656.08 181.538,662.97 218.827,683.01 "
         id="polygon4927" />
      <polygon
         points="218.827,683.01 192.045,650.225 186.164,656.08 218.827,683.01 "
         id="polygon4929" />
      <polygon
         points="218.827,683.01 198.956,645.631 192.045,650.225 218.827,683.01 "
         id="polygon4931" />
      <polygon
         points="218.827,683.01 206.63,642.472 198.956,645.631 218.827,683.01 "
         id="polygon4933" />
      <polygon
         points="218.827,683.01 214.773,640.872 206.63,642.472 218.827,683.01 "
         id="polygon4935" />
      <polygon
         points="218.827,683.01 223.071,640.89 214.773,640.872 218.827,683.01 "
         id="polygon4937" />
      <polygon
         points="218.827,683.01 231.207,642.528 223.071,640.89 218.827,683.01 "
         id="polygon4939" />
      <polygon
         points="218.827,683.01 238.867,645.721 231.207,642.528 218.827,683.01 "
         id="polygon4941" />
      <polygon
         points="218.827,683.01 245.756,650.347 238.867,645.721 218.827,683.01 "
         id="polygon4943" />
      <polygon
         points="218.827,683.01 251.611,656.228 245.756,650.347 218.827,683.01 "
         id="polygon4945" />
      <polygon
         points="218.827,683.01 256.206,663.139 251.611,656.228 218.827,683.01 "
         id="polygon4947" />
      <polygon
         points="218.827,683.01 260.545,670.581 256.206,663.139 218.827,683.01 "
         id="polygon4949" />
      <polygon
         points="218.827,683.01 262.946,678.566 260.545,670.581 218.827,683.01 "
         id="polygon4951" />
      <polygon
         points="218.827,683.01 266.532,686.321 262.946,678.566 218.827,683.01 "
         id="polygon4953" />
      <polygon
         points="218.827,683.01 270.047,694.218 266.532,686.321 218.827,683.01 "
         id="polygon4955" />
      <polygon
         points="218.827,683.01 277.184,702.893 270.047,694.218 218.827,683.01 "
         id="polygon4957" />
      <polygon
         points="218.827,683.01 288.728,712.391 277.184,702.893 218.827,683.01 "
         id="polygon4959" />
      <polygon
         points="166.126,712.391 288.728,712.391 218.827,683.01 166.126,712.391 "
         id="polygon4961" />
      <polygon
         points="301.084,766.434 355.49,766.434 355.49,754.771 301.084,754.771 301.084,766.434 "
         id="polygon4963" />
      <polygon
         points="301.084,754.771 355.49,754.771 355.49,746.008 301.084,746.008 301.084,754.771 "
         id="polygon4965" />
      <polygon
         points="301.084,746.008 355.49,746.008 355.49,739.264 301.084,739.264 301.084,746.008 "
         id="polygon4967" />
      <polygon
         points="301.084,739.264 355.49,739.264 355.49,732.598 301.084,732.598 301.084,739.264 "
         id="polygon4969" />
      <polygon
         points="301.084,732.598 355.49,732.598 355.49,726.093 301.084,726.093 301.084,732.598 "
         id="polygon4971" />
      <polygon
         points="301.084,726.093 355.49,726.093 355.49,719.372 301.084,719.372 301.084,726.093 "
         id="polygon4973" />
      <polygon
         points="301.084,719.372 355.49,719.372 355.49,712.898 301.084,712.898 301.084,719.372 "
         id="polygon4975" />
      <polygon
         points="301.084,712.898 355.49,712.898 355.49,706.423 301.084,706.423 301.084,712.898 "
         id="polygon4977" />
      <polygon
         points="301.084,706.423 355.49,706.423 355.49,699.949 301.084,699.949 301.084,706.423 "
         id="polygon4979" />
      <polygon
         points="301.084,699.949 355.49,699.949 355.49,693.475 301.084,693.475 301.084,699.949 "
         id="polygon4981" />
      <polygon
         points="301.084,693.475 355.49,693.475 355.49,687 301.084,687 301.084,693.475 "
         id="polygon4983" />
      <polygon
         points="301.084,687 355.49,687 355.49,680.526 301.084,680.526 301.084,687 "
         id="polygon4985" />
      <polygon
         points="301.084,680.526 355.49,680.526 355.49,674.052 301.084,674.052 301.084,680.526 "
         id="polygon4987" />
      <polygon
         points="301.084,674.052 355.49,674.052 355.49,667.577 301.084,667.577 301.084,674.052 "
         id="polygon4989" />
      <polygon
         points="301.084,667.577 355.49,667.577 355.49,661.103 301.084,661.103 301.084,667.577 "
         id="polygon4991" />
      <polygon
         points="301.084,661.103 355.49,661.103 355.49,654.629 301.084,654.629 301.084,661.103 "
         id="polygon4993" />
      <polygon
         points="301.084,654.629 355.49,654.629 355.49,648.155 301.084,648.155 301.084,654.629 "
         id="polygon4995" />
      <polygon
         points="301.084,648.155 355.49,648.155 355.49,641.68 301.084,641.68 301.084,648.155 "
         id="polygon4997" />
      <polygon
         points="301.084,641.68 355.49,641.68 355.49,635.206 301.084,635.206 301.084,641.68 "
         id="polygon4999" />
      <polygon
         points="301.084,635.206 355.49,635.206 355.49,628.485 301.084,628.485 301.084,635.206 "
         id="polygon5001" />
      <polygon
         points="301.084,628.485 355.49,628.485 355.49,621.857 301.084,621.857 301.084,628.485 "
         id="polygon5003" />
      <polygon
         points="301.084,621.857 355.49,621.857 355.49,614.882 301.084,614.882 301.084,621.857 "
         id="polygon5005" />
      <polygon
         points="301.084,614.882 355.49,614.882 355.49,607.105 301.084,607.105 301.084,614.882 "
         id="polygon5007" />
      <polygon
         points="810.816,704.402 853.227,766.115 895.082,731.101 841.704,678.719 810.816,704.402 "
         id="polygon5009" />
      <polygon
         points="552.638,679.371 499.467,731.97 541.458,766.805 583.624,704.92 552.638,679.371 "
         id="polygon5011" />
      <polygon
         points="527.266,648.341 465.035,689.678 499.467,731.97 552.638,679.371 527.266,648.341 "
         id="polygon5013" />
      <polygon
         points="508.387,613.035 439.363,641.56 465.035,689.678 527.266,648.341 508.387,613.035 "
         id="polygon5015" />
      <polygon
         points="496.768,574.744 423.54,589.368 439.363,641.56 508.387,613.035 496.768,574.744 "
         id="polygon5017" />
      <polygon
         points="492.82,534.942 418.139,535.071 423.54,589.368 496.768,574.744 492.82,534.942 "
         id="polygon5019" />
      <polygon
         points="496.693,495.14 423.4,480.736 418.139,535.071 492.82,534.942 496.693,495.14 "
         id="polygon5021" />
      <polygon
         points="508.246,456.859 439.15,428.447 423.4,480.736 496.693,495.14 508.246,456.859 "
         id="polygon5023" />
      <polygon
         points="527.038,421.567 464.802,380.216 439.15,428.447 508.246,456.859 527.038,421.567 "
         id="polygon5025" />
      <polygon
         points="552.35,390.622 499.388,337.903 464.802,380.216 527.038,421.567 552.35,390.622 "
         id="polygon5027" />
      <polygon
         points="583.188,365.175 541.539,303.103 499.388,337.903 552.35,390.622 583.188,365.175 "
         id="polygon5029" />
      <polygon
         points="618.408,346.232 589.68,277.203 541.539,303.103 583.188,365.175 618.408,346.232 "
         id="polygon5031" />
      <polygon
         points="656.655,334.526 641.962,261.2 589.68,277.203 618.408,346.232 656.655,334.526 "
         id="polygon5033" />
      <polygon
         points="696.454,330.512 696.373,255.722 641.962,261.2 656.655,334.526 696.454,330.512 "
         id="polygon5035" />
      <polygon
         points="736.272,334.347 750.802,260.993 696.373,255.722 696.454,330.512 736.272,334.347 "
         id="polygon5037" />
      <polygon
         points="774.573,345.881 803.138,276.791 750.802,260.993 736.272,334.347 774.573,345.881 "
         id="polygon5039" />
      <polygon
         points="809.884,364.666 851.371,302.49 803.138,276.791 774.573,345.881 809.884,364.666 "
         id="polygon5041" />
      <polygon
         points="840.849,389.976 893.654,337.096 851.371,302.49 809.884,364.666 840.849,389.976 "
         id="polygon5043" />
      <polygon
         points="866.282,420.835 928.369,379.273 893.654,337.096 840.849,389.976 866.282,420.835 "
         id="polygon5045" />
      <polygon
         points="885.21,456.057 954.19,427.395 928.369,379.273 866.282,420.835 885.21,456.057 "
         id="polygon5047" />
      <polygon
         points="896.911,494.291 970.135,479.61 954.19,427.395 885.21,456.057 896.911,494.291 "
         id="polygon5049" />
      <polygon
         points="900.942,534.073 975.608,533.911 970.135,479.61 896.911,494.291 900.942,534.073 "
         id="polygon5051" />
      <polygon
         points="897.152,573.884 970.423,588.219 975.608,533.911 900.942,534.073 897.152,573.884 "
         id="polygon5053" />
      <polygon
         points="885.688,612.212 954.807,640.469 970.423,588.219 897.152,573.884 885.688,612.212 "
         id="polygon5055" />
      <polygon
         points="866.983,647.61 929.386,688.7 954.807,640.469 885.688,612.212 866.983,647.61 "
         id="polygon5057" />
      <polygon
         points="895.082,731.101 929.386,688.7 866.983,647.61 841.704,678.719 895.082,731.101 "
         id="polygon5059" />
      <polygon
         points="865.279,783.803 866.317,785.344 911.617,747.324 910.293,746.029 865.279,783.803 "
         id="polygon5061" />
      <polygon
         points="813.408,812.372 814.137,814.077 866.317,785.344 865.279,783.803 813.408,812.372 "
         id="polygon5063" />
      <polygon
         points="756.742,830.11 757.12,831.939 814.137,814.077 813.408,812.372 756.742,830.11 "
         id="polygon5065" />
      <polygon
         points="697.546,836.235 697.551,838.11 757.12,831.939 756.742,830.11 697.546,836.235 "
         id="polygon5067" />
      <polygon
         points="638.31,830.387 637.939,832.217 697.551,838.11 697.546,836.235 638.31,830.387 "
         id="polygon5069" />
      <polygon
         points="581.502,812.873 580.782,814.584 637.939,832.217 638.31,830.387 581.502,812.873 "
         id="polygon5071" />
      <polygon
         points="529.487,784.544 528.456,786.088 580.782,814.584 581.502,812.873 529.487,784.544 "
         id="polygon5073" />
      <polygon
         points="484.317,746.952 482.999,748.252 528.456,786.088 529.487,784.544 484.317,746.952 "
         id="polygon5075" />
      <polygon
         points="447.301,701.449 445.761,702.467 482.999,748.252 484.317,746.952 447.301,701.449 "
         id="polygon5077" />
      <polygon
         points="419.705,649.686 418.003,650.388 445.761,702.467 447.301,701.449 419.705,649.686 "
         id="polygon5079" />
      <polygon
         points="402.666,593.531 400.858,593.891 418.003,650.388 419.705,649.686 402.666,593.531 "
         id="polygon5081" />
      <polygon
         points="396.842,535.1 394.997,535.102 400.858,593.891 402.666,593.531 396.842,535.1 "
         id="polygon5083" />
      <polygon
         points="402.496,476.618 400.685,476.262 394.997,535.102 396.842,535.1 402.496,476.618 "
         id="polygon5085" />
      <polygon
         points="419.441,420.331 417.734,419.628 400.685,476.262 402.496,476.618 419.441,420.331 "
         id="polygon5087" />
      <polygon
         points="447.048,368.409 445.51,367.387 417.734,419.628 419.441,420.331 447.048,368.409 "
         id="polygon5089" />
      <polygon
         points="484.265,322.857 482.954,321.553 445.51,367.387 447.048,368.409 484.265,322.857 "
         id="polygon5091" />
      <polygon
         points="529.638,285.4 528.607,283.867 482.954,321.553 484.265,322.857 529.638,285.4 "
         id="polygon5093" />
      <polygon
         points="581.461,257.512 580.748,255.806 528.607,283.867 529.638,285.4 581.461,257.512 "
         id="polygon5095" />
      <polygon
         points="637.746,240.274 637.379,238.459 580.748,255.806 581.461,257.512 637.746,240.274 "
         id="polygon5097" />
      <polygon
         points="696.333,234.363 696.33,232.505 637.379,238.459 637.746,240.274 696.333,234.363 "
         id="polygon5099" />
      <polygon
         points="754.937,240.053 755.296,238.237 696.33,232.505 696.333,234.363 754.937,240.053 "
         id="polygon5101" />
      <polygon
         points="811.278,257.07 811.984,255.362 755.296,238.237 754.937,240.053 811.278,257.07 "
         id="polygon5103" />
      <polygon
         points="863.197,284.743 864.222,283.205 811.984,255.362 811.278,257.07 863.197,284.743 "
         id="polygon5105" />
      <polygon
         points="908.71,322 910.014,320.692 864.222,283.205 863.197,284.743 908.71,322 "
         id="polygon5107" />
      <polygon
         points="946.075,367.404 947.608,366.376 910.014,320.692 908.71,322 946.075,367.404 "
         id="polygon5109" />
      <polygon
         points="973.863,419.208 975.567,418.498 947.608,366.376 946.075,367.404 973.863,419.208 "
         id="polygon5111" />
      <polygon
         points="991.018,475.413 992.827,475.049 975.567,418.498 973.863,419.208 991.018,475.413 "
         id="polygon5113" />
      <polygon
         points="996.899,533.857 998.743,533.852 992.827,475.049 991.018,475.413 996.899,533.857 "
         id="polygon5115" />
      <polygon
         points="991.309,592.297 993.117,592.65 998.743,533.852 996.899,533.857 991.309,592.297 "
         id="polygon5117" />
      <polygon
         points="974.502,648.511 976.208,649.206 993.117,592.65 991.309,592.297 974.502,648.511 "
         id="polygon5119" />
      <polygon
         points="947.156,700.394 948.697,701.404 976.208,649.206 974.502,648.511 947.156,700.394 "
         id="polygon5121" />
      <polygon
         points="947.156,700.394 910.293,746.029 911.617,747.324 948.697,701.404 947.156,700.394 "
         id="polygon5123" />
      <polygon
         points="866.317,785.344 868.689,788.829 914.617,750.262 911.617,747.324 866.317,785.344 "
         id="polygon5125" />
      <polygon
         points="814.137,814.077 815.797,817.963 868.689,788.829 866.317,785.344 814.137,814.077 "
         id="polygon5127" />
      <polygon
         points="757.12,831.939 757.978,836.096 815.797,817.963 814.137,814.077 757.12,831.939 "
         id="polygon5129" />
      <polygon
         points="697.551,838.11 697.561,842.366 757.978,836.096 757.12,831.939 697.551,838.11 "
         id="polygon5131" />
      <polygon
         points="637.939,832.217 637.098,836.378 697.561,842.366 697.551,838.11 637.939,832.217 "
         id="polygon5133" />
      <polygon
         points="580.782,814.584 579.141,818.482 637.098,836.378 637.939,832.217 580.782,814.584 "
         id="polygon5135" />
      <polygon
         points="528.456,786.088 526.1,789.583 579.141,818.482 580.782,814.584 528.456,786.088 "
         id="polygon5137" />
      <polygon
         points="482.999,748.252 480.012,751.201 526.1,789.583 528.456,786.088 482.999,748.252 "
         id="polygon5139" />
      <polygon
         points="445.761,702.467 442.268,704.781 480.012,751.201 482.999,748.252 445.761,702.467 "
         id="polygon5141" />
      <polygon
         points="418.003,650.388 414.135,651.986 442.268,704.781 445.761,702.467 418.003,650.388 "
         id="polygon5143" />
      <polygon
         points="400.858,593.891 396.749,594.711 414.135,651.986 418.003,650.388 400.858,593.891 "
         id="polygon5145" />
      <polygon
         points="394.997,535.102 390.805,535.108 396.749,594.711 400.858,593.891 394.997,535.102 "
         id="polygon5147" />
      <polygon
         points="400.685,476.262 396.569,475.451 390.805,535.108 394.997,535.102 400.685,476.262 "
         id="polygon5149" />
      <polygon
         points="417.734,419.628 413.854,418.031 396.569,475.451 400.685,476.262 417.734,419.628 "
         id="polygon5151" />
      <polygon
         points="445.51,367.387 442.015,365.063 413.854,418.031 417.734,419.628 445.51,367.387 "
         id="polygon5153" />
      <polygon
         points="482.954,321.553 479.976,318.591 442.015,365.063 445.51,367.387 482.954,321.553 "
         id="polygon5155" />
      <polygon
         points="528.607,283.867 526.264,280.381 479.976,318.591 482.954,321.553 528.607,283.867 "
         id="polygon5157" />
      <polygon
         points="580.748,255.806 579.129,251.929 526.264,280.381 528.607,283.867 580.748,255.806 "
         id="polygon5159" />
      <polygon
         points="637.379,238.459 636.548,234.337 579.129,251.929 580.748,255.806 637.379,238.459 "
         id="polygon5161" />
      <polygon
         points="696.33,232.505 696.322,228.294 636.548,234.337 637.379,238.459 696.33,232.505 "
         id="polygon5163" />
      <polygon
         points="755.296,238.237 756.112,234.113 696.322,228.294 696.33,232.505 755.296,238.237 "
         id="polygon5165" />
      <polygon
         points="811.984,255.362 813.587,251.479 756.112,234.113 755.296,238.237 811.984,255.362 "
         id="polygon5167" />
      <polygon
         points="864.222,283.205 866.551,279.711 813.587,251.479 811.984,255.362 864.222,283.205 "
         id="polygon5169" />
      <polygon
         points="910.014,320.692 912.979,317.72 866.551,279.711 864.222,283.205 910.014,320.692 "
         id="polygon5171" />
      <polygon
         points="947.608,366.376 951.095,364.04 912.979,317.72 910.014,320.692 947.608,366.376 "
         id="polygon5173" />
      <polygon
         points="975.567,418.498 979.441,416.887 951.095,364.04 947.608,366.376 975.567,418.498 "
         id="polygon5175" />
      <polygon
         points="992.827,475.049 996.938,474.223 979.441,416.887 975.567,418.498 992.827,475.049 "
         id="polygon5177" />
      <polygon
         points="998.743,533.852 1002.934,533.842 996.938,474.223 992.827,475.049 998.743,533.852 "
         id="polygon5179" />
      <polygon
         points="993.117,592.65 997.228,593.452 1002.934,533.842 998.743,533.852 993.117,592.65 "
         id="polygon5181" />
      <polygon
         points="976.208,649.206 980.084,650.788 997.228,593.452 993.117,592.65 976.208,649.206 "
         id="polygon5183" />
      <polygon
         points="948.697,701.404 952.195,703.703 980.084,650.788 976.208,649.206 948.697,701.404 "
         id="polygon5185" />
      <polygon
         points="948.697,701.404 911.617,747.324 914.617,750.262 952.195,703.703 948.697,701.404 "
         id="polygon5187" />
      <polygon
         points="868.689,788.829 879.63,804.777 928.367,763.73 914.617,750.262 868.689,788.829 "
         id="polygon5189" />
      <polygon
         points="815.797,817.963 823.444,835.836 879.63,804.777 868.689,788.829 815.797,817.963 "
         id="polygon5191" />
      <polygon
         points="757.978,836.096 761.93,855.2 823.444,835.836 815.797,817.963 757.978,836.096 "
         id="polygon5193" />
      <polygon
         points="697.561,842.366 697.608,861.911 761.93,855.2 757.978,836.096 697.561,842.366 "
         id="polygon5195" />
      <polygon
         points="637.098,836.378 633.231,855.512 697.608,861.911 697.561,842.366 637.098,836.378 "
         id="polygon5197" />
      <polygon
         points="579.141,818.482 571.57,836.402 633.231,855.512 637.098,836.378 579.141,818.482 "
         id="polygon5199" />
      <polygon
         points="526.1,789.583 515.225,805.579 571.57,836.402 579.141,818.482 526.1,789.583 "
         id="polygon5201" />
      <polygon
         points="480.012,751.201 466.317,764.723 515.225,805.579 526.1,789.583 480.012,751.201 "
         id="polygon5203" />
      <polygon
         points="442.268,704.781 426.256,715.408 466.317,764.723 480.012,751.201 442.268,704.781 "
         id="polygon5205" />
      <polygon
         points="414.135,651.986 396.373,659.332 426.256,715.408 442.268,704.781 414.135,651.986 "
         id="polygon5207" />
      <polygon
         points="396.749,594.711 377.885,598.479 396.373,659.332 414.135,651.986 396.749,594.711 "
         id="polygon5209" />
      <polygon
         points="390.805,535.108 371.554,535.14 377.885,598.479 396.749,594.711 390.805,535.108 "
         id="polygon5211" />
      <polygon
         points="396.569,475.451 377.669,471.733 371.554,535.14 390.805,535.108 396.569,475.451 "
         id="polygon5213" />
      <polygon
         points="413.854,418.031 396.033,410.696 377.669,471.733 396.569,475.451 413.854,418.031 "
         id="polygon5215" />
      <polygon
         points="442.015,365.063 425.961,354.39 396.033,410.696 413.854,418.031 442.015,365.063 "
         id="polygon5217" />
      <polygon
         points="479.976,318.591 466.304,304.991 425.961,354.39 442.015,365.063 479.976,318.591 "
         id="polygon5219" />
      <polygon
         points="526.264,280.381 515.502,264.375 466.304,304.991 479.976,318.591 526.264,280.381 "
         id="polygon5221" />
      <polygon
         points="579.129,251.929 571.694,234.124 515.502,264.375 526.264,280.381 579.129,251.929 "
         id="polygon5223" />
      <polygon
         points="636.548,234.337 632.73,215.414 571.694,234.124 579.129,251.929 636.548,234.337 "
         id="polygon5225" />
      <polygon
         points="696.322,228.294 696.287,208.978 632.73,215.414 636.548,234.337 696.322,228.294 "
         id="polygon5227" />
      <polygon
         points="756.112,234.113 759.858,215.18 696.287,208.978 696.322,228.294 756.112,234.113 "
         id="polygon5229" />
      <polygon
         points="813.587,251.479 820.951,233.65 759.858,215.18 756.112,234.113 813.587,251.479 "
         id="polygon5231" />
      <polygon
         points="866.551,279.711 877.246,263.666 820.951,233.65 813.587,251.479 866.551,279.711 "
         id="polygon5233" />
      <polygon
         points="912.979,317.72 926.594,304.072 877.246,263.666 866.551,279.711 912.979,317.72 "
         id="polygon5235" />
      <polygon
         points="951.095,364.04 967.104,353.312 926.594,304.072 912.979,317.72 951.095,364.04 "
         id="polygon5237" />
      <polygon
         points="979.441,416.887 997.228,409.487 967.104,353.312 951.095,364.04 979.441,416.887 "
         id="polygon5239" />
      <polygon
         points="996.938,474.223 1015.818,470.432 997.228,409.487 979.441,416.887 996.938,474.223 "
         id="polygon5241" />
      <polygon
         points="1002.934,533.842 1022.179,533.797 1015.818,470.432 996.938,474.223 1002.934,533.842 "
         id="polygon5243" />
      <polygon
         points="997.228,593.452 1016.103,597.143 1022.179,533.797 1002.934,533.842 997.228,593.452 "
         id="polygon5245" />
      <polygon
         points="980.084,650.788 997.876,658.056 1016.103,597.143 997.228,593.452 980.084,650.788 "
         id="polygon5247" />
      <polygon
         points="952.195,703.703 968.25,714.262 997.876,658.056 980.084,650.788 952.195,703.703 "
         id="polygon5249" />
      <polygon
         points="952.195,703.703 914.617,750.262 928.367,763.73 968.25,714.262 952.195,703.703 "
         id="polygon5251" />
      <polygon
         points="191.999,953.243 191.995,1023.979 255.993,1023.983 255.997,953.246 191.999,953.243 "
         id="polygon5253" />
      <polygon
         points="128,953.24 127.997,1023.976 191.995,1023.979 191.999,953.243 128,953.24 "
         id="polygon5255" />
      <polygon
         points="64.002,953.237 63.998,1023.973 127.997,1023.976 128,953.24 64.002,953.237 "
         id="polygon5257" />
      <polygon
         points="0.003,953.234 0,1023.97 63.998,1023.973 64.002,953.237 0.003,953.234 "
         id="polygon5259" />
      <polygon
         points="959.99,882.498 959.99,953.234 1023.987,953.234 1023.987,882.499 959.99,882.498 "
         id="polygon5261" />
      <polygon
         points="895.992,882.498 895.992,953.234 959.99,953.234 959.99,882.498 895.992,882.498 "
         id="polygon5263" />
      <polygon
         points="831.995,882.498 831.995,953.234 895.992,953.234 895.992,882.498 831.995,882.498 "
         id="polygon5265" />
      <polygon
         points="767.997,882.498 767.997,953.234 831.995,953.234 831.995,882.498 767.997,882.498 "
         id="polygon5267" />
      <polygon
         points="704,882.498 703.999,953.234 767.997,953.234 767.997,882.498 704,882.498 "
         id="polygon5269" />
      <polygon
         points="640.002,882.498 640.001,953.234 703.999,953.234 704,882.498 640.002,882.498 "
         id="polygon5271" />
      <polygon
         points="576.004,882.497 576.003,953.234 640.001,953.234 640.002,882.498 576.004,882.497 "
         id="polygon5273" />
      <polygon
         points="512.005,882.497 512.005,953.234 576.003,953.234 576.004,882.497 512.005,882.497 "
         id="polygon5275" />
      <polygon
         points="448.006,882.496 448.005,953.234 512.005,953.234 512.005,882.497 448.006,882.496 "
         id="polygon5277" />
      <polygon
         points="384.006,882.495 384.005,953.234 448.005,953.234 448.006,882.496 384.006,882.495 "
         id="polygon5279" />
      <polygon
         points="320.005,882.495 320.005,953.234 384.005,953.234 384.006,882.495 320.005,882.495 "
         id="polygon5281" />
      <polygon
         points="256.004,882.495 256.004,953.234 320.005,953.234 320.005,882.495 256.004,882.495 "
         id="polygon5283" />
      <polygon
         points="192.003,882.495 192.004,953.234 256.004,953.234 256.004,882.495 192.003,882.495 "
         id="polygon5285" />
      <polygon
         points="128.002,882.494 128.002,953.234 192.004,953.234 192.003,882.495 128.002,882.494 "
         id="polygon5287" />
      <polygon
         points="64.001,882.494 64.001,953.234 128.002,953.234 128.002,882.494 64.001,882.494 "
         id="polygon5289" />
      <polygon
         points="0,882.494 0,953.234 64.001,953.234 64.001,882.494 0,882.494 "
         id="polygon5291" />
      <polygon
         points="959.999,953.259 959.997,1023.999 1023.999,1024 1024,953.261 959.999,953.259 "
         id="polygon5293" />
      <polygon
         points="895.997,953.258 895.996,1023.998 959.997,1023.999 959.999,953.259 895.997,953.258 "
         id="polygon5295" />
      <polygon
         points="831.996,953.257 831.995,1023.997 895.996,1023.998 895.997,953.258 831.996,953.257 "
         id="polygon5297" />
      <polygon
         points="767.994,953.256 767.993,1023.996 831.995,1023.997 831.996,953.257 767.994,953.256 "
         id="polygon5299" />
      <polygon
         points="703.992,953.255 703.991,1023.995 767.993,1023.996 767.994,953.256 703.992,953.255 "
         id="polygon5301" />
      <polygon
         points="639.99,953.254 639.989,1023.993 703.991,1023.995 703.992,953.255 639.99,953.254 "
         id="polygon5303" />
      <polygon
         points="575.989,953.254 575.988,1023.992 639.989,1023.993 639.99,953.254 575.989,953.254 "
         id="polygon5305" />
      <polygon
         points="511.989,953.254 511.989,1023.991 575.988,1023.992 575.989,953.254 511.989,953.254 "
         id="polygon5307" />
      <polygon
         points="447.991,953.253 447.989,1023.99 511.989,1023.991 511.989,953.254 447.991,953.253 "
         id="polygon5309" />
      <polygon
         points="383.993,953.252 383.99,1023.988 447.989,1023.99 447.991,953.253 383.993,953.252 "
         id="polygon5311" />
      <polygon
         points="319.994,953.249 319.991,1023.986 383.99,1023.988 383.993,953.252 319.994,953.249 "
         id="polygon5313" />
      <polygon
         points="319.994,953.249 255.997,953.246 255.993,1023.983 319.991,1023.986 319.994,953.249 "
         id="polygon5315" />
      <polygon
         points="895.082,731.101 853.227,766.115 862.685,779.989 907.012,742.813 895.082,731.101 "
         id="polygon5317" />
      <polygon
         points="853.227,766.115 804.989,792.625 811.594,808.121 862.685,779.989 853.227,766.115 "
         id="polygon5319" />
      <polygon
         points="804.989,792.625 752.403,809.015 755.805,825.563 811.594,808.121 804.989,792.625 "
         id="polygon5321" />
      <polygon
         points="752.403,809.015 697.495,814.665 697.535,831.581 755.805,825.563 752.403,809.015 "
         id="polygon5323" />
      <polygon
         points="697.495,814.665 642.564,809.264 639.229,825.834 697.535,831.581 697.495,814.665 "
         id="polygon5325" />
      <polygon
         points="642.564,809.264 589.832,793.067 583.297,808.608 639.229,825.834 642.564,809.264 "
         id="polygon5327" />
      <polygon
         points="589.832,793.067 541.458,766.805 532.064,780.718 583.297,808.608 589.832,793.067 "
         id="polygon5329" />
      <polygon
         points="541.458,766.805 499.467,731.97 487.585,743.724 532.064,780.718 541.458,766.805 "
         id="polygon5331" />
      <polygon
         points="499.467,731.97 465.035,689.678 451.123,698.915 487.585,743.724 499.467,731.97 "
         id="polygon5333" />
      <polygon
         points="465.035,689.678 439.363,641.56 423.939,647.937 451.123,698.915 465.035,689.678 "
         id="polygon5335" />
      <polygon
         points="439.363,641.56 423.54,589.368 407.162,592.634 423.939,647.937 439.363,641.56 "
         id="polygon5337" />
      <polygon
         points="423.54,589.368 418.139,535.071 401.43,535.093 407.162,592.634 423.54,589.368 "
         id="polygon5339" />
      <polygon
         points="418.139,535.071 423.4,480.736 406.999,477.505 401.43,535.093 418.139,535.071 "
         id="polygon5341" />
      <polygon
         points="423.4,480.736 439.15,428.447 423.687,422.079 406.999,477.505 423.4,480.736 "
         id="polygon5343" />
      <polygon
         points="439.15,428.447 464.802,380.216 450.873,370.952 423.687,422.079 439.15,428.447 "
         id="polygon5345" />
      <polygon
         points="464.802,380.216 499.388,337.903 487.524,326.099 450.873,370.952 464.802,380.216 "
         id="polygon5347" />
      <polygon
         points="499.388,337.903 541.539,303.103 532.202,289.213 487.524,326.099 499.388,337.903 "
         id="polygon5349" />
      <polygon
         points="541.539,303.103 589.68,277.203 583.232,261.754 532.202,289.213 541.539,303.103 "
         id="polygon5351" />
      <polygon
         points="589.68,277.203 641.962,261.2 638.655,244.784 583.232,261.754 589.68,277.203 "
         id="polygon5353" />
      <polygon
         points="641.962,261.2 696.373,255.722 696.342,238.969 638.655,244.784 641.962,261.2 "
         id="polygon5355" />
      <polygon
         points="696.373,255.722 750.802,260.993 754.046,244.566 696.342,238.969 696.373,255.722 "
         id="polygon5357" />
      <polygon
         points="750.802,260.993 803.138,276.791 809.523,261.319 754.046,244.566 750.802,260.993 "
         id="polygon5359" />
      <polygon
         points="803.138,276.791 851.371,302.49 860.649,288.566 809.523,261.319 803.138,276.791 "
         id="polygon5361" />
      <polygon
         points="851.371,302.49 893.654,337.096 905.466,325.252 860.649,288.566 851.371,302.49 "
         id="polygon5363" />
      <polygon
         points="893.654,337.096 928.369,379.273 942.26,369.961 905.466,325.252 893.654,337.096 "
         id="polygon5365" />
      <polygon
         points="928.369,379.273 954.19,427.395 969.625,420.971 942.26,369.961 928.369,379.273 "
         id="polygon5367" />
      <polygon
         points="954.19,427.395 970.135,479.61 986.519,476.317 969.625,420.971 954.19,427.395 "
         id="polygon5369" />
      <polygon
         points="970.135,479.61 975.608,533.911 992.313,533.868 986.519,476.317 970.135,479.61 "
         id="polygon5371" />
      <polygon
         points="975.608,533.911 970.423,588.219 986.81,591.418 992.313,533.868 975.608,533.911 "
         id="polygon5373" />
      <polygon
         points="970.423,588.219 954.807,640.469 970.26,646.779 986.81,591.418 970.423,588.219 "
         id="polygon5375" />
      <polygon
         points="954.807,640.469 929.386,688.7 943.328,697.877 970.26,646.779 954.807,640.469 "
         id="polygon5377" />
      <polygon
         points="895.082,731.101 907.012,742.813 943.328,697.877 929.386,688.7 895.082,731.101 "
         id="polygon5379" />
      <polygon
         points="865.279,783.803 862.685,779.989 811.594,808.121 813.408,812.372 865.279,783.803 "
         id="polygon5381" />
      <polygon
         points="865.279,783.803 910.293,746.029 907.012,742.813 862.685,779.989 865.279,783.803 "
         id="polygon5383" />
      <polygon
         points="910.293,746.029 947.156,700.394 943.328,697.877 907.012,742.813 910.293,746.029 "
         id="polygon5385" />
      <polygon
         points="974.502,648.511 970.26,646.779 943.328,697.877 947.156,700.394 974.502,648.511 "
         id="polygon5387" />
      <polygon
         points="991.309,592.297 986.81,591.418 970.26,646.779 974.502,648.511 991.309,592.297 "
         id="polygon5389" />
      <polygon
         points="996.899,533.857 992.313,533.868 986.81,591.418 991.309,592.297 996.899,533.857 "
         id="polygon5391" />
      <polygon
         points="991.018,475.413 986.519,476.317 992.313,533.868 996.899,533.857 991.018,475.413 "
         id="polygon5393" />
      <polygon
         points="811.278,257.07 809.523,261.319 860.649,288.566 863.197,284.743 811.278,257.07 "
         id="polygon5395" />
      <polygon
         points="863.197,284.743 860.649,288.566 905.466,325.252 908.71,322 863.197,284.743 "
         id="polygon5397" />
      <polygon
         points="908.71,322 905.466,325.252 942.26,369.961 946.075,367.404 908.71,322 "
         id="polygon5399" />
      <polygon
         points="946.075,367.404 942.26,369.961 969.625,420.971 973.863,419.208 946.075,367.404 "
         id="polygon5401" />
      <polygon
         points="973.863,419.208 969.625,420.971 986.519,476.317 991.018,475.413 973.863,419.208 "
         id="polygon5403" />
      <polygon
         points="754.937,240.053 754.046,244.566 809.523,261.319 811.278,257.07 754.937,240.053 "
         id="polygon5405" />
      <polygon
         points="484.265,322.857 487.524,326.099 532.202,289.213 529.638,285.4 484.265,322.857 "
         id="polygon5407" />
      <polygon
         points="529.638,285.4 532.202,289.213 583.232,261.754 581.461,257.512 529.638,285.4 "
         id="polygon5409" />
      <polygon
         points="581.461,257.512 583.232,261.754 638.655,244.784 637.746,240.274 581.461,257.512 "
         id="polygon5411" />
      <polygon
         points="637.746,240.274 638.655,244.784 696.342,238.969 696.333,234.363 637.746,240.274 "
         id="polygon5413" />
      <polygon
         points="696.333,234.363 696.342,238.969 754.046,244.566 754.937,240.053 696.333,234.363 "
         id="polygon5415" />
      <polygon
         points="447.048,368.409 450.873,370.952 487.524,326.099 484.265,322.857 447.048,368.409 "
         id="polygon5417" />
      <polygon
         points="419.441,420.331 423.687,422.079 450.873,370.952 447.048,368.409 419.441,420.331 "
         id="polygon5419" />
      <polygon
         points="402.496,476.618 406.999,477.505 423.687,422.079 419.441,420.331 402.496,476.618 "
         id="polygon5421" />
      <polygon
         points="396.842,535.1 401.43,535.093 406.999,477.505 402.496,476.618 396.842,535.1 "
         id="polygon5423" />
      <polygon
         points="402.666,593.531 407.162,592.634 401.43,535.093 396.842,535.1 402.666,593.531 "
         id="polygon5425" />
      <polygon
         points="419.705,649.686 423.939,647.937 407.162,592.634 402.666,593.531 419.705,649.686 "
         id="polygon5427" />
      <polygon
         points="813.408,812.372 811.594,808.121 755.805,825.563 756.742,830.11 813.408,812.372 "
         id="polygon5429" />
      <polygon
         points="756.742,830.11 755.805,825.563 697.535,831.581 697.546,836.235 756.742,830.11 "
         id="polygon5431" />
      <polygon
         points="697.546,836.235 697.535,831.581 639.229,825.834 638.31,830.387 697.546,836.235 "
         id="polygon5433" />
      <polygon
         points="638.31,830.387 639.229,825.834 583.297,808.608 581.502,812.873 638.31,830.387 "
         id="polygon5435" />
      <polygon
         points="581.502,812.873 583.297,808.608 532.064,780.718 529.487,784.544 581.502,812.873 "
         id="polygon5437" />
      <polygon
         points="529.487,784.544 532.064,780.718 487.585,743.724 484.317,746.952 529.487,784.544 "
         id="polygon5439" />
      <polygon
         points="484.317,746.952 487.585,743.724 451.123,698.915 447.301,701.449 484.317,746.952 "
         id="polygon5441" />
      <polygon
         points="447.301,701.449 451.123,698.915 423.939,647.937 419.705,649.686 447.301,701.449 "
         id="polygon5443" />
      <polygon
         points="676.923,794.196 642.564,809.264 697.495,814.665 676.923,794.196 "
         id="polygon5445" />
      <polygon
         points="652.501,789.52 642.564,809.264 676.923,794.196 652.501,789.52 "
         id="polygon5447" />
      <polygon
         points="631.806,785.391 642.564,809.264 652.501,789.52 631.806,785.391 "
         id="polygon5449" />
      <polygon
         points="631.806,785.391 589.832,793.067 642.564,809.264 631.806,785.391 "
         id="polygon5451" />
      <polygon
         points="587.853,770.858 589.832,793.067 631.806,785.391 587.853,770.858 "
         id="polygon5453" />
      <polygon
         points="587.853,770.858 541.458,766.805 589.832,793.067 587.853,770.858 "
         id="polygon5455" />
      <polygon
         points="586.386,766.563 541.458,766.805 587.853,770.858 586.386,766.563 "
         id="polygon5457" />
      <polygon
         points="586.254,760.132 541.458,766.805 586.386,766.563 586.254,760.132 "
         id="polygon5459" />
      <polygon
         points="586.254,760.132 586.804,759.178 541.458,766.805 586.254,760.132 "
         id="polygon5461" />
      <polygon
         points="586.804,759.178 587.419,758.105 541.458,766.805 586.804,759.178 "
         id="polygon5463" />
      <polygon
         points="587.419,758.105 583.624,704.92 541.458,766.805 587.419,758.105 "
         id="polygon5465" />
      <polygon
         points="591.499,751.036 583.624,704.92 587.419,758.105 591.499,751.036 "
         id="polygon5467" />
      <polygon
         points="591.499,751.036 597.626,746.941 583.624,704.92 591.499,751.036 "
         id="polygon5469" />
      <polygon
         points="597.626,746.941 602.156,745.858 583.624,704.92 597.626,746.941 "
         id="polygon5471" />
      <polygon
         points="602.156,745.858 618.916,723.883 583.624,704.92 602.156,745.858 "
         id="polygon5473" />
      <polygon
         points="602.156,745.858 619.576,752.752 618.916,723.883 602.156,745.858 "
         id="polygon5475" />
      <polygon
         points="619.576,752.752 639.557,757.632 618.916,723.883 619.576,752.752 "
         id="polygon5477" />
      <polygon
         points="639.557,757.632 657.327,735.534 618.916,723.883 639.557,757.632 "
         id="polygon5479" />
      <polygon
         points="639.557,757.632 658.682,761.357 657.327,735.534 639.557,757.632 "
         id="polygon5481" />
      <polygon
         points="658.682,761.357 679.229,763.319 657.327,735.534 658.682,761.357 "
         id="polygon5483" />
      <polygon
         points="679.229,763.319 697.311,739.414 657.327,735.534 679.229,763.319 "
         id="polygon5485" />
      <polygon
         points="676.923,794.196 697.495,814.665 697.439,794.01 676.923,794.196 "
         id="polygon5487" />
      <polygon
         points="679.229,763.319 697.361,763.045 697.311,739.414 679.229,763.319 "
         id="polygon5489" />
    </g>
    <path
       style="opacity:1;fill:#ffffff;fill-opacity:1;fill-rule:nonzero;stroke:#ffffff;stroke-width:0.39012787;stroke-miterlimit:4;stroke-dasharray:none;stroke-opacity:1"
       d="M 421.69926,563.66879 C 420.3464,549.99829 419.14604,538.1787 419.03178,537.40303 L 418.82406,535.99271 L 455.36431,535.70184 C 475.46147,535.54185 491.97194,535.47831 492.05425,535.56062 C 492.13657,535.64294 493.06098,544.30856 494.1085,554.81757 C 495.81205,571.90795 495.94837,573.95484 495.39995,574.20892 C 495.06271,574.36515 479.24996,577.5689 460.26049,581.32835 C 441.27101,585.08782 425.37976,588.24484 424.94659,588.34398 C 424.18219,588.51892 424.08661,587.79263 421.69926,563.66879 L 421.69926,563.66879 z"
       id="path7063" />
    <path
       style="opacity:1;fill:#ffffff;fill-opacity:1;fill-rule:nonzero;stroke:#ffffff;stroke-width:0.39012787;stroke-miterlimit:4;stroke-dasharray:none;stroke-opacity:1"
       d="M 432.10885,615.18087 L 424.4487,589.92009 L 459.81283,582.81931 C 479.26308,578.91388 495.44027,575.71222 495.76212,575.70451 C 496.19817,575.69406 497.73262,580.28783 501.78278,593.72888 C 504.77228,603.64997 507.28163,611.95772 507.35912,612.1905 C 507.46818,612.51815 440.85867,640.44213 439.96894,640.44174 C 439.85896,640.44169 436.32192,629.0743 432.10884,615.18087 L 432.10885,615.18087 z"
       id="path7065" />
    <path
       style="opacity:1;fill:#ffffff;fill-opacity:1;fill-rule:nonzero;stroke:#ffffff;stroke-width:0.39012787;stroke-miterlimit:4;stroke-dasharray:none;stroke-opacity:1"
       d="M 432.20733,615.571 C 428.05234,601.89214 424.5885,590.52366 424.50992,590.3077 C 424.37488,589.93662 496.02505,575.37336 496.28109,575.71986 C 496.52696,576.05257 507.4941,612.45435 507.38219,612.56625 C 507.31688,612.63158 494.36163,618.03262 478.59276,624.56858 C 440.60779,640.31276 440.29451,640.44165 440.00897,640.44165 C 439.87306,640.44165 436.36233,629.24986 432.20733,615.571 L 432.20733,615.571 z"
       id="path7067" />
    <path
       style="opacity:1;fill:#000000;fill-opacity:1;fill-rule:nonzero;stroke:#ffffff;stroke-width:0.39012787;stroke-miterlimit:4;stroke-dasharray:none;stroke-opacity:1"
       d="M 567.86925,691.03215 L 553.17293,678.86925 L 540.36524,663.17696 L 527.55755,647.4847 L 518.3051,630.11729 L 509.05266,612.74986 L 503.22282,593.53242 L 497.393,574.31498 L 495.45476,554.61074 L 493.51651,534.90649 L 495.42945,515.20782 L 497.34237,495.50915 L 503.02173,476.58795 L 508.70106,457.66674 L 518.10704,439.91592 L 527.51299,422.16511 L 540.29018,406.55999 L 553.06735,390.95488 L 563.82761,382.07947 L 574.58784,373.20406 L 658.06527,373.20406 L 741.54269,373.20406 L 741.54269,538.22815 L 741.54269,703.25224 L 662.05413,703.22365 L 582.56558,703.19505 L 567.86925,691.03215 z"
       id="path7069" />
    <path
       style="opacity:1;fill:#000000;fill-opacity:1;fill-rule:nonzero;stroke:#ffffff;stroke-width:1.10344827;stroke-miterlimit:4;stroke-dasharray:none;stroke-opacity:1"
       d="M 483.24922,710.19753 C 474.28869,699.16555 467.36817,689.76505 467.8703,689.30748 C 471.81281,685.71478 526.10344,650.63887 527.11868,651.02846 C 527.83555,651.30352 533.45992,657.71399 539.61724,665.27388 L 550.81233,679.01912 L 525.17676,704.63738 L 499.54112,730.25559 L 483.24922,710.19753 z"
       id="path7071" />
    <path
       style="opacity:1;fill:#000000;fill-opacity:1;fill-rule:nonzero;stroke:#000000;stroke-width:1.10344827;stroke-miterlimit:4;stroke-dasharray:none;stroke-opacity:1"
       d="M 453.19406,664.97177 L 441.01114,642.09664 L 459.8627,634.32388 C 470.23107,630.04888 485.2797,623.83418 493.30411,620.51345 L 507.89395,614.47575 L 516.79098,631.10775 C 521.68432,640.2554 525.2982,648.09122 524.82181,648.52071 C 523.70949,649.52351 494.64114,668.85311 478.11462,679.57958 L 465.37705,687.84684 L 453.19406,664.97177 z"
       id="path7073" />
    <path
       style="opacity:1;fill:#000000;fill-opacity:1;fill-rule:nonzero;stroke:#000000;stroke-width:1.10344827;stroke-miterlimit:4;stroke-dasharray:none;stroke-opacity:1"
       d="M 492.25926,719.383 C 482.92224,708.08205 473.59681,696.10326 471.22227,692.36043 L 469.30937,689.34522 L 488.35664,676.82071 C 498.83266,669.93223 511.81096,661.61563 517.19736,658.3394 L 526.9908,652.38261 L 529.88702,655.76764 C 542.38114,670.37056 548.78323,678.29035 548.78323,679.14342 C 548.78323,679.69494 537.65646,690.90031 524.05707,704.04421 L 499.33092,727.94221 L 492.25926,719.383 z"
       id="path7075" />
    <path
       style="opacity:1;fill:#000000;fill-opacity:1;fill-rule:nonzero;stroke:#000000;stroke-width:1.10344827;stroke-miterlimit:4;stroke-dasharray:none;stroke-opacity:1"
       d="M 432.48353,615.26117 C 428.39952,601.84651 425.26049,590.66847 425.50787,590.42108 C 426.41103,589.51793 495.88798,575.97746 496.26123,576.63184 C 497.10721,578.11504 507.00884,612.27019 506.66714,612.52646 C 506.46548,612.67771 501.33496,614.8479 495.26599,617.34911 C 489.19703,619.85028 474.59975,625.89156 462.8276,630.77411 C 451.05545,635.65665 441.08289,639.65146 440.66632,639.65146 C 440.24976,639.65146 436.56749,628.67583 432.4835,615.26116 L 432.48353,615.26117 z"
       id="path7077" />
    <path
       style="opacity:1;fill:#000000;fill-opacity:1;fill-rule:nonzero;stroke:#000000;stroke-width:1.10344827;stroke-miterlimit:4;stroke-dasharray:none;stroke-opacity:1"
       d="M 424.08624,585.85836 C 424.08224,584.79629 423.09874,574.24457 421.90073,562.41008 C 420.70267,550.5756 419.7129,539.7756 419.70115,538.41008 L 419.67979,535.92732 L 455.90196,535.92732 L 492.12422,535.92732 L 493.69339,553.30663 C 494.55642,562.86526 495.26332,571.40728 495.26427,572.28891 C 495.26562,573.50805 487.07515,575.54298 461.0591,580.78725 C 442.2453,584.57972 426.23151,587.70665 425.47289,587.73601 C 424.71427,587.76536 424.09028,586.92043 424.08626,585.85836 L 424.08624,585.85836 z"
       id="path7079" />
    <path
       style="opacity:1;fill:#000000;fill-opacity:1;fill-rule:nonzero;stroke:#000000;stroke-width:1.10344827;stroke-miterlimit:4;stroke-dasharray:none;stroke-opacity:1"
       d="M 520.84237,748.14742 L 501.19325,731.9484 L 526.85975,706.26447 L 552.52623,680.58061 L 558.103,685.28374 C 561.17024,687.87047 567.77634,693.38891 572.78323,697.54692 C 577.79013,701.70492 581.88668,705.18031 581.88668,705.26999 C 581.88668,705.95118 541.9091,763.85161 541.28942,764.0679 C 540.85054,764.22111 531.6494,757.05687 520.84238,748.14742 L 520.84237,748.14742 z"
       id="path7081" />
    <path
       style="opacity:1;fill:#000000;fill-opacity:1;fill-rule:nonzero;stroke:#000000;stroke-width:1.10344827;stroke-miterlimit:4;stroke-dasharray:none;stroke-opacity:1"
       d="M 461.95969,680.57798 C 460.02745,676.57876 454.72474,666.3326 450.17588,657.80878 L 441.90528,642.31095 L 473.90662,629.11914 C 491.50732,621.86363 506.31486,615.77974 506.81227,615.59935 C 507.7095,615.27396 519.41228,636.46093 522.65189,644.2758 L 524.34014,648.34839 L 495.45828,667.3585 C 479.5732,677.81399 466.32806,686.7017 466.02461,687.10894 C 465.72116,687.51616 463.89196,684.57726 461.95971,680.57801 L 461.95969,680.57798 z"
       id="path7083" />
    <path
       style="opacity:1;fill:#000000;fill-opacity:1;fill-rule:nonzero;stroke:#000000;stroke-width:1.10344827;stroke-miterlimit:4;stroke-dasharray:none;stroke-opacity:1"
       d="M 545.47289,763.71134 C 545.47289,762.7858 582.10884,709.02245 582.48236,709.39988 C 582.90516,709.82716 586.40542,756.89566 586.03645,757.19285 C 585.57924,757.56116 548.38202,764.35163 546.8522,764.34611 C 546.09358,764.34336 545.47289,764.05772 545.47289,763.71135 L 545.47289,763.71134 z"
       id="path7085" />
    <path
       style="opacity:1;fill:#000000;fill-opacity:1;fill-rule:nonzero;stroke:#000000;stroke-width:1.10344827;stroke-miterlimit:4;stroke-dasharray:none;stroke-opacity:1"
       d="M 931.97241,579.66018 L 898.31724,572.89284 L 900.14712,554.68594 C 901.15352,544.67215 902.02249,536.10663 902.07814,535.65146 C 902.13376,535.19629 918.31724,534.82388 938.04138,534.82388 L 973.90345,534.82388 L 973.89961,537.85836 C 973.89542,541.21645 970.99706,573.18738 969.94829,581.44457 C 969.44602,585.39886 968.83381,586.65422 967.45507,586.55674 C 966.44992,586.48569 950.48276,583.38223 931.97241,579.66019 L 931.97241,579.66018 z"
       id="path7087" />
    <path
       style="opacity:1;fill:#000000;fill-opacity:1;fill-rule:nonzero;stroke:#000000;stroke-width:1.10344827;stroke-miterlimit:4;stroke-dasharray:none;stroke-opacity:1"
       d="M 920.38621,625.23268 C 902.78621,617.99715 888.06748,611.95035 887.6779,611.79535 C 886.9456,611.50401 896.99775,577.15487 898.15359,575.99902 C 898.84419,575.30843 967.11329,588.35556 968.13021,589.37247 C 968.9766,590.21888 954.56322,637.83943 953.36957,638.14032 C 952.82872,638.27663 937.98621,632.46821 920.38621,625.23268 z"
       id="path7089" />
    <path
       style="opacity:1;fill:#000000;fill-opacity:1;fill-rule:nonzero;stroke:#000000;stroke-width:1.10344827;stroke-miterlimit:4;stroke-dasharray:none;stroke-opacity:1"
       d="M 899.43362,667.64339 C 884.26833,657.60835 871.1097,648.967 870.19224,648.44038 C 868.80284,647.64287 869.90681,644.78538 876.8,631.3371 C 881.35172,622.45694 885.62092,614.96038 886.28711,614.67817 C 887.28555,614.25519 951.15001,639.70262 952.5146,641.06722 C 953.35084,641.90342 929.54956,685.99527 928.29043,685.94259 C 927.58447,685.91301 914.59892,677.6784 899.43362,667.64337 L 899.43362,667.64339 z"
       id="path7091" />
    <path
       style="opacity:1;fill:#000000;fill-opacity:1;fill-rule:nonzero;stroke:#000000;stroke-width:1.10344827;stroke-miterlimit:4;stroke-dasharray:none;stroke-opacity:1"
       d="M 869.01612,703.92187 L 843.25212,678.66507 L 854.61574,664.67457 C 860.86568,656.97979 866.38761,650.43172 866.88665,650.1233 C 867.38567,649.81486 881.26351,658.42543 897.72625,669.25788 L 927.6585,688.95326 L 912.61398,707.61273 C 904.3395,717.8754 896.94187,726.92612 896.17482,727.72542 C 895.03484,728.91333 890.07616,724.56727 869.01614,703.92186 L 869.01612,703.92187 z"
       id="path7093" />
    <path
       style="opacity:1;fill:#000000;fill-opacity:1;fill-rule:nonzero;stroke:#000000;stroke-width:1.10344827;stroke-miterlimit:4;stroke-dasharray:none;stroke-opacity:1"
       d="M 833.2674,735.12007 C 822.37277,719.20309 813.30701,705.72423 813.12131,705.16711 C 812.93559,704.61002 819.27204,698.76842 827.2023,692.18584 L 841.62092,680.21753 L 864.45187,702.62297 C 877.00885,714.94601 888.68499,726.34767 890.39883,727.96002 L 893.51491,730.89156 L 874.3988,746.84341 C 863.88499,755.61696 854.78621,763.0799 854.17931,763.42774 C 853.57241,763.77558 844.16206,751.03714 833.26741,735.12011 L 833.2674,735.12007 z"
       id="path7095" />
    <path
       style="opacity:1;fill:#000000;fill-opacity:1;fill-rule:nonzero;stroke:#000000;stroke-width:1.10344827;stroke-miterlimit:4;stroke-dasharray:none;stroke-opacity:1"
       d="M 828.40231,760.44821 C 817.86636,758.40934 809.05205,756.54719 808.81495,756.31009 C 808.57785,756.07301 809.12212,745.49332 810.02442,732.79971 C 810.92674,720.10612 811.67209,709.27072 811.68077,708.72108 C 811.69239,707.98347 845.79144,756.80748 849.84216,763.3617 C 850.68134,764.71946 849.98653,764.62507 828.40233,760.44821 L 828.40231,760.44821 z"
       id="path7097" />
  </g>
  <g
     inkscape:groupmode="layer"
     id="layer2"
     inkscape:label="1"
     style="opacity:1;display:inline">
    <rect
       style="opacity:1;fill:#ffffff;fill-opacity:1;fill-rule:nonzero;stroke:#ffffff;stroke-width:1;stroke-miterlimit:4;stroke-dasharray:none;stroke-opacity:1"
       id="rect6552"
       width="37.921139"
       height="3.8824844"
       x="455.23987"
       y="534.83783" />
  </g>
</svg>
